<svg width="42" height="37" viewBox="0 0 42 37" fill="none" xmlns="http://www.w3.org/2000/svg">
<path d="M28.8158 11.4873V32.504C28.8158 34.4403 27.2526 36.0001 25.3421 36.0001H4.47363C2.54977 36.0001 1 34.4268 1 32.504V11.5008H28.8158V11.4873Z" stroke="#344B6B" stroke-linecap="round" stroke-linejoin="round"/>
<path d="M39.2631 25.7414C40.2652 25.8489 41 26.8574 41 27.8659C41 29.1702 39.7307 30.1921 38.4081 30.1921C37.2992 30.1921 34.9345 29.2105 34.9345 25.8086C34.9345 22.0705 37.5263 15.549 37.5263 9.99564C37.5263 2.18329 32.1155 1 29.0293 1C23.9925 1 21.8816 5.38354 21.8816 8.8796C21.8816 9.57881 21.8816 11.4479 21.8816 11.4479" stroke="#344B6B" stroke-linecap="round" stroke-linejoin="round"/>
<path d="M19.2503 11.4873C19.2503 13.9077 17.2998 15.8708 14.8949 15.8708C12.4901 15.8708 10.5396 13.9077 10.5396 11.4873" stroke="#344B6B" stroke-linecap="round" stroke-linejoin="round"/>
<path d="M3.59155 8.86834V5.37228C3.59155 3.436 5.15469 1.87622 7.06518 1.87622H20.9864" stroke="#344B6B" stroke-linecap="round" stroke-linejoin="round"/>
<path d="M20.9867 1.86035H7.06543" stroke="#344B6B" stroke-linecap="round" stroke-linejoin="round"/>
<path d="M26.2104 8.86618V5.37012" stroke="#344B6B" stroke-linecap="round" stroke-linejoin="round"/>
</svg>
