<svg width="42" height="42" viewBox="0 0 42 42" fill="none" xmlns="http://www.w3.org/2000/svg">
<path d="M12.1005 7.37227C10.965 6.81115 9.86969 6.20996 8.18659 6.20996C2.72318 6.20996 1 11.4337 1 14.3595C1 19.5965 4.11241 21.9345 4.76695 27.5724C5.63521 37.5923 8.50718 40.9857 10.2704 40.9857C11.3524 40.9857 12.2341 40.1039 12.2341 39.0218L13.7301 29.0954C13.7702 28.7748 14.1175 27.3185 15.6136 27.3185C16.5754 27.3185 17.3769 28.04 17.4837 29.0019L18.9932 39.0351C18.9932 40.1173 19.8748 40.999 20.9568 40.999C22.7468 40.999 25.5787 37.6992 26.4603 27.5857C26.7141 25.4348 27.235 24.1255 27.8896 22.3754" stroke="#344B6B" stroke-linecap="round" stroke-linejoin="round"/>
<path d="M15.0391 8.29361C15.2929 8.32033 15.3196 8.34705 15.6001 8.34705C18.7392 8.34705 19.7945 6.20947 23.0138 6.20947C28.4772 6.20947 30.2004 11.4332 30.2004 14.359C30.2004 16.4031 29.7729 17.5787 29.3989 18.7811" stroke="#344B6B" stroke-linecap="round" stroke-linejoin="round"/>
<path d="M15.2521 8.25038C16.067 8.74469 16.9085 9.18557 17.7902 9.54629C18.6718 9.89364 19.5801 10.1608 20.5018 10.241C20.7423 10.2544 20.9159 10.4681 20.9026 10.7086C20.8892 10.9223 20.7155 11.096 20.5018 11.1094C19.4465 11.1762 18.4046 11.0292 17.3894 10.7888C16.3742 10.5483 15.3991 10.2009 14.4507 9.80012C14.0098 9.61308 13.7961 9.10541 13.9831 8.65117C14.1701 8.2103 14.6777 7.99654 15.1319 8.18358C15.1854 8.2103 15.2254 8.22366 15.2521 8.25038Z" fill="#344B6B"/>
<path d="M24.8734 22.7499C30.8786 22.7499 35.7468 17.881 35.7468 11.8749C35.7468 5.86887 30.8786 1 24.8734 1C18.8682 1 14 5.86887 14 11.8749C14 17.881 18.8682 22.7499 24.8734 22.7499Z" stroke="#344B6B" stroke-linecap="round" stroke-linejoin="round"/>
<path d="M32.4287 20.0476L41.0002 28.6191" stroke="#344B6B" stroke-linecap="round" stroke-linejoin="round"/>
</svg>
