<svg width="22" height="41" viewBox="0 0 22 41" fill="none" xmlns="http://www.w3.org/2000/svg">
<path d="M5.9398 10.9112C8.66798 10.9112 10.8796 8.61016 10.8796 5.77165C10.8796 2.93314 8.66798 0.63208 5.9398 0.63208C3.21161 0.63208 1 2.93314 1 5.77165C1 8.61016 3.21161 10.9112 5.9398 10.9112Z" stroke="#344B6B" stroke-linecap="round" stroke-linejoin="round"/>
<path d="M5.9397 10.8984V20.3101" stroke="#344B6B" stroke-linecap="round" stroke-linejoin="round"/>
<path d="M7.58191 40.0003H4.29712V22.0316C4.29712 21.0851 5.02988 20.3228 5.93952 20.3228C6.84915 20.3228 7.58191 21.0851 7.58191 22.0316V40.0003Z" stroke="#344B6B" stroke-linecap="round" stroke-linejoin="round"/>
<path d="M18.1704 0.117271L20.8216 3.73545C21.0006 3.98097 21.0536 4.45909 20.9409 4.82091L20.9343 4.84676L19.211 10.3128L19.2773 9.87344V19.9656C19.2773 20.4308 19.0851 20.8055 18.8465 20.8055C18.6079 20.8055 18.4157 20.4308 18.4157 19.9656V9.87344C18.4157 9.71837 18.4422 9.56332 18.482 9.4341L20.2052 3.96805L20.3113 5.07935L17.786 1.1252C17.6468 0.905523 17.627 0.504936 17.7396 0.233572C17.839 -0.024869 18.0313 -0.0765605 18.1704 0.117271Z" fill="#344B6B"/>
<path d="M20.7465 40.0003H17.4617V22.0316C17.4617 21.0851 18.1944 20.3228 19.1041 20.3228C20.0137 20.3228 20.7465 21.0851 20.7465 22.0316V40.0003Z" stroke="#344B6B" stroke-linecap="round" stroke-linejoin="round"/>
</svg>
