<svg width="42" height="42" viewBox="0 0 42 42" fill="none" xmlns="http://www.w3.org/2000/svg">
<path d="M30.1358 17.0954C31.0501 14.954 31.8837 12.8686 31.8837 9.97144C31.8837 6.73836 30.0552 1 24.2871 1C20.8855 1 19.7696 3.35133 16.4486 3.35133C13.1411 3.35133 11.9713 1 8.59656 1C2.82855 1 1 6.73836 1 9.97144C1 15.7238 4.29408 18.2991 4.97979 24.5133C5.90751 35.5421 8.9327 39.2791 10.7881 39.2791C11.931 39.2791 12.8587 38.3134 12.8587 37.1237L14.4452 26.2068C14.4856 25.8569 14.8486 24.2474 16.4351 24.2474C17.457 24.2474 18.304 25.0451 18.4116 26.0948L19.9981 37.1237C19.9981 38.3134 20.9258 39.2791 22.0687 39.2791C23.0771 39.2791 24.4216 38.2294 25.5779 35.5281" stroke="#344B6B" stroke-linecap="round" stroke-linejoin="round"/>
<path d="M13.6122 1.78404C13.7467 1.88201 13.8945 2.00798 14.0424 2.11995C14.1903 2.23192 14.3517 2.34388 14.4996 2.45585C14.8088 2.67978 15.1181 2.88972 15.4407 3.08567C16.0727 3.49155 16.7315 3.86945 17.4037 4.19136C18.076 4.51327 18.7617 4.80718 19.4743 5.03112C20.1869 5.24106 20.8995 5.39502 21.6256 5.451H21.639C21.881 5.465 22.0692 5.68893 22.0424 5.94086C22.0289 6.17879 21.8407 6.36074 21.6121 6.36074C20.792 6.38874 19.9852 6.29076 19.192 6.1368C18.3987 5.96885 17.6323 5.73092 16.8928 5.451C16.1399 5.17108 15.4139 4.83517 14.7013 4.48527C14.3382 4.30332 13.9887 4.12138 13.6391 3.91144C13.4643 3.81347 13.2895 3.71549 13.1147 3.60352C12.9399 3.49156 12.7786 3.39358 12.5903 3.26762C12.187 3.00169 12.066 2.42785 12.3214 2.00797C12.5769 1.58809 13.1282 1.46213 13.5315 1.72805C13.5584 1.74205 13.5853 1.77004 13.6122 1.78404Z" fill="#344B6B"/>
<path d="M32.0927 18.959L32.1983 19.0706C34.5736 21.6234 37.6615 23.3113 41.0001 23.8554V25.9339C41.0001 33.0065 37.3843 37.7215 32.0135 40.9997C26.6427 37.7076 22.9609 32.9507 22.9609 25.9339V23.8554L23.2117 23.8135C26.4051 23.2834 29.3611 21.735 31.6968 19.3635L32.0927 18.959Z" stroke="#344B6B" stroke-miterlimit="10" stroke-linecap="round" stroke-linejoin="round"/>
</svg>
