<svg width="72" height="42" viewBox="0 0 72 42" fill="none" xmlns="http://www.w3.org/2000/svg">
<path d="M1.46875 13.9185C2.49989 17.7544 4.91372 20.4911 5.52303 25.5608C6.57761 37.0909 10.0226 40.9941 12.1317 40.9941C13.4206 40.9941 14.4752 39.9847 14.4752 38.7509L16.2797 27.3329C16.3266 26.974 16.7484 25.2916 18.5529 25.2916C19.7012 25.2916 20.6855 26.1216 20.8027 27.2207L22.6072 38.7509C22.6072 39.9847 23.6618 40.9941 24.9507 40.9941C27.0833 40.9941 30.5048 37.2031 31.5594 25.5608C32.1218 20.8276 34.2779 18.1133 35.4027 14.6587" stroke="#344B6B" stroke-linecap="round" stroke-linejoin="round"/>
<path d="M36.0813 9.32231C35.6829 5.8902 33.3394 1 27.4572 1C23.5904 1 22.3249 3.44511 18.5519 3.44511C14.7788 3.44511 13.4665 1 9.62316 1C4.04561 1 1.72553 5.32941 1.13965 8.69423" stroke="#344B6B" stroke-linecap="round" stroke-linejoin="round"/>
<path d="M16.2737 3.18701C16.332 3.24474 16.4253 3.30248 16.5069 3.37176C16.5886 3.42949 16.6702 3.49878 16.7519 3.55651C16.9152 3.67198 17.0901 3.78746 17.2651 3.90293C17.615 4.12233 17.9766 4.33018 18.3382 4.51494C18.7115 4.69969 19.0847 4.86135 19.4696 4.98837C19.8545 5.11539 20.2511 5.20776 20.6477 5.24241H20.6594C20.8693 5.2655 21.021 5.45027 20.9976 5.65812C20.9743 5.84287 20.8227 5.99298 20.636 5.99298C20.1578 6.01607 19.6913 5.98144 19.2247 5.90061C18.7698 5.81978 18.3266 5.69276 17.8833 5.55419C17.4517 5.40407 17.0202 5.24241 16.6119 5.04611C16.402 4.95373 16.2037 4.84981 15.9937 4.74588C15.8887 4.69969 15.7954 4.64195 15.6905 4.58422C15.5855 4.52648 15.4922 4.48029 15.3755 4.41101L15.3639 4.39947C15.0023 4.18007 14.8973 3.71818 15.1072 3.36021C15.3289 3.00225 15.7954 2.89832 16.157 3.10617C16.2037 3.14081 16.2387 3.16391 16.2737 3.18701Z" fill="#344B6B"/>
<path d="M71 8.62692C70.3907 5.2621 68.0472 1 62.5166 1C58.6498 1 57.3843 3.44511 53.6112 3.44511C49.8382 3.44511 48.5258 1 44.6825 1C38.73 1 36.4099 5.8902 36.0583 9.32231" stroke="#344B6B" stroke-linecap="round" stroke-linejoin="round"/>
<path d="M36.7151 14.4851C37.8165 18.0294 40.0195 20.7437 40.6053 25.5666C41.6599 37.0968 45.1048 41 47.214 41C48.5029 41 49.5575 39.9905 49.5575 38.7568L51.362 27.3388C51.4089 26.9799 51.8307 25.2975 53.6352 25.2975C54.7835 25.2975 55.7678 26.1274 55.885 27.2266L57.6895 38.7568C57.6895 39.9905 58.744 41 60.033 41C62.1655 41 65.5871 37.2089 66.6416 25.5666C67.2509 20.5194 69.6648 17.7602 70.6959 13.9468" stroke="#344B6B" stroke-linecap="round" stroke-linejoin="round"/>
<path d="M51.2737 3.18701C51.332 3.24474 51.4253 3.30248 51.5069 3.37176C51.5886 3.42949 51.6703 3.49878 51.7519 3.55651C51.9152 3.67198 52.0901 3.78746 52.2651 3.90293C52.615 4.12233 52.9766 4.33018 53.3382 4.51494C53.7115 4.69969 54.0847 4.86135 54.4696 4.98837C54.8545 5.11539 55.2511 5.20776 55.6477 5.24241H55.6594C55.8693 5.2655 56.021 5.45027 55.9976 5.65812C55.9743 5.84287 55.8227 5.99298 55.636 5.99298C55.1578 6.01607 54.6913 5.98144 54.2247 5.90061C53.7698 5.81978 53.3266 5.69276 52.8833 5.55419C52.4517 5.40407 52.0202 5.24241 51.6119 5.04611C51.402 4.95373 51.2037 4.84981 50.9937 4.74588C50.8888 4.69969 50.7954 4.64195 50.6905 4.58422C50.5855 4.52648 50.4922 4.48029 50.3755 4.41101L50.3639 4.39947C50.0023 4.18007 49.8973 3.71818 50.1072 3.36021C50.3289 3.00225 50.7954 2.89832 51.157 3.10617C51.2153 3.14081 51.2503 3.16391 51.2737 3.18701Z" fill="#344B6B"/>
<path d="M20.8253 10.915H14.7322V16.7474H20.8253V10.915Z" stroke="#344B6B" stroke-linecap="round" stroke-linejoin="round"/>
<path d="M56.6578 10.915H50.5647V16.7474H56.6578V10.915Z" stroke="#344B6B" stroke-linecap="round" stroke-linejoin="round"/>
<path d="M50.5658 13.8325H20.8267" stroke="#344B6B" stroke-linecap="round" stroke-linejoin="round"/>
<path d="M14.8029 14.2097H1" stroke="#344B6B" stroke-linecap="round" stroke-linejoin="round"/>
<path d="M70.0149 14.21H56.2119" stroke="#344B6B" stroke-linecap="round" stroke-linejoin="round"/>
</svg>
