<svg width="42" height="42" viewBox="0 0 42 42" fill="none" xmlns="http://www.w3.org/2000/svg">
<path d="M14.3128 22.744H29.4883L39.4276 32.4533C40.3163 33.3213 40.2889 34.737 39.3593 35.565C38.4843 36.3396 37.1445 36.3129 36.3105 35.4982L27.711 27.0978H11.6879L1.63919 17.2817C0.791549 16.4537 0.79155 15.1315 1.61185 14.2901C2.45949 13.4354 3.854 13.422 4.71531 14.2634L11.6879 21.0212" stroke="#344B6B" stroke-linecap="round" stroke-linejoin="round"/>
<path d="M11.6875 27.0962L16.1581 19.27H26.0701" stroke="#344B6B" stroke-linecap="round" stroke-linejoin="round"/>
<path d="M13.4661 27.9667V31.4391H25.9346V27.0986" stroke="#344B6B" stroke-linecap="round" stroke-linejoin="round"/>
<path d="M10.7993 40.1299V40.998H28.5998V40.1299C28.5998 38.6875 27.4104 37.5256 25.9338 37.5256H13.479C11.9888 37.5256 10.7993 38.6875 10.7993 40.1299Z" stroke="#344B6B" stroke-linecap="round" stroke-linejoin="round"/>
<path d="M15.1887 31.4639V35.2568" stroke="#344B6B" stroke-linecap="round" stroke-linejoin="round"/>
<path d="M24.5388 31.4639V35.2568" stroke="#344B6B" stroke-linecap="round" stroke-linejoin="round"/>
<path d="M28.6001 40.9995H37.6097V36.9529" stroke="#344B6B" stroke-linecap="round" stroke-linejoin="round"/>
<path d="M37.6082 27.0976V13.916H24.0869V16.6538" stroke="#344B6B" stroke-linecap="round" stroke-linejoin="round"/>
<path d="M20.5884 1H35.7229C38.635 1 41.0002 3.31046 41.0002 6.15513V18.5088H37.6916" stroke="#344B6B" stroke-linecap="round" stroke-linejoin="round"/>
<path d="M28.8186 9.6413C27.6155 6.14223 24.2386 3.60474 20.2464 3.60474C16.2543 3.60474 12.8774 6.12887 11.6743 9.6413H28.8186Z" stroke="#344B6B" stroke-linecap="round" stroke-linejoin="round"/>
<path d="M18.5779 3.61763V1H22.1462V3.61763" stroke="#344B6B" stroke-linecap="round" stroke-linejoin="round"/>
</svg>
