<svg width="288" height="288" viewBox="0 0 288 288" fill="none" xmlns="http://www.w3.org/2000/svg">
<path d="M114.848 268.933C115.199 266.125 116.434 263.796 118.553 261.947L116.599 259.363L119.33 257.458L121.365 260.144C123.292 259.338 125.246 259.059 127.226 259.307C130.257 259.685 132.721 261.071 134.618 263.463C136.492 265.872 137.237 268.613 136.853 271.684C136.469 274.756 135.073 277.218 132.666 279.072C130.257 280.946 127.526 281.693 124.475 281.311C121.424 280.93 118.961 279.534 117.087 277.125C115.21 274.735 114.464 272.005 114.848 268.933ZM126.801 262.701C125.71 262.565 124.62 262.665 123.532 263L126.915 267.456L124.183 269.362L120.641 264.702C119.333 265.975 118.564 267.53 118.334 269.369C118.063 271.531 118.565 273.431 119.838 275.067C121.111 276.704 122.798 277.654 124.899 277.917C127.001 278.179 128.87 277.674 130.507 276.401C132.143 275.128 133.097 273.411 133.367 271.249C133.637 269.086 133.136 267.187 131.863 265.55C130.59 263.914 128.903 262.964 126.801 262.701Z" fill="#58C1D6"/>
<path d="M107.604 269.103C107.414 269.727 107.052 270.18 106.518 270.465C105.959 270.763 105.368 270.817 104.745 270.627C104.129 270.482 103.678 270.111 103.392 269.513C103.106 268.915 103.048 268.333 103.221 267.768C103.393 267.203 103.764 266.752 104.335 266.415C104.933 266.129 105.515 266.072 106.08 266.244C106.644 266.416 107.095 266.788 107.432 267.359C107.769 267.93 107.826 268.511 107.604 269.103ZM108.082 259.67C107.478 259.486 107.027 259.114 106.729 258.555C106.431 257.996 106.374 257.415 106.558 256.811C106.742 256.207 107.113 255.756 107.672 255.458C108.232 255.16 108.813 255.103 109.417 255.287C110.021 255.471 110.472 255.842 110.77 256.401C111.068 256.96 111.125 257.542 110.941 258.146C110.757 258.749 110.395 259.203 109.856 259.507C109.297 259.805 108.705 259.859 108.082 259.67Z" fill="#58C1D6"/>
<path d="M77.5102 239.735C80.2034 241.495 81.857 243.841 82.471 246.772C83.0627 249.738 82.5063 252.525 80.8016 255.133C79.0859 257.758 76.7623 259.377 73.8308 259.991C70.9053 260.633 68.0874 260.069 65.3772 258.297C63.7579 257.239 62.5171 255.88 61.6548 254.222C60.7755 252.553 60.3813 250.811 60.4721 248.997L63.9982 249.185C63.8961 250.384 64.1382 251.539 64.7244 252.652C65.2824 253.771 66.124 254.698 67.249 255.434C69.141 256.67 71.0876 257.079 73.0889 256.66C75.0449 256.235 76.6357 255.086 77.8613 253.211C79.0869 251.336 79.5015 249.417 79.1053 247.455C78.6861 245.454 77.5305 243.835 75.6384 242.598C74.5134 241.863 73.3236 241.45 72.0689 241.36C70.8031 241.287 69.6504 241.543 68.6108 242.128L67.0066 239C68.5863 238.184 70.3368 237.832 72.2582 237.944C74.1061 238.057 75.8568 238.654 77.5102 239.735Z" fill="#58C1D6"/>
<path d="M48.4108 243.949L60.8706 230.928L54.5809 224.909L56.9039 222.481L65.7315 230.929L50.9488 246.377L48.4108 243.949Z" fill="#58C1D6"/>
<path d="M52.958 217.373L36.1861 230.635L34.0074 227.88L50.7793 214.618L52.958 217.373Z" fill="#58C1D6"/>
<path d="M32.667 198.592L20.0111 205.687L18.2933 202.623L36.9441 192.167L38.2885 194.565L30.5618 210.452L43.2177 203.357L44.9355 206.421L26.2847 216.877L24.9403 214.479L32.667 198.592Z" fill="#58C1D6"/>
<path d="M34.6367 185.436L14.5722 192.825L13.3583 189.529L33.4228 182.14L34.6367 185.436Z" fill="#58C1D6"/>
<path d="M28.8881 162.579C29.4899 165.739 28.9487 168.558 27.2643 171.035C25.54 173.519 23.1475 175.052 20.0869 175.635C17.0062 176.222 14.2276 175.673 11.7511 173.988C9.25829 172.328 7.70909 169.907 7.10346 166.727C6.74161 164.826 6.85842 162.99 7.45389 161.218C8.04556 159.427 9.02585 157.934 10.3948 156.741L12.7065 159.41C11.7729 160.168 11.1089 161.144 10.7145 162.339C10.2962 163.517 10.2128 164.767 10.4642 166.087C10.887 168.307 11.9437 169.992 13.6345 171.142C15.2976 172.256 17.2294 172.603 19.4299 172.184C21.6303 171.765 23.2993 170.732 24.4368 169.085C25.5866 167.395 25.9502 165.439 25.5274 163.219C25.276 161.898 24.7474 160.755 23.9416 159.789C23.1157 158.827 22.1313 158.175 20.9882 157.833L22.1273 154.507C23.8114 155.077 25.2797 156.093 26.5322 157.555C27.7333 158.964 28.5186 160.638 28.8881 162.579Z" fill="#58C1D6"/>
<path d="M19.715 111.886C22.5147 112.303 24.8139 113.592 26.6125 115.754L29.2416 113.86L31.0827 116.636L28.3495 118.607C29.1098 120.552 29.3429 122.512 29.049 124.486C28.5991 127.507 27.1563 129.938 24.7205 131.778C22.2676 133.595 19.5104 134.276 16.4488 133.82C13.3873 133.364 10.9581 131.911 9.16116 129.461C7.34407 127.008 6.66198 124.261 7.11487 121.22C7.56776 118.178 9.02067 115.749 11.4736 113.932C13.9064 112.112 16.6535 111.43 19.715 111.886ZM25.6652 123.982C25.8272 122.894 25.753 121.802 25.4427 120.706L20.9091 123.984L19.068 121.208L23.8099 117.776C22.568 116.438 21.0306 115.633 19.1977 115.36C17.0425 115.039 15.1319 115.496 13.4657 116.73C11.7996 117.964 10.8106 119.629 10.4986 121.723C10.1867 123.818 10.6479 125.699 11.8821 127.365C13.1164 129.031 14.8111 130.024 16.9662 130.345C19.1214 130.666 21.032 130.21 22.6981 128.975C24.3643 127.741 25.3533 126.077 25.6652 123.982Z" fill="#58C1D6"/>
<path d="M19.7187 104.634C19.0999 104.43 18.6546 104.057 18.3827 103.517C18.0979 102.951 18.0577 102.359 18.2621 101.74C18.4215 101.128 18.8035 100.686 19.4081 100.414C20.0127 100.142 20.5953 100.098 21.1561 100.283C21.7168 100.469 22.1589 100.851 22.4824 101.429C22.7545 102.034 22.7979 102.617 22.6126 103.177C22.4274 103.738 22.0454 104.18 21.4667 104.504C20.888 104.827 20.3053 104.871 19.7187 104.634ZM29.1384 105.334C29.3364 104.734 29.7184 104.292 30.2843 104.007C30.8503 103.722 31.4329 103.679 32.0323 103.877C32.6317 104.075 33.0739 104.457 33.3587 105.023C33.6435 105.589 33.6869 106.172 33.4889 106.771C33.2909 107.37 32.9089 107.812 32.3429 108.097C31.777 108.382 31.1943 108.426 30.5949 108.227C29.9955 108.029 29.5502 107.657 29.259 107.111C28.9742 106.545 28.934 105.952 29.1384 105.334Z" fill="#58C1D6"/>
<path d="M49.7807 75.249C47.9577 77.9001 45.5736 79.4982 42.6286 80.0433C39.65 80.5653 36.8771 79.9437 34.3099 78.1783C31.7258 76.4014 30.1613 74.0405 29.6162 71.0954C29.0428 68.1557 29.6734 65.3518 31.508 62.6839C32.6041 61.0898 33.9912 59.8813 35.6694 59.0581C37.359 58.2182 39.1095 57.8649 40.9207 57.9983L40.6498 61.519C39.4542 61.3889 38.2932 61.6038 37.1667 62.1637C36.035 62.6953 35.0884 63.5149 34.3269 64.6223C33.0462 66.4848 32.5919 68.4213 32.964 70.4319C33.3424 72.3973 34.4545 74.0147 36.3002 75.2839C38.1459 76.5531 40.0541 77.0126 42.0248 76.6625C44.0354 76.2904 45.681 75.1731 46.9618 73.3106C47.7233 72.2031 48.1639 71.0233 48.2836 69.7711C48.3865 68.5073 48.1574 67.3489 47.5964 66.2959L50.7618 64.7655C51.5409 66.3639 51.8517 68.1222 51.6942 70.0404C51.5377 71.8852 50.8999 73.6214 49.7807 75.249Z" fill="#58C1D6"/>
<path d="M46.2536 46.045L58.9785 58.8068L65.1431 52.66L67.5156 55.0393L58.8635 63.6664L43.7662 48.5253L46.2536 46.045Z" fill="#58C1D6"/>
<path d="M72.7072 51.2251L59.8421 34.1467L62.6479 32.0332L75.513 49.1116L72.7072 51.2251Z" fill="#58C1D6"/>
<path d="M91.9681 31.3805L85.1718 18.5616L88.2753 16.9162L98.2909 35.8072L95.8621 37.0949L80.16 28.9977L86.9563 41.8166L83.8528 43.462L73.8372 24.571L76.266 23.2833L91.9681 31.3805Z" fill="#58C1D6"/>
<path d="M105.077 33.6522L98.1608 13.4199L101.485 12.2837L108.401 32.516L105.077 33.6522Z" fill="#58C1D6"/>
<path d="M128.063 28.4444C124.889 28.9719 122.084 28.3647 119.648 26.6228C117.205 24.8407 115.728 22.4129 115.217 19.3394C114.703 16.2458 115.317 13.4809 117.058 11.0445C118.777 8.59134 121.233 7.09935 124.427 6.5685C126.336 6.25133 128.168 6.41117 129.926 7.04804C131.703 7.68158 133.172 8.69661 134.333 10.0932L131.611 12.3416C130.875 11.3905 129.914 10.7038 128.729 10.2814C127.561 9.83566 126.314 9.72295 124.988 9.9433C122.758 10.3139 121.049 11.3308 119.86 12.9941C118.707 14.6307 118.315 16.5538 118.682 18.7635C119.049 20.9732 120.043 22.6659 121.663 23.8417C123.326 25.0309 125.272 25.4402 127.502 25.0696C128.828 24.8493 129.983 24.3476 130.968 23.5647C131.949 22.7617 132.624 21.7928 132.993 20.6581L136.292 21.8748C135.681 23.5451 134.631 24.9892 133.141 26.2071C131.704 27.3748 130.012 28.1206 128.063 28.4444Z" fill="#58C1D6"/>
<path d="M178.949 20.4588C178.467 23.2479 177.124 25.5162 174.92 27.2636L176.752 29.9364L173.934 31.7118L172.028 28.9332C170.065 29.6476 168.1 29.8347 166.134 29.4946C163.124 28.974 160.728 27.4745 158.945 24.9962C157.186 22.5013 156.57 19.7289 157.098 16.6789C157.625 13.6289 159.135 11.2345 161.626 9.4955C164.121 7.73646 166.884 7.11899 169.913 7.6431C172.943 8.16721 175.338 9.67671 177.097 12.1716C178.859 14.6464 179.477 17.4088 178.949 20.4588ZM166.717 26.1236C167.8 26.311 168.894 26.2625 169.997 25.978L166.826 21.3687L169.644 19.5932L172.964 24.4143C174.331 23.2041 175.172 21.686 175.488 19.86C175.859 17.713 175.448 15.7922 174.253 14.0975C173.058 12.4029 171.417 11.3751 169.33 11.0141C167.244 10.6532 165.353 11.0701 163.658 12.2649C161.964 13.4597 160.931 15.1306 160.559 17.2777C160.188 19.4247 160.599 21.3455 161.794 23.0402C162.989 24.7348 164.63 25.7626 166.717 26.1236Z" fill="#58C1D6"/>
<path d="M186.199 20.6357C186.418 20.0219 186.801 19.5854 187.347 19.3263C187.92 19.0548 188.513 19.0285 189.127 19.2474C189.735 19.4211 190.168 19.8133 190.426 20.4241C190.684 21.035 190.713 21.6185 190.515 22.1747C190.317 22.7309 189.924 23.164 189.338 23.4738C188.727 23.7316 188.144 23.7613 187.588 23.563C187.031 23.3646 186.598 22.9724 186.289 22.3862C185.979 21.8001 185.949 21.2166 186.199 20.6357ZM185.279 30.0364C185.874 30.2484 186.307 30.6407 186.578 31.2131C186.85 31.7856 186.879 32.3691 186.667 32.9637C186.455 33.5583 186.063 33.9913 185.491 34.2628C184.918 34.5343 184.335 34.564 183.74 34.352C183.145 34.1399 182.712 33.7477 182.441 33.1752C182.169 32.6028 182.14 32.0192 182.352 31.4246C182.564 30.83 182.946 30.3936 183.5 30.1153C184.072 29.8438 184.665 29.8175 185.279 30.0364Z" fill="#58C1D6"/>
<path d="M214.875 51.3791C212.267 49.4944 210.725 47.0735 210.249 44.1165C209.797 41.1265 210.484 38.3689 212.309 35.8438C214.146 33.3021 216.543 31.7934 219.5 31.3176C222.452 30.8133 225.241 31.5095 227.865 33.4061C229.433 34.5393 230.608 35.9544 231.392 37.6514C232.192 39.3603 232.504 41.1186 232.328 42.9262L228.815 42.5727C228.973 41.3805 228.786 40.2148 228.252 39.0755C227.747 37.9317 226.95 36.9661 225.861 36.1788C224.029 34.8547 222.104 34.3551 220.085 34.68C218.111 35.0122 216.468 36.086 215.156 37.9015C213.844 39.7169 213.34 41.6138 213.643 43.5922C213.968 45.6109 215.047 47.2823 216.879 48.6064C217.968 49.3937 219.137 49.8618 220.386 50.0109C221.647 50.1434 222.811 49.9416 223.876 49.4054L225.332 52.6058C223.716 53.3472 221.951 53.6167 220.037 53.4142C218.196 53.2145 216.475 52.5362 214.875 51.3791Z" fill="#58C1D6"/>
<path d="M244.141 48.5349L231.084 60.957L237.085 67.264L234.651 69.58L226.229 60.728L241.72 45.99L244.141 48.5349Z" fill="#58C1D6"/>
<path d="M238.352 74.8628L255.727 62.4019L257.775 65.2564L240.399 77.7173L238.352 74.8628Z" fill="#58C1D6"/>
<path d="M257.739 94.5803L270.714 88.0865L272.286 91.2278L253.165 100.798L251.935 98.3391L260.398 82.8313L247.423 89.3251L245.851 86.1838L264.972 76.6141L266.202 79.0724L257.739 94.5803Z" fill="#58C1D6"/>
<path d="M255.159 107.637L275.548 101.197L276.606 104.546L256.217 110.986L255.159 107.637Z" fill="#58C1D6"/>
<path d="M259.83 130.733C259.377 127.548 260.05 124.758 261.849 122.363C263.688 119.962 266.15 118.543 269.234 118.104C272.339 117.663 275.089 118.341 277.484 120.14C279.896 121.916 281.33 124.406 281.786 127.612C282.058 129.527 281.855 131.356 281.177 133.097C280.502 134.859 279.453 136.304 278.03 137.432L275.846 134.658C276.814 133.944 277.523 133 277.973 131.825C278.446 130.668 278.588 129.424 278.399 128.093C278.08 125.855 277.104 124.123 275.469 122.895C273.86 121.704 271.946 121.267 269.729 121.582C267.511 121.897 265.795 122.851 264.582 124.443C263.354 126.078 262.899 128.014 263.217 130.252C263.407 131.582 263.881 132.749 264.641 133.752C265.42 134.752 266.373 135.449 267.499 135.844L266.205 139.114C264.55 138.465 263.131 137.381 261.948 135.862C260.814 134.399 260.108 132.689 259.83 130.733Z" fill="#58C1D6"/>
<path d="M266.614 181.797C263.837 181.249 261.601 179.853 259.906 177.609L257.191 179.377L255.482 176.519L258.304 174.678C257.636 172.699 257.495 170.73 257.881 168.772C258.473 165.776 260.028 163.415 262.547 161.691C265.083 159.991 267.869 159.441 270.906 160.04C273.942 160.639 276.301 162.204 277.981 164.736C279.681 167.271 280.233 170.047 279.638 173.064C279.043 176.081 277.478 178.439 274.943 180.139C272.427 181.843 269.651 182.396 266.614 181.797ZM261.238 169.435C261.025 170.513 261.048 171.608 261.307 172.717L265.989 169.656L267.698 172.514L262.8 175.72C263.978 177.115 265.476 177.992 267.294 178.35C269.432 178.772 271.362 178.405 273.084 177.251C274.806 176.096 275.872 174.48 276.282 172.402C276.692 170.324 276.319 168.424 275.165 166.702C274.01 164.98 272.364 163.908 270.226 163.486C268.088 163.064 266.158 163.431 264.436 164.586C262.714 165.74 261.648 167.357 261.238 169.435Z" fill="#58C1D6"/>
<path d="M266.272 189.038C266.881 189.272 267.308 189.664 267.554 190.217C267.812 190.795 267.825 191.389 267.591 191.997C267.403 192.602 267.001 193.025 266.384 193.269C265.768 193.512 265.184 193.528 264.632 193.317C264.081 193.105 263.657 192.703 263.361 192.11C263.118 191.493 263.102 190.909 263.313 190.358C263.524 189.806 263.927 189.382 264.52 189.086C265.113 188.79 265.697 188.774 266.272 189.038ZM256.896 187.898C256.67 188.487 256.267 188.911 255.689 189.169C255.11 189.427 254.526 189.443 253.936 189.217C253.347 188.991 252.923 188.589 252.665 188.01C252.407 187.431 252.391 186.847 252.617 186.258C252.843 185.668 253.246 185.245 253.824 184.987C254.403 184.729 254.987 184.713 255.576 184.939C256.166 185.165 256.593 185.557 256.858 186.117C257.116 186.696 257.129 187.289 256.896 187.898Z" fill="#58C1D6"/>
<path d="M234.866 216.989C236.811 214.427 239.268 212.942 242.235 212.536C245.235 212.154 247.975 212.905 250.457 214.789C252.955 216.685 254.407 219.117 254.813 222.084C255.248 225.048 254.487 227.819 252.529 230.398C251.359 231.939 249.917 233.081 248.202 233.824C246.475 234.584 244.71 234.855 242.907 234.637L243.343 231.132C244.531 231.319 245.701 231.158 246.852 230.652C248.008 230.174 248.992 229.4 249.804 228.329C251.171 226.529 251.716 224.616 251.438 222.59C251.152 220.609 250.117 218.941 248.333 217.587C246.549 216.232 244.664 215.684 242.68 215.941C240.654 216.219 238.957 217.257 237.591 219.058C236.778 220.128 236.283 221.286 236.104 222.531C235.942 223.789 236.117 224.957 236.628 226.035L233.394 227.415C232.691 225.782 232.463 224.011 232.71 222.102C232.953 220.267 233.672 218.563 234.866 216.989Z" fill="#58C1D6"/>
<path d="M237.02 246.31L224.908 232.966L218.462 238.817L216.204 236.329L225.251 228.117L239.621 243.949L237.02 246.31Z" fill="#58C1D6"/>
<path d="M210.834 239.909L222.884 257.572L219.982 259.552L207.932 241.889L210.834 239.909Z" fill="#58C1D6"/>
<path d="M190.664 258.826L196.851 271.949L193.674 273.447L184.555 254.107L187.042 252.935L202.347 261.76L196.159 248.636L199.337 247.138L208.455 266.478L205.969 267.651L190.664 258.826Z" fill="#58C1D6"/>
<path d="M177.679 255.935L183.638 276.469L180.265 277.449L174.305 256.914L177.679 255.935Z" fill="#58C1D6"/>
<path d="M154.468 260.067C157.664 259.689 160.437 260.427 162.789 262.282C165.146 264.177 166.507 266.671 166.874 269.765C167.242 272.879 166.499 275.612 164.645 277.964C162.813 280.334 160.29 281.709 157.074 282.09C155.153 282.317 153.33 282.071 151.604 281.353C149.859 280.637 148.439 279.554 147.344 278.104L150.17 275.986C150.86 276.971 151.787 277.702 152.951 278.179C154.097 278.679 155.338 278.85 156.672 278.692C158.917 278.427 160.672 277.491 161.938 275.885C163.166 274.305 163.648 272.402 163.385 270.178C163.122 267.953 162.209 266.216 160.646 264.965C159.04 263.699 157.115 263.199 154.87 263.465C153.536 263.623 152.358 264.07 151.338 264.806C150.32 265.562 149.6 266.498 149.179 267.614L145.941 266.244C146.629 264.604 147.745 263.211 149.291 262.064C150.781 260.965 152.507 260.3 154.468 260.067Z" fill="#58C1D6"/>
</svg>
