<svg width="118" height="91" fill="none" xmlns="http://www.w3.org/2000/svg"><path d="M58.4 86a40.5 40.5 0 1 0 0-81 40.5 40.5 0 0 0 0 81Z" fill="#fff" stroke="#F8F8F8" stroke-width="8.3"/><path d="M28.2 49.77c.26 0 .5.1.68.29.2.2.3.42.3.7 0 .27-.1.5-.3.7-.19.18-.42.28-.69.28h-1.22v-3.28h1.92v.3h-1.6v1h.9Zm0 1.66c.17 0 .33-.07.45-.2.13-.13.2-.29.2-.48a.65.65 0 0 0-.2-.47.62.62 0 0 0-.46-.2h-.9v1.35h.9Zm2.82-2.1c.33 0 .62.13.85.36.24.24.36.53.36.88 0 .34-.12.63-.36.87-.23.24-.52.35-.85.35-.42 0-.73-.17-.95-.51v1.4h-.3v-3.29h.3v.46c.22-.34.53-.51.95-.51Zm-.68 1.9c.18.18.4.26.65.26a.9.9 0 0 0 .92-.93.9.9 0 0 0-.26-.65.88.88 0 0 0-.66-.27c-.25 0-.47.09-.65.27a.9.9 0 0 0-.27.66c0 .26.09.48.27.66Zm3.58-1.9c.35 0 .63.13.84.38a1.27 1.27 0 0 1 .31 1.01h-2.06c.04.24.14.43.3.57.18.14.39.2.64.2.18 0 .33-.03.46-.1a.76.76 0 0 0 .3-.3l.26.16c-.1.17-.24.3-.42.4-.18.1-.38.14-.6.14-.38 0-.68-.11-.9-.34a1.2 1.2 0 0 1-.35-.88 1.18 1.18 0 0 1 1.22-1.23Zm0 .3a.88.88 0 0 0-.9.78h1.74a.87.87 0 0 0-.28-.57.83.83 0 0 0-.56-.2Zm3.4-.24h.32v2.35h-.31v-1.02h-1.35v1.02h-.31v-2.35h.3v1.03h1.36v-1.03Zm3.04 2.05h.32v.93h-.3v-.63h-1.92v.63h-.3v-.93h.28c.16-.21.24-.5.24-.89V49.4h1.68v2.05Zm-1.55 0h1.24v-1.75h-1.06v.86c0 .36-.06.66-.18.89Zm7.23-1.63a.7.7 0 0 1-.5-.2.68.68 0 0 1-.21-.5.7.7 0 0 1 .72-.7c.2-.01.37.06.5.2.14.13.21.3.21.5a.7.7 0 0 1-.72.7Zm-1.37-1.35H45v3.28h-.28l-1.83-2.68v2.68h-.33v-3.28h.28l1.83 2.67v-2.67Zm1.07.94a.4.4 0 0 0 .3.12.4.4 0 0 0 .3-.12.42.42 0 0 0 .12-.3.42.42 0 0 0-.12-.3.4.4 0 0 0-.3-.12.4.4 0 0 0-.3.12.42.42 0 0 0-.11.3c0 .12.04.22.11.3Zm-.36 1.03v-.3h1.32v.3h-1.32Zm2.69-1.97h.28v3.28h-.33v-2.92l-.73.22-.09-.28.87-.3Zm4.31 2.98h.33v.93h-.3v-.63h-1.92v.63h-.31v-.93h.29c.16-.21.24-.5.24-.89V49.4h1.67v2.05Zm-1.54 0h1.23v-1.75h-1.06v.86c0 .36-.05.66-.17.89Zm4.36-2.05v2.35h-.31v-2.05h-1.06v1.05c0 .39-.08.66-.23.8-.14.15-.35.22-.6.2v-.3c.17.03.3-.02.39-.12.08-.1.13-.3.13-.58v-1.35h1.68Zm2.43 0v2.35h-.3v-.9h-.4l-.73.9h-.4l.75-.91a.78.78 0 0 1-.47-.24.66.66 0 0 1-.18-.47c0-.21.07-.39.22-.52a.8.8 0 0 1 .56-.2h.95Zm-.95 1.16h.64v-.86h-.64a.51.51 0 0 0-.34.12.39.39 0 0 0-.13.31c0 .13.04.23.13.31.1.08.21.12.34.12Zm4.94.9a1.2 1.2 0 0 1-.88.34 1.21 1.21 0 0 1-1.23-1.22c0-.35.12-.64.36-.88.24-.23.53-.35.87-.35.35 0 .64.12.88.35.24.24.36.53.36.88 0 .34-.12.63-.36.87Zm-1.53-.22c.18.18.4.26.65.26a.9.9 0 0 0 .92-.93.9.9 0 0 0-.26-.65.89.89 0 0 0-.66-.27c-.26 0-.47.09-.65.27a.9.9 0 0 0-.27.66c0 .26.09.48.27.66Zm4.1-1.84v.3h-.83v2.05h-.31v-2.05h-.83v-.3h1.97Zm1.42 2.4c-.34 0-.62-.1-.85-.33a1.18 1.18 0 0 1-.34-.87c0-.4.06-.7.18-.92.12-.22.36-.41.72-.59a4.55 4.55 0 0 1 .53-.23l.2-.1c.07-.06.12-.1.15-.16a.5.5 0 0 0 .07-.2l.24.14a.76.76 0 0 1-.2.37.83.83 0 0 1-.17.13 2.66 2.66 0 0 1-.43.2l-.22.1c-.22.1-.38.19-.48.3-.1.1-.18.22-.23.39.11-.14.25-.25.4-.31.17-.07.33-.1.5-.1.3 0 .56.1.76.3.21.2.31.47.31.79 0 .31-.1.58-.32.78-.22.21-.5.31-.82.31Zm0-.3c.24 0 .44-.08.6-.23a.75.75 0 0 0 .23-.56.76.76 0 0 0-.22-.57.79.79 0 0 0-.6-.23.96.96 0 0 0-.6.22.66.66 0 0 0-.27.55c0 .24.08.43.25.59.16.15.36.22.6.22Zm2.8-2.15c.34 0 .62.12.83.37a1.27 1.27 0 0 1 .32 1.01H67.5c.03.24.13.43.3.57.17.14.38.2.63.2.18 0 .33-.03.46-.1a.76.76 0 0 0 .3-.3l.27.16c-.1.17-.25.3-.42.4-.18.1-.39.14-.61.14-.37 0-.67-.11-.9-.34a1.2 1.2 0 0 1-.35-.88 1.18 1.18 0 0 1 1.22-1.23Zm0 .3a.9.9 0 0 0-.62.22.88.88 0 0 0-.3.56h1.76a.87.87 0 0 0-.29-.58.83.83 0 0 0-.56-.2Zm3.57-.25v2.35h-.3v-2.05H70.6v1.05c0 .39-.07.66-.22.8-.15.15-.35.22-.61.2v-.3c.18.03.3-.02.4-.12.08-.1.12-.3.12-.58v-1.35h1.68Zm2.46 0h.26v2.35h-.3v-1.8l-1.4 1.8h-.27v-2.35h.31v1.8l1.4-1.8Zm2.5 1.14c.26.1.39.28.39.55 0 .2-.07.35-.2.48-.12.12-.3.18-.54.18h-1.14v-2.35h1.05c.22 0 .4.06.53.18.12.12.18.27.18.45 0 .24-.09.4-.27.51Zm-.44-.84h-.74v.72h.74c.27 0 .4-.13.4-.37 0-.1-.03-.2-.1-.25-.07-.07-.17-.1-.3-.1Zm.09 1.75c.14 0 .24-.03.31-.1a.35.35 0 0 0 .12-.28c0-.1-.04-.2-.12-.26-.07-.06-.17-.1-.31-.1h-.83v.74h.83Zm3.32-2.05h.3v2.35h-.3v-.46c-.22.34-.54.51-.95.51a1.2 1.2 0 0 1-1.2-1.23c-.01-.34.1-.63.34-.87.24-.23.52-.35.86-.35.41 0 .73.17.95.51v-.46Zm-1.59 1.84c.18.18.4.26.66.26a.9.9 0 0 0 .92-.93.9.9 0 0 0-.26-.65.88.88 0 0 0-.66-.27c-.26 0-.48.09-.66.27a.9.9 0 0 0-.26.66c0 .26.09.48.26.66Zm4.3-1.84h.31v2.35h-.3v-1.02h-1.36v1.02h-.3v-2.35h.3v1.03h1.35v-1.03Zm2.77 0h.26v2.35h-.3v-1.8l-1.4 1.8h-.27v-2.35H84v1.8l1.4-1.8Zm2.7 0v2.35h-.31v-.9h-.4l-.73.9h-.4l.75-.91a.78.78 0 0 1-.47-.24.66.66 0 0 1-.18-.47c0-.21.08-.39.23-.52a.8.8 0 0 1 .56-.2h.95Zm-.95 1.16h.64v-.86h-.64a.51.51 0 0 0-.34.12.39.39 0 0 0-.14.31c0 .13.05.23.14.31.1.08.2.12.34.12Zm-45.47 5.52v2.34h-.31v-2.04H40v2.04h-.31v-2.34h1.97Zm2.71 2.05a1.2 1.2 0 0 1-.87.35 1.2 1.2 0 0 1-1.23-1.23c0-.35.11-.64.35-.87.24-.24.54-.36.88-.36.34 0 .63.12.87.36.24.23.36.52.36.87s-.12.64-.36.88Zm-1.53-.22c.18.18.4.27.66.27a.9.9 0 0 0 .92-.93.9.9 0 0 0-.26-.66.88.88 0 0 0-.66-.27.88.88 0 0 0-.66.27.9.9 0 0 0-.26.66c0 .26.08.48.26.66Zm5.74.22a1.2 1.2 0 0 1-.88.35 1.2 1.2 0 0 1-1.23-1.23c0-.35.12-.64.36-.87.24-.24.53-.36.87-.36.35 0 .64.12.88.36.24.23.36.52.36.87s-.12.64-.36.88Zm-1.53-.22c.17.18.4.27.65.27a.9.9 0 0 0 .92-.93.9.9 0 0 0-.26-.66.88.88 0 0 0-.66-.27.88.88 0 0 0-.65.27.9.9 0 0 0-.27.66c0 .26.09.48.27.66Zm3.54.57c-.34 0-.62-.11-.85-.34a1.18 1.18 0 0 1-.33-.87c0-.4.06-.7.18-.92.11-.21.35-.4.72-.58a4.73 4.73 0 0 1 .53-.24l.19-.1a.5.5 0 0 0 .22-.36l.24.14a.74.74 0 0 1-.38.5 2.43 2.43 0 0 1-.42.2l-.22.1c-.22.1-.38.2-.48.3-.1.1-.18.23-.22.4.1-.15.24-.25.4-.32.17-.07.33-.1.48-.1.32 0 .58.1.78.3.2.21.3.47.3.79 0 .32-.1.58-.32.79-.22.2-.49.3-.82.3Zm0-.31c.24 0 .44-.07.6-.22a.75.75 0 0 0 .24-.57.76.76 0 0 0-.23-.57.79.79 0 0 0-.59-.22.96.96 0 0 0-.6.2.66.66 0 0 0-.27.56c0 .24.08.44.24.59.16.15.37.23.6.23ZM53.57 56c.33 0 .62.12.85.36.24.23.36.53.36.87 0 .34-.12.63-.36.87-.23.24-.52.36-.85.36-.42 0-.73-.17-.95-.52v1.4h-.3v-3.28h.3v.46c.22-.35.53-.52.95-.52Zm-.68 1.9c.18.17.4.26.66.26a.9.9 0 0 0 .92-.93.9.9 0 0 0-.27-.66.88.88 0 0 0-.65-.27.88.88 0 0 0-.66.27.9.9 0 0 0-.27.66c0 .26.1.48.27.66Zm4.51-1.84h.31v2.34h-.3v-.46c-.22.35-.54.52-.95.52-.34 0-.62-.12-.86-.36a1.2 1.2 0 0 1-.35-.87c0-.34.11-.64.35-.87.24-.24.52-.36.86-.36.41 0 .73.17.94.52v-.46Zm-1.58 1.83c.18.18.4.27.66.27a.9.9 0 0 0 .92-.93.9.9 0 0 0-.26-.66.88.88 0 0 0-.66-.27.88.88 0 0 0-.66.27.9.9 0 0 0-.26.66c0 .26.09.48.26.66Zm5.78.21h.33v.93h-.3v-.63h-3.17v-2.34h.31v2.04h1.1v-2.04h.32v2.04h1.1v-2.04h.31v2.04Zm1.89-2.1c.34 0 .62.12.84.37a1.27 1.27 0 0 1 .31 1.01h-2.06c.03.24.13.43.3.57.17.14.38.2.63.2.18 0 .34-.03.46-.1a.75.75 0 0 0 .3-.3l.27.17c-.1.16-.24.3-.42.4-.18.09-.38.14-.61.14a1.2 1.2 0 0 1-1.25-1.23 1.18 1.18 0 0 1 1.22-1.23Zm0 .3a.88.88 0 0 0-.9.78h1.74a.88.88 0 0 0-.29-.57.83.83 0 0 0-.55-.2Zm3.4-.24h.32v2.34h-.31V57.4h-1.35v1.02h-.31v-2.34h.3v1.02h1.36v-1.02Zm2.77 0h.26v2.34h-.3v-1.8l-1.4 1.8h-.27v-2.34h.31v1.8l1.4-1.8Zm2.7 0v2.34h-.31v-.9h-.4l-.73.9h-.39l.74-.9a.78.78 0 0 1-.46-.24.66.66 0 0 1-.19-.48c0-.2.08-.38.23-.52a.8.8 0 0 1 .56-.2h.95Zm-.95 1.15h.64v-.85h-.64a.51.51 0 0 0-.34.11.39.39 0 0 0-.14.31c0 .13.05.23.14.31.1.08.2.12.34.12Zm4-1.15v2.34h-.31v-1.87l-.82 1.33h-.04l-.82-1.33v1.87h-.31v-2.34h.36l.79 1.28.8-1.28h.35Zm-27.06 6.67v2.34h-.31v-2.04h-1.35v2.04h-.31v-2.34h1.97Zm2.76 0h.31v2.34h-.3v-.45c-.22.34-.54.51-.95.51a1.2 1.2 0 0 1-1.21-1.23c0-.34.11-.63.35-.87s.52-.36.86-.36c.41 0 .73.18.94.52v-.46Zm-1.58 1.83c.18.18.4.27.66.27a.9.9 0 0 0 .92-.93.9.9 0 0 0-.26-.65.88.88 0 0 0-.66-.28.88.88 0 0 0-.66.28.9.9 0 0 0-.26.65c0 .26.08.48.26.66Zm4.56.22h.38v.92h-.31v-.63h-1.99v-2.34h.31v2.05h1.3v-2.05h.31v2.05Zm2.65-2.05H57v2.34h-.3v-1.8l-1.4 1.8h-.27v-2.34h.31v1.8l1.4-1.8Zm2.1-.06c.34 0 .62.13.83.37a1.26 1.26 0 0 1 .32 1.02h-2.06c.03.24.13.42.3.56.17.14.38.21.63.21.18 0 .33-.03.46-.1a.76.76 0 0 0 .3-.3l.27.16c-.1.17-.25.3-.42.4-.18.1-.39.14-.61.14a1.2 1.2 0 0 1-1.25-1.23 1.18 1.18 0 0 1 1.22-1.23Zm0 .3a.88.88 0 0 0-.9.78h1.74a.87.87 0 0 0-.29-.57.83.83 0 0 0-.56-.2Zm3.4-.24h.31v2.34h-.3v-1.02h-1.36v1.02h-.3v-2.34h.3v1.02h1.35v-1.02Zm2.75 0v.3h-.83v2.04h-.31v-2.04h-.83v-.3h1.97Zm2.34 2.05a1.2 1.2 0 0 1-.87.35 1.2 1.2 0 0 1-1.23-1.23 1.2 1.2 0 0 1 1.23-1.23c.34 0 .63.12.87.36.24.23.36.53.36.87 0 .35-.12.64-.36.88Zm-1.53-.22c.18.18.4.27.66.27a.9.9 0 0 0 .92-.93.9.9 0 0 0-.26-.65.88.88 0 0 0-.66-.28.88.88 0 0 0-.66.28.9.9 0 0 0-.26.65c0 .26.09.48.26.66Zm4-.69c.25.1.38.28.38.55 0 .19-.06.35-.2.47-.12.12-.3.18-.54.18H68.3v-2.34h1.05c.23 0 .4.06.53.18.13.11.19.26.19.45 0 .23-.1.4-.27.51Zm-.45-.84h-.74v.71h.74c.27 0 .4-.12.4-.36 0-.11-.03-.2-.1-.26s-.17-.09-.3-.09Zm.1 1.75c.13 0 .24-.04.3-.1a.35.35 0 0 0 .12-.28c0-.1-.04-.2-.11-.26s-.18-.1-.32-.1h-.83v.74h.83Z" fill="#363636"/><path d="M0 12.25h117.24l-10.66 11.72 10.66 13H0l9.6-13L0 12.25Z" fill="#58C1D6"/><path d="M32.56 23.57c.77 0 1.43.26 1.97.8.53.51.8 1.15.8 1.91A2.7 2.7 0 0 1 32.55 29H29.2v-8.95h5.37v1.13h-4.18v2.39h2.18Zm0 4.32c.44 0 .82-.15 1.12-.46.32-.3.48-.69.48-1.15 0-.45-.16-.83-.48-1.14-.3-.3-.68-.46-1.12-.46h-2.18v3.21h2.18Zm7.79-5.45c.9 0 1.65.33 2.28.99.64.65.95 1.44.95 2.38s-.31 1.73-.95 2.39c-.63.65-1.39.97-2.28.97a2.71 2.71 0 0 1-2.42-1.26v3.65h-1.11v-8.95h1.1v1.1a2.71 2.71 0 0 1 2.43-1.27Zm-.15 5.66c.64 0 1.18-.22 1.62-.65.43-.45.65-1 .65-1.64a2.2 2.2 0 0 0-.65-1.63 2.17 2.17 0 0 0-1.62-.66c-.64 0-1.18.22-1.62.66a2.2 2.2 0 0 0-.65 1.63 2.25 2.25 0 0 0 2.27 2.29Zm5.74-1.78c.12.57.38 1.01.78 1.33.42.32.93.47 1.54.47.84 0 1.46-.3 1.84-.93l.95.54a3.12 3.12 0 0 1-2.82 1.44 3.38 3.38 0 0 1-2.48-.94 3.3 3.3 0 0 1-.94-2.42 3.22 3.22 0 0 1 3.35-3.36c.94 0 1.7.33 2.29 1a3.41 3.41 0 0 1 .85 2.87h-5.36Zm2.22-2.83c-.6 0-1.1.17-1.49.51-.39.34-.63.79-.73 1.35h4.28c-.1-.6-.34-1.07-.72-1.38a2.05 2.05 0 0 0-1.34-.48Zm9.14-.88h1.11v6.4h-1.1v-2.68h-3.32v2.68h-1.11v-6.4h1.11v2.66h3.31v-2.66Zm8.56 5.33h.89v2.78h-1.1V29h-4.8v1.7h-1.1v-2.77h.78c.4-.56.61-1.35.61-2.36V22.6h4.72v5.33Zm-4.06 0h2.96v-4.3h-2.52v1.94c0 .95-.15 1.74-.44 2.36Zm19.61-4.08c-.57 0-1.05-.19-1.44-.57a1.91 1.91 0 0 1-.58-1.4 1.96 1.96 0 0 1 2.02-1.98 1.96 1.96 0 0 1 2.02 1.97c0 .56-.19 1.02-.57 1.4-.38.4-.86.58-1.45.58Zm-4.08-3.8h1.2V29h-.97l-4.6-6.7v6.7h-1.2v-8.96h.97l4.6 6.68v-6.68Zm3.35 2.55c.2.2.43.3.73.3s.54-.1.73-.3c.19-.2.28-.44.28-.73s-.1-.53-.28-.73a.96.96 0 0 0-.73-.3c-.3 0-.54.1-.73.3-.18.2-.28.44-.28.73 0 .3.1.53.28.73Zm-1.13 3.13v-1.06h3.73v1.06h-3.73Zm7.4-5.69h1.02v8.96H86.8v-7.68l-1.9.56-.3-1.02 2.35-.82Z" fill="#fff"/></svg>