<svg width="40" height="40" viewBox="0 0 40 40" fill="none" xmlns="http://www.w3.org/2000/svg">
<path d="M27.8711 23.4336C27.4453 23.2148 25.3242 22.1758 24.9297 22.0352C24.5351 21.8867 24.2461 21.8164 23.9609 22.2539C23.6719 22.6875 22.8516 23.6523 22.5937 23.9453C22.3437 24.2344 22.0898 24.2695 21.6641 24.0547C19.1328 22.7891 17.4727 21.7969 15.8047 18.9336C15.3633 18.1719 16.2461 18.2266 17.0703 16.582C17.2109 16.293 17.1406 16.0469 17.0312 15.8281C16.9219 15.6094 16.0625 13.4922 15.7031 12.6289C15.3555 11.7891 14.9961 11.9062 14.7344 11.8906C14.4844 11.875 14.1992 11.875 13.9102 11.875C13.6211 11.875 13.1562 11.9844 12.7617 12.4102C12.3672 12.8438 11.2539 13.8867 11.2539 16.0039C11.2539 18.1211 12.7969 20.1719 13.0078 20.4609C13.2266 20.75 16.043 25.0937 20.3672 26.9648C23.1016 28.1445 24.1719 28.2461 25.5391 28.043C26.3711 27.918 28.0859 27.0039 28.4414 25.9922C28.7969 24.9844 28.7969 24.1211 28.6914 23.9414C28.5859 23.75 28.2969 23.6406 27.8711 23.4336Z" fill="#58C1D6"/>
<path d="M36.1409 13.2188C35.258 11.1211 33.9924 9.23828 32.3791 7.62109C30.7659 6.00781 28.883 4.73828 26.7815 3.85938C24.633 2.95703 22.3518 2.5 20.0002 2.5H19.9221C17.5549 2.51172 15.2619 2.98047 13.1057 3.90234C11.0237 4.79297 9.15647 6.05859 7.55882 7.67188C5.96116 9.28516 4.70725 11.1602 3.84007 13.25C2.94163 15.4141 2.4885 17.7148 2.50022 20.082C2.51194 22.793 3.16038 25.4844 4.37522 27.8906V33.8281C4.37522 34.8203 5.17991 35.625 6.1721 35.625H12.1135C14.5198 36.8398 17.2112 37.4883 19.9221 37.5H20.0041C22.344 37.5 24.6135 37.0469 26.7502 36.1602C28.8401 35.2891 30.719 34.0391 32.3283 32.4414C33.9416 30.8438 35.2112 28.9766 36.0979 26.8945C37.0198 24.7383 37.4885 22.4453 37.5002 20.0781C37.5119 17.6992 37.051 15.3906 36.1409 13.2188ZM30.2385 30.3281C27.5002 33.0391 23.8674 34.5312 20.0002 34.5312H19.9338C17.5783 34.5195 15.2385 33.9336 13.1721 32.832L12.844 32.6562H7.34397V27.1562L7.16819 26.8281C6.06663 24.7617 5.48069 22.4219 5.46897 20.0664C5.45335 16.1719 6.94163 12.5156 9.6721 9.76172C12.3987 7.00781 16.0432 5.48438 19.9377 5.46875H20.0041C21.9573 5.46875 23.8518 5.84766 25.6369 6.59766C27.3791 7.32812 28.9416 8.37891 30.2854 9.72266C31.6252 11.0625 32.6799 12.6289 33.4104 14.3711C34.1682 16.1758 34.5471 18.0898 34.5393 20.0664C34.5159 23.957 32.9885 27.6016 30.2385 30.3281Z" fill="#58C1D6"/>
</svg>
