<svg width="40" height="40" viewBox="0 0 40 40" fill="none" xmlns="http://www.w3.org/2000/svg">
<path d="M32.587 4.99518C32.1858 5.02437 31.7919 5.11851 31.4208 5.27393H31.4158C31.0595 5.41518 29.3658 6.12768 26.7908 7.20768L17.5633 11.0939C10.942 13.8814 4.43329 16.6264 4.43329 16.6264L4.51079 16.5964C4.51079 16.5964 4.06204 16.7439 3.59329 17.0652C3.3037 17.2495 3.05451 17.4906 2.86079 17.7739C2.63079 18.1114 2.44579 18.6277 2.51454 19.1614C2.62704 20.0639 3.21204 20.6052 3.63204 20.9039C4.05704 21.2064 4.46204 21.3477 4.46204 21.3477H4.47204L10.5758 23.4039C10.8495 24.2827 12.4358 29.4977 12.817 30.6989C13.042 31.4164 13.2608 31.8652 13.5345 32.2077C13.667 32.3827 13.822 32.5289 14.0083 32.6464C14.1051 32.7027 14.2084 32.7472 14.3158 32.7789L14.2533 32.7639C14.272 32.7689 14.287 32.7839 14.3008 32.7889C14.3508 32.8027 14.3845 32.8077 14.4483 32.8177C15.4145 33.1102 16.1908 32.5102 16.1908 32.5102L16.2345 32.4752L19.8383 29.1939L25.8783 33.8277L26.0158 33.8864C27.2745 34.4389 28.5495 34.1314 29.2233 33.5889C29.902 33.0427 30.1658 32.3439 30.1658 32.3439L30.2095 32.2314L34.877 8.32018C35.0095 7.73018 35.0433 7.17768 34.897 6.64143C34.7462 6.09871 34.398 5.63193 33.9208 5.33268C33.5201 5.08907 33.0554 4.97149 32.587 4.99518ZM32.4608 7.55768C32.4558 7.63643 32.4708 7.62768 32.4358 7.77893V7.79268L27.812 31.4552C27.792 31.4889 27.7583 31.5627 27.6658 31.6364C27.5683 31.7139 27.4908 31.7627 27.0845 31.6014L19.697 25.9377L15.2345 30.0052L16.172 24.0177L28.242 12.7677C28.7395 12.3052 28.5733 12.2077 28.5733 12.2077C28.6083 11.6402 27.822 12.0414 27.822 12.0414L12.602 21.4702L12.597 21.4452L5.30204 18.9889V18.9839L5.28329 18.9802C5.29608 18.9759 5.3086 18.9709 5.32079 18.9652L5.36079 18.9452L5.39954 18.9314C5.39954 18.9314 11.9133 16.1864 18.5345 13.3989C21.8495 12.0027 25.1895 10.5964 27.7583 9.51143C30.327 8.43268 32.2258 7.64143 32.3333 7.59893C32.4358 7.55893 32.387 7.55893 32.4608 7.55893V7.55768Z" fill="#58C1D6"/>
</svg>
