<svg width="40" height="40" viewBox="0 0 40 40" fill="none" xmlns="http://www.w3.org/2000/svg">
<path d="M18.9985 0.00582045C15.7885 0.0445704 8.88724 0.57207 5.02724 4.11332C2.15599 6.95832 1.15349 11.1646 1.03599 16.3658C0.938488 21.5483 0.820988 31.2808 10.2022 33.9308V37.9671C10.2022 37.9671 10.1435 39.5821 11.211 39.9133C12.526 40.3296 13.2747 39.0871 14.5247 37.7521L16.856 35.1158C23.2747 35.6496 28.191 34.4196 28.7572 34.2371C30.0597 33.8208 37.396 32.8833 38.5947 23.1496C39.8247 13.0971 37.996 6.76332 34.6947 3.89832H34.6747C33.6785 2.98082 29.6747 0.0633204 20.7297 0.0308204C20.7297 0.0308204 20.066 -0.0141795 18.9985 0.00457045V0.00582045ZM19.1085 2.83207C20.0197 2.82582 20.5735 2.86457 20.5735 2.86457C28.1447 2.88457 31.7585 5.16332 32.611 5.93082C35.391 8.31332 36.8235 14.0233 35.7747 22.4158C34.7785 30.5533 28.8285 31.0683 27.7272 31.4196C27.2585 31.5696 22.9285 32.6371 17.4735 32.2858C17.4735 32.2858 13.411 37.1883 12.141 38.4508C11.9397 38.6721 11.7047 38.7371 11.5547 38.7046C11.3397 38.6521 11.2747 38.3858 11.2872 38.0208L11.326 31.3221C3.36974 29.1221 3.83849 20.8208 3.92349 16.4846C4.02099 12.1483 4.83474 8.60082 7.25724 6.19832C10.5185 3.24957 16.3785 2.85207 19.106 2.83207H19.1085ZM19.7085 7.16707C19.643 7.16641 19.578 7.17872 19.5173 7.20328C19.4566 7.22785 19.4014 7.26418 19.3548 7.3102C19.3082 7.35621 19.2712 7.41099 19.2458 7.47139C19.2205 7.53178 19.2074 7.59658 19.2072 7.66207C19.2072 7.94207 19.4347 8.16332 19.7085 8.16332C20.9479 8.13975 22.1797 8.36178 23.3328 8.8166C24.486 9.27143 25.5376 9.95004 26.4272 10.8133C28.2435 12.5771 29.1285 14.9471 29.1622 18.0458C29.1622 18.3196 29.3835 18.5471 29.6635 18.5471V18.5271C29.7955 18.5274 29.9222 18.4756 30.0161 18.3828C30.11 18.2901 30.1634 18.164 30.1647 18.0321C30.2254 16.5735 29.9889 15.1178 29.4695 13.7535C28.9501 12.3892 28.1588 11.1448 27.1435 10.0958C25.1647 8.16207 22.6572 7.16582 19.7085 7.16582V7.16707ZM13.1197 8.31332C12.7659 8.26162 12.4051 8.33264 12.0972 8.51457H12.071C11.3563 8.93349 10.7125 9.46297 10.1635 10.0833C9.70724 10.6108 9.45974 11.1446 9.39474 11.6583C9.35599 11.9646 9.38224 12.2708 9.47349 12.5633L9.50599 12.5833C10.0197 14.0933 10.691 15.5458 11.511 16.9133C12.5673 18.8345 13.8672 20.6113 15.3785 22.1996L15.4235 22.2646L15.4947 22.3171L15.5397 22.3696L15.5922 22.4146C17.1863 23.9303 18.9674 25.2363 20.8922 26.3008C23.0922 27.4983 24.4272 28.0646 25.2285 28.2996V28.3121C25.4635 28.3833 25.6772 28.4158 25.8922 28.4158C26.5751 28.3658 27.2215 28.0886 27.7285 27.6283C28.346 27.0792 28.8696 26.4327 29.2785 25.7146V25.7021C29.6622 24.9796 29.5322 24.2958 28.9785 23.8333C27.8695 22.8639 26.6703 22.0029 25.3972 21.2621C24.5447 20.7996 23.6785 21.0796 23.3272 21.5483L22.5785 22.4921C22.1947 22.9608 21.4972 22.8958 21.4972 22.8958L21.4772 22.9083C16.276 21.5796 14.8885 16.3133 14.8885 16.3133C14.8885 16.3133 14.8235 15.5971 15.3047 15.2321L16.2422 14.4771C16.691 14.1121 17.0035 13.2471 16.5222 12.3933C15.7865 11.1185 14.9274 9.91901 13.9572 8.81207C13.7452 8.55111 13.4476 8.37356 13.1172 8.31082L13.1197 8.31332ZM20.5735 9.79832C19.9097 9.79832 19.9097 10.8008 20.5797 10.8008C21.4051 10.8142 22.2197 10.9901 22.977 11.3185C23.7344 11.6469 24.4196 12.1213 24.9935 12.7146C25.517 13.2921 25.9193 13.9688 26.1765 14.7046C26.4338 15.4404 26.5407 16.2204 26.491 16.9983C26.4933 17.13 26.547 17.2555 26.6407 17.348C26.7344 17.4405 26.8606 17.4927 26.9922 17.4933L27.0122 17.5196C27.1449 17.5186 27.2718 17.4655 27.3656 17.3717C27.4594 17.2779 27.5125 17.151 27.5135 17.0183C27.5585 15.0321 26.941 13.3658 25.7297 12.0308C24.5122 10.6958 22.8135 9.94707 20.6447 9.79832H20.5735ZM21.3947 12.4933C20.711 12.4733 20.6847 13.4958 21.3622 13.5158C23.0097 13.6008 23.8097 14.4333 23.9147 16.1458C23.917 16.2758 23.9701 16.3997 24.0626 16.4911C24.1551 16.5824 24.2797 16.6339 24.4097 16.6346H24.4297C24.4966 16.6317 24.5622 16.6156 24.6227 16.5871C24.6832 16.5586 24.7375 16.5183 24.7823 16.4686C24.8271 16.4189 24.8615 16.3608 24.8836 16.2977C24.9057 16.2345 24.915 16.1676 24.911 16.1008C24.7935 13.8683 23.576 12.6108 21.4147 12.4946H21.3947V12.4933Z" fill="#58C1D6"/>
</svg>
