<svg width="112" height="33" viewBox="0 0 112 33" fill="none" xmlns="http://www.w3.org/2000/svg">
<path d="M6.65392 0.98291C5.63961 0.98291 4.32465 2.0585 3.54893 2.77449C1.8435 4.2883 0.298828 7.07188 0.298828 9.30611C0.298828 12.4808 2.99881 13.6792 3.68171 13.6792C3.90687 13.6792 4.09883 13.5631 4.09883 13.2575C4.09883 13.0181 3.94695 12.8188 3.79584 12.6141C3.17056 11.6581 2.96972 10.7459 2.96972 9.51539C2.96972 6.94997 4.1529 4.5985 5.13434 3.52246C5.31531 3.32772 5.72421 2.90706 5.84656 2.90706C5.96802 2.90706 5.99811 3.00598 5.99811 3.31174L5.88408 20.103C5.88408 22.7279 5.12668 23.7707 5.12668 24.3887C5.12668 24.6603 5.24426 24.7308 5.46875 24.7308C6.53168 24.7308 7.59096 23.4353 7.89105 22.9628C8.82165 21.3554 9.04992 20.1006 9.04992 16.4812V2.37148C9.04992 1.98956 8.94278 1.82447 8.57995 1.58899C8.04937 1.25203 7.44141 0.98291 6.65392 0.98291ZM37.0458 1.02976C36.5459 1.02976 36.3321 1.29111 36.3085 2.09981L36.1976 5.44827L33.2691 5.34679C33.0915 5.34224 33.0112 5.39842 32.9335 5.55452C32.6848 6.02082 32.5539 6.3862 32.5539 6.9946C32.5539 7.48999 32.7785 7.54284 32.9788 7.54284L36.0257 7.63032L36.0164 14.0276C36.0164 15.3844 35.1602 17.1446 33.6409 18.6085C33.6409 18.6085 33.7716 18.1666 33.7642 17.7028C33.7642 16.3902 32.9194 15.2007 31.7932 14.3589L29.0443 12.291C29.6206 11.6244 30.5968 10.3023 30.5968 9.18598C30.5968 8.32044 30.0526 7.95684 29.038 7.95684C27.6062 7.95684 25.9456 9.26825 25.9456 11.2133C25.9456 11.9223 26.261 12.5604 26.7405 13.0485C26.0785 14.3046 25.1418 15.9573 24.4462 17.1343C23.9208 18.0354 23.0321 19.4161 22.5063 19.4161C22.1186 19.4161 21.9394 18.8062 21.9394 16.4627C21.9394 14.5157 22.0777 12.3988 22.1471 10.3668C22.1471 9.90108 22.0707 9.47142 21.4661 9.0502C20.9099 8.69382 20.223 8.1961 19.5154 8.1961C17.9424 8.1961 16.8709 9.64351 16.1358 11.0588C15.375 12.5257 14.9637 13.7618 14.3834 15.5553L14.4474 9.38294C14.4672 8.94284 14.3561 8.77198 14.0039 8.62221C13.547 8.42847 12.8746 8.20509 12.278 8.20509C11.7795 8.20509 11.7189 8.42003 11.7189 8.94384L11.6519 16.3501L11.6442 19.2066C11.6442 21.782 11.9667 22.2115 13.495 22.2115C14.3411 22.2115 14.6121 22.1121 14.6288 21.4088C14.652 20.9436 14.8745 19.8166 15.1755 18.6864C16.0558 15.3503 17.0989 12.7118 18.8974 10.7007C19.0849 10.5055 19.2299 10.5753 19.2003 10.8521C19.2003 10.8521 18.916 15.3669 18.916 17.2135C18.916 20.4978 19.4214 22.2116 21.0555 22.2116C22.6594 22.2116 24.2346 20.1509 25.0945 18.7597L27.8528 14.1461C29.6402 15.6691 30.8875 16.8499 30.8875 18.2865C30.8875 19.1793 30.3241 20.0528 29.466 20.0528C28.3936 20.0528 27.7085 18.922 26.9842 18.922C26.383 18.922 25.6114 20.0826 25.6114 20.7416C25.6114 21.3638 26.9691 22.244 29.4052 22.244C33.0013 22.244 34.9305 19.7761 36.0882 17.0431C36.3098 20.2868 37.6023 22.1815 39.618 22.1815C40.9402 22.1815 42.4683 20.511 43.1634 18.4705C43.1634 18.4705 43.232 19.0002 43.76 20.0855C44.4866 21.5027 45.5913 22.1534 46.9634 22.1534C48.6701 22.1534 50.1298 21.1188 51.021 19.3827C51.1561 20.6982 52.2607 22.147 54.0369 22.147C55.152 22.147 56.1685 21.2926 56.8357 19.8854C56.8357 19.8854 57.7001 22.2096 60.2 22.2096C61.6041 22.2096 63.2668 20.9088 63.6641 19.9637L63.7079 21.3382L59.9987 24.7587C58.9216 25.8042 57.776 27.3063 57.776 28.9695C57.776 31.0847 59.7731 32.3009 61.5306 32.3009C63.3575 32.3009 64.5696 31.1435 65.2337 30.1737C66.0693 28.9188 66.4223 26.5537 66.4223 24.2417L66.3395 20.7653C68.8394 18.0173 70.7959 14.2191 71.6669 11.5317L73.5645 11.4817C73.9321 11.457 73.9138 11.6017 73.863 11.816C73.5294 13.2253 73.2382 14.8214 73.2382 16.4109C73.2382 19.037 73.8431 20.1797 74.7125 21.1137C75.4685 21.8962 76.2202 22.1601 77.0115 22.1601C78.5589 22.1601 79.5304 20.8822 79.8385 20.0766C80.5651 21.4938 81.6356 22.1538 83.0074 22.1538C84.7142 22.1538 86.1739 21.1192 87.0652 19.3831C87.2003 20.6987 88.3047 22.1474 90.081 22.1474C91.4081 22.1474 92.1778 21.3817 92.7831 19.9389C92.7953 20.403 92.8132 20.8977 92.8269 21.3616C92.8429 21.6016 93.0347 21.7535 93.2065 21.8161C93.7706 22.0296 94.2657 22.1364 94.7105 22.1364C95.8705 22.1364 96.1224 21.8982 96.1224 21.1399C96.1224 19.8892 96.159 17.9131 96.5144 16.3265C96.8917 14.7468 97.461 12.9586 98.2466 11.7143C98.3173 11.5858 98.4906 11.6195 98.4982 11.7753C98.611 14.4375 98.789 18.9442 99.4884 20.1108C99.8334 20.6672 100.367 21.0728 101.166 21.0728C101.54 21.0728 101.999 20.9132 102.117 20.8136C102.236 20.7208 102.296 20.6176 102.289 20.4263C102.289 17.023 103.35 13.7282 104.413 11.5129C104.442 11.4472 104.525 11.4421 104.522 11.5286L104.463 13.9807C104.463 18.0082 104.753 20.5527 106.765 21.7759C107.16 21.9972 107.606 22.1128 108.06 22.1115C109.089 22.1115 110.022 21.5367 110.483 20.6122C110.859 19.8937 111.211 18.5109 111.211 17.7277C111.211 17.4245 111.215 16.931 110.718 16.931C110.445 16.931 110.282 17.1319 110.216 17.4355C110.058 18.0934 109.928 18.6576 109.682 19.3081C109.447 19.929 109.097 20.2907 108.681 20.2907C108.193 20.2907 107.945 19.9064 107.803 19.6689C107.18 18.7186 107.13 16.5354 107.13 14.7132L107.28 10.023C107.28 9.63496 107.118 9.17055 106.519 8.82815C106.117 8.59678 105.101 8.16124 104.478 8.16124C103.901 8.16124 103.621 8.48831 103.413 8.96849C103.022 9.83092 101.716 13.2137 101.365 15.964C101.353 16.0365 101.262 16.0518 101.256 15.9593C101.074 14.0144 100.981 11.671 100.983 10.09C100.983 9.61209 100.866 8.92885 99.8519 8.48609C99.3592 8.2817 98.9516 8.15657 98.4539 8.15657C97.8364 8.15657 97.7036 8.45878 97.4824 8.85924C96.7829 10.1518 96.2991 11.8373 95.574 13.9634L95.585 9.09839C95.585 8.8709 95.4456 8.57269 95.0461 8.49242C94.0557 8.26482 93.5968 8.16146 93.2063 8.16146C92.922 8.16146 92.7658 8.38806 92.7658 8.63309L92.7126 16.9281C92.521 17.9435 91.7446 20.3673 90.6432 20.3673C89.7391 20.3673 89.3172 19.4513 89.3172 15.6226L89.4813 9.40004C89.4813 9.00701 89.2233 8.84192 88.8472 8.6755C88.3095 8.46189 87.8818 8.37707 87.3353 8.37707C86.6494 8.37707 86.414 8.70536 86.5528 9.49396C85.7989 8.47388 85.0451 7.9101 83.7135 7.9101C81.0401 7.9101 79.0249 11.1259 79.0249 15.7991C78.9987 17.1095 79.3153 18.4119 79.3153 18.4119C79.0734 19.4995 78.5047 20.386 77.7191 20.386C76.728 20.386 76.0964 18.9848 76.0964 16.5564C76.0964 14.1207 77.0241 11.3737 77.0241 10.6292C77.0241 9.76353 76.4569 9.21585 75.4529 9.21585C74.95 9.21585 73.0842 9.63907 72.1278 9.77796C72.1278 9.77796 72.2357 9.32243 72.2277 8.96427C72.2277 8.11072 71.8272 7.57581 70.833 7.57581C69.6181 7.57581 68.726 8.44335 68.726 9.9234C68.726 10.5874 69.1085 11.2018 69.6148 11.5319C68.9576 14.2729 67.8891 16.3112 66.3146 18.5884L66.4473 9.36728C66.4473 9.06752 66.3674 8.88133 65.7802 8.6534C65.4698 8.51929 64.9639 8.36441 64.3262 8.36441C63.4019 8.36441 63.4631 9.02444 63.5125 9.51861C63.0896 8.76876 62.1638 7.87868 60.7354 7.87868C56.8432 7.87868 55.6482 13.814 56.2342 18.0291C56.2342 18.543 55.7324 20.3673 54.5989 20.3673C53.6949 20.3673 53.273 19.4513 53.273 15.6226L53.4386 9.40004C53.4386 9.0069 53.1788 8.84181 52.8028 8.6755C52.2651 8.46189 51.8389 8.37707 51.2924 8.37707C50.6064 8.37707 50.3711 8.70536 50.5098 9.49385C49.7559 8.47377 49.0006 7.90999 47.6689 7.90999C44.9954 7.90999 42.9536 10.851 42.9536 15.524C42.9536 17.3078 41.4177 20.0299 40.3407 20.0299C39.7423 20.0299 39.1053 18.9315 39.1053 16.1253C39.1083 14.2125 39.3692 7.70071 39.3692 7.70071L43.1286 7.63976C43.308 7.63809 43.4119 7.44203 43.4784 7.32123C43.651 6.97096 43.7345 6.7377 43.7345 6.31858C43.7345 5.94044 43.6588 5.80232 43.1739 5.77501L39.4269 5.55008L39.5864 2.0595C39.5976 1.83912 39.4646 1.69546 39.224 1.58788C38.4987 1.30421 37.6091 1.02987 37.0458 1.02976V1.02976ZM48.4237 10.1759C49.426 10.1759 50.4431 11.09 50.4431 14.3334C50.4431 18.417 48.9554 20.317 47.8114 20.317C46.7389 20.317 45.9248 18.8032 45.9248 15.8297C45.9248 12.8242 46.7198 10.1759 48.4237 10.1759V10.1759ZM84.5209 10.1759C85.5232 10.1759 86.5403 11.09 86.5403 14.3334C86.5403 18.417 85.0526 20.317 83.9086 20.317C82.8361 20.317 82.0218 18.8032 82.0218 15.8297C82.022 12.8242 82.817 10.1759 84.5209 10.1759V10.1759ZM61.626 10.1946C62.934 10.1946 63.5127 11.5429 63.5127 14.1568C63.5127 18.0978 62.3412 20.3417 60.9184 20.3417C60.0101 20.3417 58.9657 18.8503 59.0208 15.917C59.0208 14.0415 59.6323 10.1946 61.626 10.1946V10.1946ZM63.8405 23.3782V24.9305C63.8405 30.0816 62.468 30.9608 61.3651 30.9608C60.9472 30.9608 59.9235 30.6451 59.9235 29.3708C59.9235 27.5894 61.7859 25.5629 62.3647 24.9368L63.8405 23.3782V23.3782Z" fill="black" fill-opacity="0.15"/>
</svg>
