<svg width="0" height="0" class="hidden">
  <symbol fill="none" xmlns="http://www.w3.org/2000/svg" viewBox="0 0 156 37" id="logo-white">
    <path d="M31.6774 36.1322C34.3771 36.1322 36.5658 33.9625 36.5658 31.2848C36.5658 28.6081 34.3771 26.4375 31.6774 26.4375C28.9778 26.4375 26.7891 28.6081 26.7891 31.2848C26.79 33.9625 28.9778 36.1322 31.6774 36.1322Z" fill="white"></path>
    <path d="M18.3255 0C8.20589 0 0 8.13713 0 18.1717C0 28.2064 8.20589 36.3435 18.3255 36.3435C20.8236 36.3435 23.1986 35.8517 25.3682 34.9559C24.7303 33.8759 24.3617 32.6249 24.3617 31.287C24.3617 27.282 27.6401 24.0313 31.6795 24.0313C33.005 24.0313 34.2464 24.3818 35.316 24.9949C36.1802 22.8873 36.651 20.5859 36.651 18.1717C36.651 8.13713 28.4451 0 18.3255 0ZM18.3255 29.0238C12.2845 29.0238 7.38654 24.1621 7.38654 18.1717C7.38654 12.1813 12.2845 7.32447 18.3255 7.32447C24.3665 7.32447 29.2702 12.1813 29.2702 18.1717C29.2702 24.1621 24.3675 29.0238 18.3255 29.0238Z" fill="white"></path>
    <path d="M62.7857 26.7591C62.2932 27.3669 61.6988 27.8283 60.9979 28.1477C60.297 28.4648 59.5273 28.6246 58.6888 28.6246C57.5621 28.6246 56.5417 28.3828 55.6323 27.897C54.7207 27.4135 53.6804 26.5573 52.5092 25.3285C51.1362 25.1555 49.9096 24.714 48.8338 24.0065C47.7558 23.2989 46.9174 22.3828 46.3185 21.2627C45.7174 20.1426 45.418 18.9026 45.418 17.5429C45.418 16.0546 45.7751 14.7126 46.4915 13.5215C47.208 12.3282 48.1972 11.3922 49.4616 10.7134C50.7259 10.0347 52.1455 9.69531 53.7225 9.69531C55.2974 9.69531 56.7147 10.0347 57.9724 10.7134C59.2301 11.3922 60.2193 12.3282 60.9424 13.5215C61.6655 14.7149 62.0271 16.0546 62.0271 17.5429C62.0271 19.3063 61.5324 20.8523 60.5409 22.1832C59.5517 23.5141 58.2386 24.439 56.606 24.958C56.9676 25.3329 57.3181 25.6057 57.6574 25.7721C57.9968 25.9384 58.3628 26.0205 58.7532 26.0205C59.6936 26.0205 60.5166 25.6434 61.2241 24.8937L62.7857 26.7591ZM49.5902 20.0583C50.0028 20.7947 50.5706 21.3714 51.2915 21.7817C52.0146 22.1943 52.8242 22.4006 53.7203 22.4006C54.6164 22.4006 55.426 22.1943 56.1491 21.7817C56.8722 21.3692 57.44 20.7947 57.8504 20.0583C58.263 19.3219 58.4693 18.4834 58.4693 17.5429C58.4693 16.6025 58.263 15.764 57.8504 15.0276C57.4378 14.2912 56.87 13.7167 56.1491 13.3042C55.426 12.8916 54.6164 12.6853 53.7203 12.6853C52.8242 12.6853 52.0146 12.8916 51.2915 13.3042C50.5684 13.7167 50.0006 14.2912 49.5902 15.0276C49.1776 15.764 48.9714 16.6025 48.9714 17.5429C48.9736 18.4834 49.1799 19.3219 49.5902 20.0583Z" fill="white"></path>
    <path d="M65.8421 16.9103C65.4362 16.5066 65.2344 15.9986 65.2344 15.3931C65.2344 14.772 65.4362 14.2685 65.8421 13.887C66.2458 13.5033 66.7449 13.3125 67.3394 13.3125C67.9316 13.3125 68.4307 13.5033 68.8366 13.887C69.2403 14.2707 69.4443 14.772 69.4443 15.3931C69.4443 16.0008 69.2425 16.5066 68.8366 16.9103C68.4307 17.3162 67.9338 17.518 67.3394 17.518C66.7449 17.518 66.2458 17.3162 65.8421 16.9103ZM65.8421 24.6958C65.4362 24.2921 65.2344 23.7841 65.2344 23.1786C65.2344 22.5575 65.4362 22.054 65.8421 21.6725C66.2458 21.2888 66.7449 21.098 67.3394 21.098C67.9316 21.098 68.4307 21.291 68.8366 21.6725C69.2403 22.0562 69.4443 22.5575 69.4443 23.1786C69.4443 23.7864 69.2425 24.2921 68.8366 24.6958C68.4307 25.1017 67.9338 25.3035 67.3394 25.3035C66.7449 25.3035 66.2458 25.0995 65.8421 24.6958Z" fill="white"></path>
    <path d="M76.6721 24.3819C75.4211 23.7098 74.4384 22.7782 73.722 21.5848C73.0056 20.3915 72.6484 19.0451 72.6484 17.5412C72.6484 16.0374 73.0056 14.6888 73.722 13.4977C74.4384 12.3043 75.4211 11.3727 76.6721 10.7006C77.9231 10.0286 79.3271 9.69141 80.8887 9.69141C82.204 9.69141 83.3929 9.92209 84.4554 10.3857C85.5178 10.8493 86.4095 11.5125 87.1326 12.3797L84.8768 14.4603C83.8498 13.2759 82.5789 12.6814 81.0595 12.6814C80.119 12.6814 79.2806 12.8877 78.5441 13.3002C77.8077 13.7128 77.231 14.2873 76.8207 15.0237C76.4081 15.7601 76.2018 16.5986 76.2018 17.539C76.2018 18.4795 76.4081 19.3179 76.8207 20.0543C77.2333 20.7908 77.8077 21.3675 78.5441 21.7778C79.2806 22.1904 80.119 22.3967 81.0595 22.3967C82.5766 22.3967 83.8498 21.7978 84.8768 20.5978L87.1326 22.6784C86.4095 23.5612 85.5134 24.2332 84.4443 24.6946C83.3752 25.156 82.1818 25.3889 80.8665 25.3889C79.3205 25.3911 77.9209 25.0539 76.6721 24.3819Z" fill="white"></path>
    <path d="M91.125 9.95117H94.6385V22.2683H102.249V25.1296H91.125V9.95117Z" fill="white"></path>
    <path d="M105.848 9.95117H109.361V25.1296H105.848V9.95117Z" fill="white"></path>
    <path d="M128.507 9.95117V25.1296H125.623L118.055 15.9134V25.1296H114.586V9.95117H117.492L125.038 19.1674V9.95117H128.507Z" fill="white"></path>
    <path d="M133.734 9.94922H137.248V25.1277H133.734V9.94922Z" fill="white"></path>
    <path d="M145.539 24.3819C144.288 23.7098 143.306 22.7782 142.589 21.5848C141.873 20.3915 141.516 19.0451 141.516 17.5412C141.516 16.0374 141.873 14.6888 142.589 13.4977C143.306 12.3043 144.288 11.3727 145.539 10.7006C146.79 10.0286 148.194 9.69141 149.756 9.69141C151.071 9.69141 152.26 9.92209 153.323 10.3857C154.385 10.8493 155.277 11.5125 156 12.3797L153.744 14.4603C152.717 13.2759 151.446 12.6814 149.927 12.6814C148.986 12.6814 148.148 12.8877 147.411 13.3002C146.675 13.7128 146.098 14.2873 145.688 15.0237C145.275 15.7601 145.069 16.5986 145.069 17.539C145.069 18.4795 145.275 19.3179 145.688 20.0543C146.1 20.7908 146.675 21.3675 147.411 21.7778C148.148 22.1904 148.986 22.3967 149.927 22.3967C151.444 22.3967 152.717 21.7978 153.744 20.5978L156 22.6784C155.277 23.5612 154.381 24.2332 153.311 24.6946C152.242 25.156 151.049 25.3889 149.734 25.3889C148.188 25.3911 146.79 25.0539 145.539 24.3819Z" fill="white"></path>
  </symbol>
  <symbol fill="none" xmlns="http://www.w3.org/2000/svg" viewBox="0 0 132 132" id="qclinic-circle">
    <path d="M52.7162 122.641C52.8783 121.344 53.4444 120.277 54.4145 119.439L53.5185 118.255L54.7705 117.381L55.703 118.612C56.5771 118.242 57.4725 118.114 58.3894 118.229C59.7878 118.403 60.9171 119.038 61.7772 120.134C62.6362 121.238 62.9777 122.494 62.8017 123.902C62.6258 125.309 61.9861 126.438 60.8829 127.288C59.7785 128.147 58.527 128.489 57.1286 128.314C55.7301 128.139 54.6014 127.5 53.7425 126.395C52.8823 125.3 52.5403 124.049 52.7162 122.641ZM58.1949 119.785C57.6762 119.72 57.1767 119.765 56.6963 119.922L58.2469 121.964L56.9949 122.837L55.3713 120.701C54.7728 121.276 54.4203 121.989 54.3138 122.841C54.1899 123.832 54.4197 124.702 55.0032 125.452C55.5866 126.203 56.3599 126.638 57.3231 126.758C58.2863 126.879 59.1429 126.647 59.8931 126.064C60.6433 125.48 61.0803 124.693 61.2042 123.702C61.328 122.711 61.0983 121.841 60.5148 121.09C59.9313 120.34 59.158 119.905 58.1949 119.785Z" fill="#58C1D6"></path>
    <path d="M48.0012 121.509C48.2574 121.373 48.524 121.346 48.8007 121.431C49.0775 121.515 49.2842 121.685 49.4208 121.942C49.5574 122.198 49.5836 122.464 49.4993 122.741C49.4122 123.027 49.2464 123.235 49.0018 123.365C48.7456 123.502 48.4746 123.527 48.1889 123.44C47.9121 123.355 47.7054 123.185 47.5688 122.929C47.4322 122.673 47.4061 122.406 47.4904 122.129C47.5747 121.852 47.7449 121.646 48.0012 121.509ZM49.5308 116.487C49.7871 116.35 50.0536 116.324 50.3304 116.409C50.6071 116.493 50.8138 116.663 50.9504 116.919C51.087 117.176 51.1132 117.442 51.0289 117.719C50.9446 117.996 50.7788 118.204 50.5315 118.343C50.2752 118.48 50.0042 118.504 49.7185 118.417C49.4417 118.333 49.235 118.163 49.0984 117.907C48.9618 117.65 48.9357 117.384 49.02 117.107C49.1043 116.83 49.2746 116.624 49.5308 116.487Z" fill="#58C1D6"></path>
    <path d="M35.8684 109.355C37.1028 110.162 37.8607 111.237 38.1421 112.581C38.4185 113.932 38.1634 115.21 37.377 116.413C36.5906 117.616 35.5256 118.358 34.1821 118.64C32.8334 118.929 31.5418 118.67 30.3075 117.863C29.5653 117.378 28.9966 116.755 28.6014 115.995C28.1984 115.23 28.0177 114.432 28.0593 113.601L29.6755 113.687C29.6287 114.236 29.7396 114.766 30.0083 115.276C30.264 115.789 30.6497 116.214 31.1654 116.551C32.0404 117.123 32.9326 117.31 33.842 117.113C34.7436 116.91 35.4728 116.383 36.0294 115.532C36.586 114.68 36.776 113.801 36.5995 112.894C36.4152 111.982 35.8855 111.24 35.0105 110.668C34.4949 110.331 33.9496 110.142 33.3745 110.1C32.7943 110.067 32.266 110.184 31.7895 110.452L31.0543 109.019C31.7912 108.642 32.5935 108.48 33.4613 108.535C34.316 108.592 35.1184 108.865 35.8684 109.355Z" fill="#58C1D6"></path>
    <path d="M28.3311 105.39L25.4483 102.632L26.513 101.519L30.5591 105.391L23.7836 112.471L22.6204 111.358L28.3311 105.39Z" fill="#58C1D6"></path>
    <path d="M17.0761 105.321L16.0774 104.058L23.7646 97.9793L24.7632 99.2422L17.0761 105.321Z" fill="#58C1D6"></path>
    <path d="M9.71789 93.967L8.93057 92.5626L17.4789 87.7703L18.095 88.8693L14.5536 96.1512L20.3543 92.8992L21.1416 94.3036L12.5933 99.0959L11.9771 97.9969L15.5185 90.715L9.71789 93.967Z" fill="#58C1D6"></path>
    <path d="M7.26575 88.162L6.70937 86.6512L15.9056 83.2646L16.462 84.7754L7.26575 88.162Z" fill="#58C1D6"></path>
    <path d="M13.8543 74.3983C14.1302 75.847 13.8821 77.1388 13.1101 78.2739C12.329 79.4108 11.2324 80.1136 9.82047 80.3825C8.4085 80.6513 7.13497 80.3998 5.99987 79.6278C4.85561 78.8576 4.14556 77.7481 3.86972 76.2995C3.70387 75.4285 3.75741 74.5869 4.03034 73.7749C4.30152 72.9537 4.75082 72.2695 5.37824 71.7225L6.43778 72.9459C6.00989 73.2934 5.70555 73.7409 5.52477 74.2884C5.33307 74.8285 5.29483 75.4011 5.41005 76.0062C5.60558 77.0331 6.08993 77.8054 6.86311 78.3233C7.63454 78.832 8.51994 78.9912 9.51932 78.8009C10.5187 78.6106 11.2836 78.1372 11.8142 77.3806C12.3429 76.6148 12.5095 75.7185 12.314 74.6916C12.1988 74.0865 11.9565 73.5626 11.5872 73.1198C11.2087 72.6788 10.7575 72.38 10.2336 72.2232L10.7556 70.6986C11.5384 70.9676 12.2114 71.4333 12.7746 72.0956C13.3268 72.7506 13.6867 73.5181 13.8543 74.3983Z" fill="#58C1D6"></path>
    <path d="M9.65408 51.374C10.9465 51.5664 12.0003 52.1574 12.8154 53.1469L14.0204 52.2789L14.8642 53.5511L13.6115 54.4544C13.9614 55.3369 14.0682 56.2351 13.9322 57.149C13.7246 58.543 13.0633 59.6571 11.9483 60.4913C10.824 61.3241 9.56027 61.6361 8.15707 61.4271C6.75388 61.2182 5.64048 60.5522 4.81688 59.4294C3.98406 58.3051 3.67143 57.046 3.879 55.652C4.08658 54.2581 4.75249 53.1447 5.87675 52.3118C6.99178 51.4776 8.25089 51.165 9.65408 51.374ZM12.3813 56.9181C12.4582 56.4011 12.4242 55.9007 12.2793 55.4167L10.2013 56.919L9.35751 55.6469L11.5309 54.0738C10.9709 53.462 10.2663 53.0929 9.41695 52.9664C8.42918 52.8193 7.55347 53.0286 6.78982 53.5943C6.02617 54.16 5.57287 54.9229 5.4299 55.883C5.28694 56.8431 5.4983 57.7049 6.064 58.4686C6.62969 59.2322 7.40643 59.6876 8.3942 59.8347C9.38198 59.9818 10.2577 59.7725 11.0213 59.2068C11.785 58.6411 12.2383 57.8782 12.3813 56.9181Z" fill="#58C1D6"></path>
    <path d="M10.8977 46.6845C11.0283 46.9438 11.0482 47.2109 10.9574 47.4856C10.8666 47.7603 10.6916 47.963 10.4322 48.0935C10.1728 48.2241 9.90573 48.244 9.63101 48.1532C9.34742 48.0595 9.14332 47.8889 9.0187 47.6413C8.88815 47.3819 8.86972 47.1104 8.96342 46.8268C9.05419 46.5521 9.22927 46.3494 9.48865 46.2189C9.74804 46.0883 10.0151 46.0685 10.2898 46.1592C10.5645 46.25 10.7672 46.4251 10.8977 46.6845ZM15.8827 48.3315C16.0132 48.5909 16.0331 48.8579 15.9424 49.1326C15.8516 49.4074 15.6765 49.61 15.4171 49.7406C15.1577 49.8711 14.8907 49.891 14.616 49.8002C14.3412 49.7095 14.1371 49.5388 14.0037 49.2883C13.8731 49.0289 13.8547 48.7574 13.9484 48.4738C14.0391 48.1991 14.2142 47.9965 14.4736 47.8659C14.733 47.7354 15 47.7155 15.2748 47.8062C15.5495 47.897 15.7521 48.0721 15.8827 48.3315Z" fill="#58C1D6"></path>
    <path d="M23.3308 34.8432C22.4953 36.0583 21.4026 36.7907 20.0528 37.0406C18.6953 37.2851 17.4244 37.0002 16.24 36.1858C15.0557 35.3714 14.3386 34.2893 14.0888 32.9395C13.8312 31.5844 14.1203 30.2993 14.9558 29.0842C15.4582 28.3536 16.094 27.7996 16.8631 27.4224C17.6376 27.0374 18.4398 26.8755 19.27 26.9366L19.1458 28.5503C18.5978 28.4906 18.0657 28.5891 17.5494 28.8457C17.0307 29.0894 16.5969 29.465 16.2478 29.9726C15.6555 30.8339 15.4473 31.7215 15.6232 32.6353C15.8043 33.5415 16.314 34.2827 17.1523 34.8592C17.9905 35.4356 18.8651 35.6462 19.7761 35.491C20.6923 35.3282 21.4465 34.8161 22.0388 33.9547C22.3878 33.4472 22.5898 32.9064 22.6446 32.3325C22.6918 31.7532 22.5868 31.2223 22.3297 30.7397L23.7805 30.0382C24.14 30.7838 24.2824 31.5897 24.2078 32.4559C24.1308 33.3091 23.8385 34.1049 23.3308 34.8432Z" fill="#58C1D6"></path>
    <path d="M27.4717 27.3958L30.2971 24.5785L31.3845 25.669L27.419 29.6231L20.4993 22.6834L21.6394 21.5466L27.4717 27.3958Z" fill="#58C1D6"></path>
    <path d="M27.8039 16.1499L29.0898 15.1812L34.9863 23.0088L33.7004 23.9775L27.8039 16.1499Z" fill="#58C1D6"></path>
    <path d="M39.3283 9.05918L40.7508 8.30503L45.3413 16.9634L44.2281 17.5536L37.0313 13.8424L40.1463 19.7177L38.7238 20.4718L34.1333 11.8135L35.2465 11.2233L42.4433 14.9345L39.3283 9.05918Z" fill="#58C1D6"></path>
    <path d="M45.1919 6.74222L46.7153 6.22143L49.8853 15.4946L48.3619 16.0154L45.1919 6.74222Z" fill="#58C1D6"></path>
    <path d="M58.7979 13.6535C57.3432 13.8953 56.0575 13.617 54.9408 12.8186C53.8226 12.011 53.1457 10.8983 52.91 9.48037C52.6744 8.06248 52.9557 6.79521 53.7541 5.67853C54.551 4.55265 55.6768 3.86882 57.1315 3.62704C58.0061 3.48167 58.8462 3.55494 59.6516 3.84684C60.4662 4.1372 61.1396 4.60243 61.6718 5.24251L60.4238 6.27306C60.0865 5.83714 59.6462 5.52239 59.1032 5.32881C58.5678 5.12449 57.9962 5.07283 57.3886 5.17383C56.3574 5.34521 55.5738 5.81131 55.038 6.57213C54.5114 7.33141 54.3314 8.21284 54.4982 9.2164C54.665 10.22 55.1204 10.9958 55.8643 11.5439C56.6175 12.0905 57.5096 12.2781 58.5408 12.1067C59.1485 12.0057 59.6779 11.7758 60.1292 11.417C60.579 11.0489 60.8883 10.6049 61.0574 10.0848L62.5692 10.6424C62.282 11.4187 61.8006 12.0806 61.1253 12.6281C60.4576 13.1648 59.6818 13.5066 58.7979 13.6535Z" fill="#58C1D6"></path>
    <path d="M81.9124 9.99273C81.6897 11.2803 81.0741 12.3199 80.0658 13.1116L80.9053 14.3366L79.6136 15.1504L78.7399 13.8768C77.8495 14.2059 76.949 14.2916 76.0385 14.1342C74.6498 13.8939 73.5516 13.2067 72.7438 12.0724C71.9375 10.9289 71.6553 9.65821 71.8971 8.2603C72.1389 6.8624 72.8308 5.76493 73.9727 4.9679C75.1162 4.16167 76.3823 3.87866 77.771 4.11888C79.1597 4.3591 80.2572 5.05095 81.0634 6.19444C81.8712 7.32873 82.1542 8.59482 81.9124 9.99273ZM76.3058 12.5891C76.8208 12.6782 77.322 12.6559 77.8092 12.5224L76.356 10.4098L77.6476 9.596L79.1692 11.8057C79.794 11.2602 80.1796 10.5644 80.326 9.71831C80.4962 8.73426 80.3075 7.85388 79.7598 7.07717C79.2122 6.30046 78.4602 5.82939 77.5037 5.66394C76.5473 5.49849 75.6807 5.68958 74.904 6.2372C74.1273 6.78483 73.6538 7.55067 73.4836 8.53472C73.3133 9.51878 73.5021 10.3992 74.0497 11.1759C74.5973 11.9526 75.3493 12.4236 76.3058 12.5891Z" fill="#58C1D6"></path>
    <path d="M86.5698 11.3471C86.3074 11.4716 86.0399 11.4852 85.7674 11.388C85.4949 11.2908 85.2964 11.111 85.172 10.8487C85.0476 10.5863 85.0339 10.3188 85.1311 10.0463C85.2315 9.76499 85.4068 9.56495 85.6573 9.44617C85.9197 9.32175 86.1915 9.30969 86.4728 9.41002C86.7454 9.50721 86.9438 9.68699 87.0683 9.94936C87.1927 10.2117 87.2063 10.4792 87.1091 10.7517C87.0119 11.0242 86.8321 11.2227 86.5698 11.3471ZM84.8063 16.2921C84.5439 16.4165 84.2764 16.4301 84.0039 16.3329C83.7314 16.2358 83.5329 16.056 83.4085 15.7936C83.2841 15.5312 83.2704 15.2638 83.3676 14.9913C83.4648 14.7187 83.6402 14.5187 83.8938 14.3911C84.1562 14.2667 84.428 14.2546 84.7093 14.355C84.9818 14.4522 85.1803 14.6319 85.3047 14.8943C85.4292 15.1567 85.4428 15.4241 85.3456 15.6967C85.2484 15.9692 85.0686 16.1677 84.8063 16.2921Z" fill="#58C1D6"></path>
    <path d="M98.1182 24.0542C96.9231 23.1904 96.2164 22.0808 95.9983 20.7255C95.7857 19.3627 96.1004 18.0988 96.9423 16.9339C97.7843 15.7689 98.8829 15.0774 100.238 14.8593C101.599 14.6337 102.877 14.9528 104.072 15.8166C104.791 16.336 105.33 16.9846 105.689 17.7624C106.055 18.5456 106.198 19.3515 106.118 20.18L104.508 20.018C104.58 19.4715 104.494 18.9372 104.25 18.4151C104.018 17.8908 103.653 17.4483 103.154 17.0874C102.306 16.4751 101.424 16.2461 100.506 16.4005C99.5962 16.5603 98.8431 17.0525 98.2472 17.877C97.6513 18.7015 97.4202 19.5709 97.5539 20.4852C97.6953 21.405 98.1895 22.1711 99.0367 22.7834C99.536 23.1442 100.072 23.3588 100.644 23.4271C101.222 23.4879 101.756 23.3954 102.244 23.1496L102.911 24.6165C102.157 24.9584 101.348 25.0819 100.484 24.987C99.6331 24.89 98.8444 24.5791 98.1182 24.0542Z" fill="#58C1D6"></path>
    <path d="M105.461 28.3693L108.211 31.2601L107.096 32.3216L103.236 28.2644L110.336 21.5094L111.445 22.6759L105.461 28.3693Z" fill="#58C1D6"></path>
    <path d="M116.701 28.966L117.639 30.2743L109.676 35.9856L108.737 34.6772L116.701 28.966Z" fill="#58C1D6"></path>
    <path d="M123.518 40.6527L124.239 42.0925L115.475 46.4786L114.911 45.3518L118.79 38.2441L112.843 41.2204L112.123 39.7806L120.887 35.3945L121.451 36.5213L117.571 43.629L123.518 40.6527Z" fill="#58C1D6"></path>
    <path d="M125.696 46.5702L126.181 48.1054L116.836 51.057L116.351 49.5217L125.696 46.5702Z" fill="#58C1D6"></path>
    <path d="M118.469 60.0074C118.261 58.5475 118.57 57.2686 119.394 56.171C120.228 55.072 121.356 54.4214 122.779 54.2191C124.202 54.0168 125.462 54.3278 126.56 55.1521C127.667 55.9752 128.324 57.1167 128.532 58.5767C128.657 59.4545 128.564 60.2926 128.253 61.091C127.944 61.8986 127.463 62.5609 126.81 63.0778L125.809 61.8061C126.253 61.479 126.578 61.0463 126.784 60.5079C127.001 59.9774 127.066 59.4073 126.979 58.7974C126.832 57.7625 126.385 56.9682 125.637 56.4147C124.89 55.8704 124.013 55.6698 123.006 55.813C121.999 55.9563 121.212 56.3933 120.647 57.1242C120.083 57.8643 119.874 58.7518 120.021 59.7867C120.108 60.3966 120.326 60.9313 120.674 61.3909C121.031 61.8491 121.468 62.1688 121.984 62.35L121.391 63.8484C120.621 63.543 119.971 63.0463 119.44 62.3582C118.919 61.6781 118.595 60.8945 118.469 60.0074Z" fill="#58C1D6"></path>
    <path d="M121.585 83.2015C120.303 82.9487 119.278 82.3089 118.51 81.2823L117.266 82.0928L116.483 80.7824L117.777 79.9388C117.468 79.0409 117.404 78.1387 117.583 77.2322C117.855 75.8495 118.568 74.7676 119.721 73.9866C120.883 73.2075 122.16 72.9551 123.552 73.2297C124.944 73.5042 126.025 74.2216 126.795 75.3819C127.574 76.544 127.827 77.8164 127.555 79.1991C127.282 80.5817 126.564 81.6627 125.402 82.4419C124.249 83.2228 122.977 83.4761 121.585 83.2015ZM119.121 77.5356C119.02 78.0484 119.03 78.5499 119.152 79.0401L121.299 77.6369L122.082 78.9472L119.837 80.4166C120.368 81.054 121.054 81.4558 121.897 81.622C122.876 81.8152 123.761 81.6472 124.55 81.118C125.34 80.5887 125.828 79.8479 126.016 78.8956C126.204 77.9433 126.033 77.0725 125.504 76.2831C124.975 75.4938 124.22 75.0025 123.24 74.8092C122.261 74.616 121.376 74.784 120.587 75.3132C119.797 75.8425 119.309 76.5833 119.121 77.5356Z" fill="#58C1D6"></path>
    <path d="M120.123 87.826C120.005 87.5608 119.997 87.2931 120.101 87.023C120.204 86.7528 120.389 86.5586 120.654 86.4403C120.919 86.3221 121.187 86.3148 121.457 86.4183C121.736 86.5252 121.932 86.7052 122.045 86.9584C122.163 87.2236 122.169 87.4957 122.062 87.7746C121.958 88.0447 121.774 88.2389 121.509 88.3572C121.243 88.4754 120.976 88.4828 120.706 88.3792C120.435 88.2757 120.241 88.0913 120.123 87.826ZM115.221 85.947C115.102 85.6818 115.095 85.4141 115.199 85.1439C115.302 84.8738 115.487 84.6796 115.752 84.5613C116.017 84.4431 116.285 84.4357 116.555 84.5393C116.825 84.6429 117.021 84.8229 117.143 85.0794C117.261 85.3446 117.266 85.6167 117.16 85.8955C117.056 86.1657 116.872 86.3599 116.606 86.4782C116.341 86.5964 116.073 86.6037 115.803 86.5002C115.533 86.3966 115.339 86.2122 115.221 85.947Z" fill="#58C1D6"></path>
    <path d="M107.148 99.0755C108.04 97.9009 109.166 97.2205 110.526 97.0343C111.893 96.8537 113.149 97.1979 114.294 98.067C115.439 98.936 116.104 100.051 116.291 101.411C116.484 102.776 116.135 104.046 115.244 105.221C114.708 105.927 114.047 106.451 113.261 106.792C112.469 107.14 111.66 107.264 110.834 107.164L111.033 105.558C111.578 105.643 112.114 105.57 112.642 105.338C113.171 105.118 113.622 104.764 113.995 104.273C114.627 103.44 114.876 102.564 114.744 101.642C114.605 100.729 114.131 99.9645 113.321 99.3494C112.51 98.7342 111.647 98.4828 110.729 98.5951C109.806 98.7148 109.029 99.191 108.397 100.024C108.025 100.514 107.797 101.045 107.716 101.616C107.641 102.192 107.721 102.727 107.956 103.221L106.474 103.854C106.149 103.092 106.045 102.281 106.16 101.419C106.277 100.57 106.606 99.7892 107.148 99.0755Z" fill="#58C1D6"></path>
    <path d="M102.662 106.314L99.7078 108.995L98.6727 107.855L102.819 104.091L109.406 111.348L108.214 112.43L102.662 106.314Z" fill="#58C1D6"></path>
    <path d="M101.802 117.538L100.472 118.445L94.9492 110.35L96.2792 109.442L101.802 117.538Z" fill="#58C1D6"></path>
    <path d="M89.9578 124.078L88.5015 124.765L84.3222 115.9L85.4618 115.363L92.4766 119.408L89.6407 113.393L91.0969 112.706L95.2762 121.57L94.1366 122.108L87.1218 118.063L89.9578 124.078Z" fill="#58C1D6"></path>
    <path d="M83.9921 126.114L82.4459 126.563L79.7144 117.151L81.2605 116.702L83.9921 126.114Z" fill="#58C1D6"></path>
    <path d="M70.7256 118.577C72.19 118.404 73.4613 118.742 74.5392 119.592C75.6183 120.451 76.2423 121.594 76.4112 123.022C76.5801 124.449 76.2396 125.702 75.3897 126.78C74.5409 127.867 73.3843 128.497 71.9199 128.67C71.0394 128.775 70.2037 128.662 69.4128 128.333C68.6127 128.004 67.9619 127.508 67.4603 126.844L68.7552 125.873C69.0718 126.324 69.4968 126.659 70.0302 126.878C70.5554 127.107 71.1239 127.186 71.7356 127.113C72.7737 126.99 73.5782 126.562 74.1492 125.827C74.7109 125.093 74.9319 124.221 74.8124 123.211C74.6928 122.2 74.2744 121.404 73.557 120.822C72.8303 120.24 71.9479 120.011 70.9098 120.134C70.2981 120.206 69.7584 120.411 69.2908 120.748C68.8243 121.095 68.4944 121.524 68.3012 122.036L66.8171 121.408C67.1405 120.646 67.6524 120.007 68.3527 119.492C69.0448 118.987 69.8358 118.682 70.7256 118.577Z" fill="#58C1D6"></path>
  </symbol>
  <symbol fill="none" xmlns="http://www.w3.org/2000/svg" viewBox="0 0 15 15" id="plus">
    <path d="M15 6.03488V8.93023H8.93023V15H6.03488V8.93023H0V6.03488H6.03488V0H8.93023V6.03488H15Z" fill="#58C1D6"></path>
  </symbol>
  <symbol xmlns="http://www.w3.org/2000/svg" viewBox="0 0 25 25" id="instagram">
    <path d="M12.4966 8.33156C10.2014 8.33156 8.32828 10.2047 8.32828 12.5C8.32828 14.7953 10.2014 16.6684 12.4966 16.6684C14.7919 16.6684 16.665 14.7953 16.665 12.5C16.665 10.2047 14.7919 8.33156 12.4966 8.33156ZM24.9986 12.5C24.9986 10.7738 25.0142 9.0633 24.9173 7.34026C24.8204 5.33891 24.3638 3.56271 22.9004 2.09922C21.4338 0.632607 19.6607 0.179176 17.6594 0.082235C15.9333 -0.0147055 14.2228 0.000930142 12.4998 0.000930142C10.7736 0.000930142 9.06313 -0.0147055 7.34013 0.082235C5.33881 0.179176 3.56265 0.635734 2.09918 2.09922C0.632595 3.56584 0.179172 5.33891 0.0822335 7.34026C-0.0147052 9.06643 0.000930124 10.777 0.000930124 12.5C0.000930124 14.223 -0.0147052 15.9367 0.0822335 17.6597C0.179172 19.6611 0.635722 21.4373 2.09918 22.9008C3.56577 24.3674 5.33881 24.8208 7.34013 24.9178C9.06626 25.0147 10.7768 24.9991 12.4998 24.9991C14.2259 24.9991 15.9364 25.0147 17.6594 24.9178C19.6607 24.8208 21.4369 24.3643 22.9004 22.9008C24.3669 21.4342 24.8204 19.6611 24.9173 17.6597C25.0174 15.9367 24.9986 14.2262 24.9986 12.5ZM12.4966 18.9137C8.94743 18.9137 6.08305 16.0493 6.08305 12.5C6.08305 8.95073 8.94743 6.08629 12.4966 6.08629C16.0458 6.08629 18.9102 8.95073 18.9102 12.5C18.9102 16.0493 16.0458 18.9137 12.4966 18.9137ZM19.1729 7.3215C18.3442 7.3215 17.675 6.6523 17.675 5.82361C17.675 4.99493 18.3442 4.32573 19.1729 4.32573C20.0016 4.32573 20.6708 4.99493 20.6708 5.82361C20.671 6.02039 20.6324 6.21528 20.5572 6.39712C20.4821 6.57897 20.3717 6.74419 20.2326 6.88333C20.0935 7.02247 19.9282 7.1328 19.7464 7.20798C19.5646 7.28317 19.3697 7.32175 19.1729 7.3215Z"></path>
  </symbol>
  <symbol fill="none" xmlns="http://www.w3.org/2000/svg" viewBox="0 0 25 23" id="quote">
    <path d="M25 0.216897C21.5974 -0.384325 18.9981 0.26436 17.2023 2.16295C15.4379 4.06154 14.5558 6.87779 14.5558 10.6117V23H25V11.561H19.5652C19.3132 9.53582 19.5337 7.84291 20.2268 6.48225C20.9515 5.08995 22.3377 4.4729 24.3856 4.63112L25 0.216897ZM10.4442 0.216897C7.04159 -0.384325 4.44234 0.26436 2.6465 2.16295C0.882168 4.06154 0 6.87779 0 10.6117V23H10.4442V11.561H5.00945C4.7574 9.53582 4.97795 7.84291 5.67108 6.48225C6.39571 5.08995 7.78198 4.4729 9.82987 4.63112L10.4442 0.216897Z" fill="#58C1D6"></path>
  </symbol>
  <symbol xmlns="http://www.w3.org/2000/svg" viewBox="0 0 13 25" id="facebook">
    <path d="M10.6266 4.15104H13V0.176042C12.5905 0.121875 11.1823 0 9.54229 0C6.12032 0 3.77619 2.06979 3.77619 5.87396V9.375H0V13.8188H3.77619V25H8.40597V13.8198H12.0294L12.6046 9.37604H8.40488V6.31458C8.40597 5.03021 8.7656 4.15104 10.6266 4.15104Z"></path>
  </symbol>
  <symbol fill="none" xmlns="http://www.w3.org/2000/svg" viewBox="0 0 15 14" id="star-rating">
    <path d="M7.5 0L9.18386 5.18237H14.6329L10.2245 8.38525L11.9084 13.5676L7.5 10.3647L3.09161 13.5676L4.77547 8.38525L0.367076 5.18237H5.81614L7.5 0Z" fill="#F9DB74"></path>
  </symbol>
  <symbol fill="none" xmlns="http://www.w3.org/2000/svg" viewBox="0 0 12 11" id="star">
    <path d="M6 0L7.34708 4.1459H11.7063L8.17963 6.7082L9.52671 10.8541L6 8.2918L2.47329 10.8541L3.82037 6.7082L0.293661 4.1459H4.65292L6 0Z" fill="#344B6B"></path>
  </symbol>
  <symbol fill="none" xmlns="http://www.w3.org/2000/svg" viewBox="0 0 10 10" id="clock">
    <path d="M4.995 0C2.235 0 0 2.24 0 5C0 7.76 2.235 10 4.995 10C7.76 10 10 7.76 10 5C10 2.24 7.76 0 4.995 0ZM6.645 7.355L4.5 5.205V2.5H5.5V4.795L7.355 6.65L6.645 7.355Z" fill="#344B6B"></path>
  </symbol>
  <symbol fill="none" xmlns="http://www.w3.org/2000/svg" viewBox="0 0 20 17" id="arrow-right">
    <path fill-rule="evenodd" clip-rule="evenodd" d="M0 8.36776C0 8.05078 0.125921 7.74678 0.35006 7.52264C0.5742 7.2985 0.878198 7.17258 1.19518 7.17258H15.0425L9.91042 2.04288C9.686 1.81845 9.55992 1.51407 9.55992 1.19669C9.55992 0.879308 9.686 0.574925 9.91042 0.350502C10.1348 0.12608 10.4392 0 10.7566 0C11.074 0 11.3784 0.12608 11.6028 0.350502L18.7739 7.52158C18.8852 7.6326 18.9735 7.76449 19.0337 7.90969C19.094 8.05489 19.125 8.21056 19.125 8.36776C19.125 8.52497 19.094 8.68063 19.0337 8.82584C18.9735 8.97104 18.8852 9.10293 18.7739 9.21395L11.6028 16.385C11.3784 16.6094 11.074 16.7355 10.7566 16.7355C10.4392 16.7355 10.1348 16.6094 9.91042 16.385C9.686 16.1606 9.55992 15.8562 9.55992 15.5388C9.55992 15.2215 9.686 14.9171 9.91042 14.6926L15.0425 9.56294H1.19518C0.878198 9.56294 0.5742 9.43702 0.35006 9.21288C0.125921 8.98874 0 8.68474 0 8.36776Z" fill="#58C1D6"></path>
  </symbol>
  <symbol fill="none" xmlns="http://www.w3.org/2000/svg" viewBox="0 0 42 37" id="benef06">
    <path d="M28.8158 11.4873V32.504C28.8158 34.4403 27.2526 36.0001 25.3421 36.0001H4.47363C2.54977 36.0001 1 34.4268 1 32.504V11.5008H28.8158V11.4873Z" stroke="#344B6B" stroke-linecap="round" stroke-linejoin="round"></path>
    <path d="M39.2631 25.7414C40.2652 25.8489 41 26.8574 41 27.8659C41 29.1702 39.7307 30.1921 38.4081 30.1921C37.2992 30.1921 34.9345 29.2105 34.9345 25.8086C34.9345 22.0705 37.5263 15.549 37.5263 9.99564C37.5263 2.18329 32.1155 1 29.0293 1C23.9925 1 21.8816 5.38354 21.8816 8.8796C21.8816 9.57881 21.8816 11.4479 21.8816 11.4479" stroke="#344B6B" stroke-linecap="round" stroke-linejoin="round"></path>
    <path d="M19.2503 11.4873C19.2503 13.9077 17.2998 15.8708 14.8949 15.8708C12.4901 15.8708 10.5396 13.9077 10.5396 11.4873" stroke="#344B6B" stroke-linecap="round" stroke-linejoin="round"></path>
    <path d="M3.59155 8.86834V5.37228C3.59155 3.436 5.15469 1.87622 7.06518 1.87622H20.9864" stroke="#344B6B" stroke-linecap="round" stroke-linejoin="round"></path>
    <path d="M20.9867 1.86035H7.06543" stroke="#344B6B" stroke-linecap="round" stroke-linejoin="round"></path>
    <path d="M26.2104 8.86618V5.37012" stroke="#344B6B" stroke-linecap="round" stroke-linejoin="round"></path>
  </symbol>
  <symbol fill="none" xmlns="http://www.w3.org/2000/svg" viewBox="0 0 72 42" id="benef04">
    <path d="M1.46875 13.9185C2.49989 17.7544 4.91372 20.4911 5.52303 25.5608C6.57761 37.0909 10.0226 40.9941 12.1317 40.9941C13.4206 40.9941 14.4752 39.9847 14.4752 38.7509L16.2797 27.3329C16.3266 26.974 16.7484 25.2916 18.5529 25.2916C19.7012 25.2916 20.6855 26.1216 20.8027 27.2207L22.6072 38.7509C22.6072 39.9847 23.6618 40.9941 24.9507 40.9941C27.0833 40.9941 30.5048 37.2031 31.5594 25.5608C32.1218 20.8276 34.2779 18.1133 35.4027 14.6587" stroke="#344B6B" stroke-linecap="round" stroke-linejoin="round"></path>
    <path d="M36.0813 9.32231C35.6829 5.8902 33.3394 1 27.4572 1C23.5904 1 22.3249 3.44511 18.5519 3.44511C14.7788 3.44511 13.4665 1 9.62316 1C4.04561 1 1.72553 5.32941 1.13965 8.69423" stroke="#344B6B" stroke-linecap="round" stroke-linejoin="round"></path>
    <path d="M16.2737 3.18701C16.332 3.24474 16.4253 3.30248 16.5069 3.37176C16.5886 3.42949 16.6702 3.49878 16.7519 3.55651C16.9152 3.67198 17.0901 3.78746 17.2651 3.90293C17.615 4.12233 17.9766 4.33018 18.3382 4.51494C18.7115 4.69969 19.0847 4.86135 19.4696 4.98837C19.8545 5.11539 20.2511 5.20776 20.6477 5.24241H20.6594C20.8693 5.2655 21.021 5.45027 20.9976 5.65812C20.9743 5.84287 20.8227 5.99298 20.636 5.99298C20.1578 6.01607 19.6913 5.98144 19.2247 5.90061C18.7698 5.81978 18.3266 5.69276 17.8833 5.55419C17.4517 5.40407 17.0202 5.24241 16.6119 5.04611C16.402 4.95373 16.2037 4.84981 15.9937 4.74588C15.8887 4.69969 15.7954 4.64195 15.6905 4.58422C15.5855 4.52648 15.4922 4.48029 15.3755 4.41101L15.3639 4.39947C15.0023 4.18007 14.8973 3.71818 15.1072 3.36021C15.3289 3.00225 15.7954 2.89832 16.157 3.10617C16.2037 3.14081 16.2387 3.16391 16.2737 3.18701Z" fill="#344B6B"></path>
    <path d="M71 8.62692C70.3907 5.2621 68.0472 1 62.5166 1C58.6498 1 57.3843 3.44511 53.6112 3.44511C49.8382 3.44511 48.5258 1 44.6825 1C38.73 1 36.4099 5.8902 36.0583 9.32231" stroke="#344B6B" stroke-linecap="round" stroke-linejoin="round"></path>
    <path d="M36.7151 14.4851C37.8165 18.0294 40.0195 20.7437 40.6053 25.5666C41.6599 37.0968 45.1048 41 47.214 41C48.5029 41 49.5575 39.9905 49.5575 38.7568L51.362 27.3388C51.4089 26.9799 51.8307 25.2975 53.6352 25.2975C54.7835 25.2975 55.7678 26.1274 55.885 27.2266L57.6895 38.7568C57.6895 39.9905 58.744 41 60.033 41C62.1655 41 65.5871 37.2089 66.6416 25.5666C67.2509 20.5194 69.6648 17.7602 70.6959 13.9468" stroke="#344B6B" stroke-linecap="round" stroke-linejoin="round"></path>
    <path d="M51.2737 3.18701C51.332 3.24474 51.4253 3.30248 51.5069 3.37176C51.5886 3.42949 51.6703 3.49878 51.7519 3.55651C51.9152 3.67198 52.0901 3.78746 52.2651 3.90293C52.615 4.12233 52.9766 4.33018 53.3382 4.51494C53.7115 4.69969 54.0847 4.86135 54.4696 4.98837C54.8545 5.11539 55.2511 5.20776 55.6477 5.24241H55.6594C55.8693 5.2655 56.021 5.45027 55.9976 5.65812C55.9743 5.84287 55.8227 5.99298 55.636 5.99298C55.1578 6.01607 54.6913 5.98144 54.2247 5.90061C53.7698 5.81978 53.3266 5.69276 52.8833 5.55419C52.4517 5.40407 52.0202 5.24241 51.6119 5.04611C51.402 4.95373 51.2037 4.84981 50.9937 4.74588C50.8888 4.69969 50.7954 4.64195 50.6905 4.58422C50.5855 4.52648 50.4922 4.48029 50.3755 4.41101L50.3639 4.39947C50.0023 4.18007 49.8973 3.71818 50.1072 3.36021C50.3289 3.00225 50.7954 2.89832 51.157 3.10617C51.2153 3.14081 51.2503 3.16391 51.2737 3.18701Z" fill="#344B6B"></path>
    <path d="M20.8253 10.915H14.7322V16.7474H20.8253V10.915Z" stroke="#344B6B" stroke-linecap="round" stroke-linejoin="round"></path>
    <path d="M56.6578 10.915H50.5647V16.7474H56.6578V10.915Z" stroke="#344B6B" stroke-linecap="round" stroke-linejoin="round"></path>
    <path d="M50.5658 13.8325H20.8267" stroke="#344B6B" stroke-linecap="round" stroke-linejoin="round"></path>
    <path d="M14.8029 14.2097H1" stroke="#344B6B" stroke-linecap="round" stroke-linejoin="round"></path>
    <path d="M70.0149 14.21H56.2119" stroke="#344B6B" stroke-linecap="round" stroke-linejoin="round"></path>
  </symbol>
  <symbol fill="none" xmlns="http://www.w3.org/2000/svg" viewBox="0 0 42 42" id="benef05">
    <path d="M30.1358 17.0954C31.0501 14.954 31.8837 12.8686 31.8837 9.97144C31.8837 6.73836 30.0552 1 24.2871 1C20.8855 1 19.7696 3.35133 16.4486 3.35133C13.1411 3.35133 11.9713 1 8.59656 1C2.82855 1 1 6.73836 1 9.97144C1 15.7238 4.29408 18.2991 4.97979 24.5133C5.90751 35.5421 8.9327 39.2791 10.7881 39.2791C11.931 39.2791 12.8587 38.3134 12.8587 37.1237L14.4452 26.2068C14.4856 25.8569 14.8486 24.2474 16.4351 24.2474C17.457 24.2474 18.304 25.0451 18.4116 26.0948L19.9981 37.1237C19.9981 38.3134 20.9258 39.2791 22.0687 39.2791C23.0771 39.2791 24.4216 38.2294 25.5779 35.5281" stroke="#344B6B" stroke-linecap="round" stroke-linejoin="round"></path>
    <path d="M13.6122 1.78404C13.7467 1.88201 13.8945 2.00798 14.0424 2.11995C14.1903 2.23192 14.3517 2.34388 14.4996 2.45585C14.8088 2.67978 15.1181 2.88972 15.4407 3.08567C16.0727 3.49155 16.7315 3.86945 17.4037 4.19136C18.076 4.51327 18.7617 4.80718 19.4743 5.03112C20.1869 5.24106 20.8995 5.39502 21.6256 5.451H21.639C21.881 5.465 22.0692 5.68893 22.0424 5.94086C22.0289 6.17879 21.8407 6.36074 21.6121 6.36074C20.792 6.38874 19.9852 6.29076 19.192 6.1368C18.3987 5.96885 17.6323 5.73092 16.8928 5.451C16.1399 5.17108 15.4139 4.83517 14.7013 4.48527C14.3382 4.30332 13.9887 4.12138 13.6391 3.91144C13.4643 3.81347 13.2895 3.71549 13.1147 3.60352C12.9399 3.49156 12.7786 3.39358 12.5903 3.26762C12.187 3.00169 12.066 2.42785 12.3214 2.00797C12.5769 1.58809 13.1282 1.46213 13.5315 1.72805C13.5584 1.74205 13.5853 1.77004 13.6122 1.78404Z" fill="#344B6B"></path>
    <path d="M32.0927 18.959L32.1983 19.0706C34.5736 21.6234 37.6615 23.3113 41.0001 23.8554V25.9339C41.0001 33.0065 37.3843 37.7215 32.0135 40.9997C26.6427 37.7076 22.9609 32.9507 22.9609 25.9339V23.8554L23.2117 23.8135C26.4051 23.2834 29.3611 21.735 31.6968 19.3635L32.0927 18.959Z" stroke="#344B6B" stroke-miterlimit="10" stroke-linecap="round" stroke-linejoin="round"></path>
  </symbol>
  <symbol fill="none" xmlns="http://www.w3.org/2000/svg" viewBox="0 0 42 42" id="benef03">
    <path d="M14.3128 22.744H29.4883L39.4276 32.4533C40.3163 33.3213 40.2889 34.737 39.3593 35.565C38.4843 36.3396 37.1445 36.3129 36.3105 35.4982L27.711 27.0978H11.6879L1.63919 17.2817C0.791549 16.4537 0.79155 15.1315 1.61185 14.2901C2.45949 13.4354 3.854 13.422 4.71531 14.2634L11.6879 21.0212" stroke="#344B6B" stroke-linecap="round" stroke-linejoin="round"></path>
    <path d="M11.6875 27.0962L16.1581 19.27H26.0701" stroke="#344B6B" stroke-linecap="round" stroke-linejoin="round"></path>
    <path d="M13.4661 27.9667V31.4391H25.9346V27.0986" stroke="#344B6B" stroke-linecap="round" stroke-linejoin="round"></path>
    <path d="M10.7993 40.1299V40.998H28.5998V40.1299C28.5998 38.6875 27.4104 37.5256 25.9338 37.5256H13.479C11.9888 37.5256 10.7993 38.6875 10.7993 40.1299Z" stroke="#344B6B" stroke-linecap="round" stroke-linejoin="round"></path>
    <path d="M15.1887 31.4639V35.2568" stroke="#344B6B" stroke-linecap="round" stroke-linejoin="round"></path>
    <path d="M24.5388 31.4639V35.2568" stroke="#344B6B" stroke-linecap="round" stroke-linejoin="round"></path>
    <path d="M28.6001 40.9995H37.6097V36.9529" stroke="#344B6B" stroke-linecap="round" stroke-linejoin="round"></path>
    <path d="M37.6082 27.0976V13.916H24.0869V16.6538" stroke="#344B6B" stroke-linecap="round" stroke-linejoin="round"></path>
    <path d="M20.5884 1H35.7229C38.635 1 41.0002 3.31046 41.0002 6.15513V18.5088H37.6916" stroke="#344B6B" stroke-linecap="round" stroke-linejoin="round"></path>
    <path d="M28.8186 9.6413C27.6155 6.14223 24.2386 3.60474 20.2464 3.60474C16.2543 3.60474 12.8774 6.12887 11.6743 9.6413H28.8186Z" stroke="#344B6B" stroke-linecap="round" stroke-linejoin="round"></path>
    <path d="M18.5779 3.61763V1H22.1462V3.61763" stroke="#344B6B" stroke-linecap="round" stroke-linejoin="round"></path>
  </symbol>
  <symbol fill="none" xmlns="http://www.w3.org/2000/svg" viewBox="0 0 22 41" id="benef02">
    <path d="M5.9398 10.9112C8.66798 10.9112 10.8796 8.61016 10.8796 5.77165C10.8796 2.93314 8.66798 0.63208 5.9398 0.63208C3.21161 0.63208 1 2.93314 1 5.77165C1 8.61016 3.21161 10.9112 5.9398 10.9112Z" stroke="#344B6B" stroke-linecap="round" stroke-linejoin="round"></path>
    <path d="M5.9397 10.8984V20.3101" stroke="#344B6B" stroke-linecap="round" stroke-linejoin="round"></path>
    <path d="M7.58191 40.0003H4.29712V22.0316C4.29712 21.0851 5.02988 20.3228 5.93952 20.3228C6.84915 20.3228 7.58191 21.0851 7.58191 22.0316V40.0003Z" stroke="#344B6B" stroke-linecap="round" stroke-linejoin="round"></path>
    <path d="M18.1704 0.117271L20.8216 3.73545C21.0006 3.98097 21.0536 4.45909 20.9409 4.82091L20.9343 4.84676L19.211 10.3128L19.2773 9.87344V19.9656C19.2773 20.4308 19.0851 20.8055 18.8465 20.8055C18.6079 20.8055 18.4157 20.4308 18.4157 19.9656V9.87344C18.4157 9.71837 18.4422 9.56332 18.482 9.4341L20.2052 3.96805L20.3113 5.07935L17.786 1.1252C17.6468 0.905523 17.627 0.504936 17.7396 0.233572C17.839 -0.024869 18.0313 -0.0765605 18.1704 0.117271Z" fill="#344B6B"></path>
    <path d="M20.7465 40.0003H17.4617V22.0316C17.4617 21.0851 18.1944 20.3228 19.1041 20.3228C20.0137 20.3228 20.7465 21.0851 20.7465 22.0316V40.0003Z" stroke="#344B6B" stroke-linecap="round" stroke-linejoin="round"></path>
  </symbol>
  <symbol fill="none" xmlns="http://www.w3.org/2000/svg" viewBox="0 0 42 42" id="benef01">
    <path d="M12.1005 7.37227C10.965 6.81115 9.86969 6.20996 8.18659 6.20996C2.72318 6.20996 1 11.4337 1 14.3595C1 19.5965 4.11241 21.9345 4.76695 27.5724C5.63521 37.5923 8.50718 40.9857 10.2704 40.9857C11.3524 40.9857 12.2341 40.1039 12.2341 39.0218L13.7301 29.0954C13.7702 28.7748 14.1175 27.3185 15.6136 27.3185C16.5754 27.3185 17.3769 28.04 17.4837 29.0019L18.9932 39.0351C18.9932 40.1173 19.8748 40.999 20.9568 40.999C22.7468 40.999 25.5787 37.6992 26.4603 27.5857C26.7141 25.4348 27.235 24.1255 27.8896 22.3754" stroke="#344B6B" stroke-linecap="round" stroke-linejoin="round"></path>
    <path d="M15.0391 8.29361C15.2929 8.32033 15.3196 8.34705 15.6001 8.34705C18.7392 8.34705 19.7945 6.20947 23.0138 6.20947C28.4772 6.20947 30.2004 11.4332 30.2004 14.359C30.2004 16.4031 29.7729 17.5787 29.3989 18.7811" stroke="#344B6B" stroke-linecap="round" stroke-linejoin="round"></path>
    <path d="M15.2521 8.25038C16.067 8.74469 16.9085 9.18557 17.7902 9.54629C18.6718 9.89364 19.5801 10.1608 20.5018 10.241C20.7423 10.2544 20.9159 10.4681 20.9026 10.7086C20.8892 10.9223 20.7155 11.096 20.5018 11.1094C19.4465 11.1762 18.4046 11.0292 17.3894 10.7888C16.3742 10.5483 15.3991 10.2009 14.4507 9.80012C14.0098 9.61308 13.7961 9.10541 13.9831 8.65117C14.1701 8.2103 14.6777 7.99654 15.1319 8.18358C15.1854 8.2103 15.2254 8.22366 15.2521 8.25038Z" fill="#344B6B"></path>
    <path d="M24.8734 22.7499C30.8786 22.7499 35.7468 17.881 35.7468 11.8749C35.7468 5.86887 30.8786 1 24.8734 1C18.8682 1 14 5.86887 14 11.8749C14 17.881 18.8682 22.7499 24.8734 22.7499Z" stroke="#344B6B" stroke-linecap="round" stroke-linejoin="round"></path>
    <path d="M32.4287 20.0476L41.0002 28.6191" stroke="#344B6B" stroke-linecap="round" stroke-linejoin="round"></path>
  </symbol>
  <symbol xmlns="http://www.w3.org/2000/svg" viewBox="0 0 27 27" id="mini-logo">
    <path d="M23.3358 26.6189C25.3246 26.6189 26.937 25.0206 26.937 23.048C26.937 21.0761 25.3246 19.4771 23.3358 19.4771C21.347 19.4771 19.7346 21.0761 19.7346 23.048C19.7353 25.0206 21.347 26.6189 23.3358 26.6189Z" ></path>
    <path d="M13.5 0C6.0451 0 0 5.99445 0 13.3867C0 20.779 6.0451 26.7735 13.5 26.7735C14.3452 26.7735 15.1712 26.6971 15.9723 26.5505C17.4448 26.2811 17.9468 24.5455 17.9468 23.0485C17.9468 20.098 20.3619 17.7034 23.3376 17.7034C24.8224 17.7034 26.5363 17.1882 26.7955 15.7262C26.9301 14.9667 27 14.1851 27 13.3867C27 5.99445 20.9549 0 13.5 0ZM13.5 21.3812C9.04971 21.3812 5.44151 17.7997 5.44151 13.3867C5.44151 8.97373 9.04971 5.39578 13.5 5.39578C17.9503 5.39578 21.5627 8.97373 21.5627 13.3867C21.5627 17.7997 17.951 21.3812 13.5 21.3812Z"></path>
  </symbol>
  <symbol xmlns="http://www.w3.org/2000/svg" viewBox="0 0 148 35" id="logo">
    <path d="M30.0527 34.7979C32.6139 34.7979 34.6904 32.7085 34.6904 30.1298C34.6904 27.552 32.6139 25.4617 30.0527 25.4617C27.4915 25.4617 25.415 27.552 25.415 30.1298C25.4159 32.7085 27.4915 34.7979 30.0527 34.7979Z" ></path>
    <path d="M17.3857 0C7.78507 0 0 7.83633 0 17.5C0 27.1637 7.78507 35 17.3857 35C19.7558 35 22.0089 34.5264 24.0673 33.6638C23.4621 32.6236 23.1124 31.4189 23.1124 30.1305C23.1124 26.2735 26.2226 23.143 30.0549 23.143C31.3124 23.143 32.4902 23.4805 33.5049 24.0709C34.3248 22.0412 34.7714 19.8249 34.7714 17.5C34.7714 7.83633 26.9864 0 17.3857 0ZM17.3857 27.9509C11.6545 27.9509 7.00774 23.269 7.00774 17.5C7.00774 11.731 11.6545 7.05371 17.3857 7.05371C23.1169 7.05371 27.7691 11.731 27.7691 17.5C27.7691 23.269 23.1178 27.9509 17.3857 27.9509Z" ></path>
    <path d="M59.5664 25.7675C59.0992 26.3528 58.5353 26.7971 57.8703 27.1047C57.2053 27.4102 56.4751 27.564 55.6797 27.564C54.6107 27.564 53.6427 27.3311 52.7799 26.8633C51.915 26.3977 50.928 25.5731 49.8169 24.3897C48.5144 24.2231 47.3507 23.798 46.3301 23.1166C45.3073 22.4352 44.5119 21.553 43.9437 20.4742C43.3734 19.3955 43.0894 18.2014 43.0894 16.892C43.0894 15.4587 43.4282 14.1663 44.1079 13.0192C44.7876 11.87 45.7261 10.9686 46.9256 10.3149C48.1251 9.6613 49.4718 9.33447 50.968 9.33447C52.4621 9.33447 53.8068 9.6613 55 10.3149C56.1931 10.9686 57.1317 11.87 57.8177 13.0192C58.5037 14.1685 58.8467 15.4587 58.8467 16.892C58.8467 18.5902 58.3774 20.0791 57.4368 21.3607C56.4983 22.6424 55.2525 23.5331 53.7037 24.033C54.0467 24.394 54.3792 24.6567 54.7011 24.8169C55.0231 24.9772 55.3703 25.0562 55.7407 25.0562C56.6329 25.0562 57.4137 24.693 58.0849 23.971L59.5664 25.7675ZM47.0476 19.3143C47.439 20.0235 47.9778 20.5789 48.6617 20.9741C49.3477 21.3714 50.1158 21.5701 50.9659 21.5701C51.8161 21.5701 52.5842 21.3714 53.2702 20.9741C53.9562 20.5768 54.4949 20.0235 54.8842 19.3143C55.2756 18.6052 55.4713 17.7977 55.4713 16.892C55.4713 15.9863 55.2756 15.1789 54.8842 14.4697C54.4928 13.7605 53.9541 13.2072 53.2702 12.8099C52.5842 12.4126 51.8161 12.2139 50.9659 12.2139C50.1158 12.2139 49.3477 12.4126 48.6617 12.8099C47.9756 13.2072 47.4369 13.7605 47.0476 14.4697C46.6562 15.1789 46.4605 15.9863 46.4605 16.892C46.4626 17.7977 46.6583 18.6052 47.0476 19.3143Z" ></path>
    <path d="M62.4663 16.2843C62.0812 15.8956 61.8896 15.4064 61.8896 14.8232C61.8896 14.2251 62.0812 13.7402 62.4663 13.3728C62.8492 13.0033 63.3227 12.8196 63.8867 12.8196C64.4485 12.8196 64.922 13.0033 65.3071 13.3728C65.6901 13.7424 65.8837 14.2251 65.8837 14.8232C65.8837 15.4085 65.6922 15.8956 65.3071 16.2843C64.922 16.6753 64.4507 16.8696 63.8867 16.8696C63.3227 16.8696 62.8492 16.6753 62.4663 16.2843ZM62.4663 23.7821C62.0812 23.3933 61.8896 22.9041 61.8896 22.321C61.8896 21.7229 62.0812 21.238 62.4663 20.8705C62.8492 20.501 63.3227 20.3173 63.8867 20.3173C64.4485 20.3173 64.922 20.5031 65.3071 20.8705C65.6901 21.2401 65.8837 21.7229 65.8837 22.321C65.8837 22.9063 65.6922 23.3933 65.3071 23.7821C64.922 24.173 64.4507 24.3673 63.8867 24.3673C63.3227 24.3673 62.8492 24.1708 62.4663 23.7821Z" ></path>
    <path d="M72.7411 23.4789C71.5543 22.8317 70.622 21.9345 69.9423 20.7853C69.2626 19.6361 68.9238 18.3395 68.9238 16.8912C68.9238 15.4429 69.2626 14.1442 69.9423 12.9971C70.622 11.8479 71.5543 10.9507 72.7411 10.3035C73.928 9.65623 75.26 9.33154 76.7415 9.33154C77.9894 9.33154 79.1173 9.5537 80.1253 10.0001C81.1333 10.4466 81.9792 11.0853 82.6652 11.9205L80.5251 13.9242C79.5508 12.7835 78.345 12.211 76.9035 12.211C76.0113 12.211 75.2158 12.4097 74.5172 12.807C73.8185 13.2043 73.2714 13.7575 72.8821 14.4667C72.4907 15.1759 72.295 15.9834 72.295 16.8891C72.295 17.7948 72.4907 18.6022 72.8821 19.3114C73.2735 20.0206 73.8185 20.576 74.5172 20.9712C75.2158 21.3685 76.0113 21.5671 76.9035 21.5671C78.3429 21.5671 79.5508 20.9904 80.5251 19.8348L82.6652 21.8384C81.9792 22.6886 81.1291 23.3358 80.1148 23.7801C79.1005 24.2244 77.9683 24.4487 76.7204 24.4487C75.2537 24.4509 73.9259 24.1262 72.7411 23.4789Z" ></path>
    <path d="M86.4526 9.58105H89.7859V21.4428H97.0059V24.1984H86.4526V9.58105Z" ></path>
    <path d="M100.42 9.58105H103.753V24.1984H100.42V9.58105Z" ></path>
    <path d="M121.917 9.58105V24.1984H119.181L112.001 15.3229V24.1984H108.71V9.58105H111.467L118.626 18.4566V9.58105H121.917Z" ></path>
    <path d="M126.877 9.58105H130.21V24.1984H126.877V9.58105Z" ></path>
    <path d="M138.076 23.4789C136.889 22.8317 135.957 21.9345 135.277 20.7853C134.597 19.6361 134.258 18.3395 134.258 16.8912C134.258 15.4429 134.597 14.1442 135.277 12.9971C135.957 11.8479 136.889 10.9507 138.076 10.3035C139.262 9.65623 140.594 9.33154 142.076 9.33154C143.324 9.33154 144.452 9.5537 145.46 10.0001C146.468 10.4466 147.314 11.0853 148 11.9205L145.86 13.9242C144.885 12.7835 143.679 12.211 142.238 12.211C141.346 12.211 140.55 12.4097 139.852 12.807C139.153 13.2043 138.606 13.7575 138.217 14.4667C137.825 15.1759 137.629 15.9834 137.629 16.8891C137.629 17.7948 137.825 18.6022 138.217 19.3114C138.608 20.0206 139.153 20.576 139.852 20.9712C140.55 21.3685 141.346 21.5671 142.238 21.5671C143.677 21.5671 144.885 20.9904 145.86 19.8348L148 21.8384C147.314 22.6886 146.464 23.3358 145.449 23.7801C144.435 24.2244 143.303 24.4487 142.055 24.4487C140.588 24.4509 139.262 24.1262 138.076 23.4789Z" ></path>
  </symbol>
</svg>