<svg width="0" height="0" class="hidden">
  <symbol fill="none" xmlns="http://www.w3.org/2000/svg" viewBox="0 0 156 37" id="logo-white">
    <path d="M31.6774 36.1322C34.3771 36.1322 36.5658 33.9625 36.5658 31.2848C36.5658 28.6081 34.3771 26.4375 31.6774 26.4375C28.9778 26.4375 26.7891 28.6081 26.7891 31.2848C26.79 33.9625 28.9778 36.1322 31.6774 36.1322Z" fill="white"></path>
    <path d="M18.3255 0C8.20589 0 0 8.13713 0 18.1717C0 28.2064 8.20589 36.3435 18.3255 36.3435C20.8236 36.3435 23.1986 35.8517 25.3682 34.9559C24.7303 33.8759 24.3617 32.6249 24.3617 31.287C24.3617 27.282 27.6401 24.0313 31.6795 24.0313C33.005 24.0313 34.2464 24.3818 35.316 24.9949C36.1802 22.8873 36.651 20.5859 36.651 18.1717C36.651 8.13713 28.4451 0 18.3255 0ZM18.3255 29.0238C12.2845 29.0238 7.38654 24.1621 7.38654 18.1717C7.38654 12.1813 12.2845 7.32447 18.3255 7.32447C24.3665 7.32447 29.2702 12.1813 29.2702 18.1717C29.2702 24.1621 24.3675 29.0238 18.3255 29.0238Z" fill="white"></path>
    <path d="M62.7857 26.7591C62.2932 27.3669 61.6988 27.8283 60.9979 28.1477C60.297 28.4648 59.5273 28.6246 58.6888 28.6246C57.5621 28.6246 56.5417 28.3828 55.6323 27.897C54.7207 27.4135 53.6804 26.5573 52.5092 25.3285C51.1362 25.1555 49.9096 24.714 48.8338 24.0065C47.7558 23.2989 46.9174 22.3828 46.3185 21.2627C45.7174 20.1426 45.418 18.9026 45.418 17.5429C45.418 16.0546 45.7751 14.7126 46.4915 13.5215C47.208 12.3282 48.1972 11.3922 49.4616 10.7134C50.7259 10.0347 52.1455 9.69531 53.7225 9.69531C55.2974 9.69531 56.7147 10.0347 57.9724 10.7134C59.2301 11.3922 60.2193 12.3282 60.9424 13.5215C61.6655 14.7149 62.0271 16.0546 62.0271 17.5429C62.0271 19.3063 61.5324 20.8523 60.5409 22.1832C59.5517 23.5141 58.2386 24.439 56.606 24.958C56.9676 25.3329 57.3181 25.6057 57.6574 25.7721C57.9968 25.9384 58.3628 26.0205 58.7532 26.0205C59.6936 26.0205 60.5166 25.6434 61.2241 24.8937L62.7857 26.7591ZM49.5902 20.0583C50.0028 20.7947 50.5706 21.3714 51.2915 21.7817C52.0146 22.1943 52.8242 22.4006 53.7203 22.4006C54.6164 22.4006 55.426 22.1943 56.1491 21.7817C56.8722 21.3692 57.44 20.7947 57.8504 20.0583C58.263 19.3219 58.4693 18.4834 58.4693 17.5429C58.4693 16.6025 58.263 15.764 57.8504 15.0276C57.4378 14.2912 56.87 13.7167 56.1491 13.3042C55.426 12.8916 54.6164 12.6853 53.7203 12.6853C52.8242 12.6853 52.0146 12.8916 51.2915 13.3042C50.5684 13.7167 50.0006 14.2912 49.5902 15.0276C49.1776 15.764 48.9714 16.6025 48.9714 17.5429C48.9736 18.4834 49.1799 19.3219 49.5902 20.0583Z" fill="white"></path>
    <path d="M65.8421 16.9103C65.4362 16.5066 65.2344 15.9986 65.2344 15.3931C65.2344 14.772 65.4362 14.2685 65.8421 13.887C66.2458 13.5033 66.7449 13.3125 67.3394 13.3125C67.9316 13.3125 68.4307 13.5033 68.8366 13.887C69.2403 14.2707 69.4443 14.772 69.4443 15.3931C69.4443 16.0008 69.2425 16.5066 68.8366 16.9103C68.4307 17.3162 67.9338 17.518 67.3394 17.518C66.7449 17.518 66.2458 17.3162 65.8421 16.9103ZM65.8421 24.6958C65.4362 24.2921 65.2344 23.7841 65.2344 23.1786C65.2344 22.5575 65.4362 22.054 65.8421 21.6725C66.2458 21.2888 66.7449 21.098 67.3394 21.098C67.9316 21.098 68.4307 21.291 68.8366 21.6725C69.2403 22.0562 69.4443 22.5575 69.4443 23.1786C69.4443 23.7864 69.2425 24.2921 68.8366 24.6958C68.4307 25.1017 67.9338 25.3035 67.3394 25.3035C66.7449 25.3035 66.2458 25.0995 65.8421 24.6958Z" fill="white"></path>
    <path d="M76.6721 24.3819C75.4211 23.7098 74.4384 22.7782 73.722 21.5848C73.0056 20.3915 72.6484 19.0451 72.6484 17.5412C72.6484 16.0374 73.0056 14.6888 73.722 13.4977C74.4384 12.3043 75.4211 11.3727 76.6721 10.7006C77.9231 10.0286 79.3271 9.69141 80.8887 9.69141C82.204 9.69141 83.3929 9.92209 84.4554 10.3857C85.5178 10.8493 86.4095 11.5125 87.1326 12.3797L84.8768 14.4603C83.8498 13.2759 82.5789 12.6814 81.0595 12.6814C80.119 12.6814 79.2806 12.8877 78.5441 13.3002C77.8077 13.7128 77.231 14.2873 76.8207 15.0237C76.4081 15.7601 76.2018 16.5986 76.2018 17.539C76.2018 18.4795 76.4081 19.3179 76.8207 20.0543C77.2333 20.7908 77.8077 21.3675 78.5441 21.7778C79.2806 22.1904 80.119 22.3967 81.0595 22.3967C82.5766 22.3967 83.8498 21.7978 84.8768 20.5978L87.1326 22.6784C86.4095 23.5612 85.5134 24.2332 84.4443 24.6946C83.3752 25.156 82.1818 25.3889 80.8665 25.3889C79.3205 25.3911 77.9209 25.0539 76.6721 24.3819Z" fill="white"></path>
    <path d="M91.125 9.95117H94.6385V22.2683H102.249V25.1296H91.125V9.95117Z" fill="white"></path>
    <path d="M105.848 9.95117H109.361V25.1296H105.848V9.95117Z" fill="white"></path>
    <path d="M128.507 9.95117V25.1296H125.623L118.055 15.9134V25.1296H114.586V9.95117H117.492L125.038 19.1674V9.95117H128.507Z" fill="white"></path>
    <path d="M133.734 9.94922H137.248V25.1277H133.734V9.94922Z" fill="white"></path>
    <path d="M145.539 24.3819C144.288 23.7098 143.306 22.7782 142.589 21.5848C141.873 20.3915 141.516 19.0451 141.516 17.5412C141.516 16.0374 141.873 14.6888 142.589 13.4977C143.306 12.3043 144.288 11.3727 145.539 10.7006C146.79 10.0286 148.194 9.69141 149.756 9.69141C151.071 9.69141 152.26 9.92209 153.323 10.3857C154.385 10.8493 155.277 11.5125 156 12.3797L153.744 14.4603C152.717 13.2759 151.446 12.6814 149.927 12.6814C148.986 12.6814 148.148 12.8877 147.411 13.3002C146.675 13.7128 146.098 14.2873 145.688 15.0237C145.275 15.7601 145.069 16.5986 145.069 17.539C145.069 18.4795 145.275 19.3179 145.688 20.0543C146.1 20.7908 146.675 21.3675 147.411 21.7778C148.148 22.1904 148.986 22.3967 149.927 22.3967C151.444 22.3967 152.717 21.7978 153.744 20.5978L156 22.6784C155.277 23.5612 154.381 24.2332 153.311 24.6946C152.242 25.156 151.049 25.3889 149.734 25.3889C148.188 25.3911 146.79 25.0539 145.539 24.3819Z" fill="white"></path>
  </symbol>
  <symbol fill="none" xmlns="http://www.w3.org/2000/svg" viewBox="0 0 132 132" id="qclinic-circle">
    <path d="M52.7162 122.641C52.8783 121.344 53.4444 120.277 54.4145 119.439L53.5185 118.255L54.7705 117.381L55.703 118.612C56.5771 118.242 57.4725 118.114 58.3894 118.229C59.7878 118.403 60.9171 119.038 61.7772 120.134C62.6362 121.238 62.9777 122.494 62.8017 123.902C62.6258 125.309 61.9861 126.438 60.8829 127.288C59.7785 128.147 58.527 128.489 57.1286 128.314C55.7301 128.139 54.6014 127.5 53.7425 126.395C52.8823 125.3 52.5403 124.049 52.7162 122.641ZM58.1949 119.785C57.6762 119.72 57.1767 119.765 56.6963 119.922L58.2469 121.964L56.9949 122.837L55.3713 120.701C54.7728 121.276 54.4203 121.989 54.3138 122.841C54.1899 123.832 54.4197 124.702 55.0032 125.452C55.5866 126.203 56.3599 126.638 57.3231 126.758C58.2863 126.879 59.1429 126.647 59.8931 126.064C60.6433 125.48 61.0803 124.693 61.2042 123.702C61.328 122.711 61.0983 121.841 60.5148 121.09C59.9313 120.34 59.158 119.905 58.1949 119.785Z" fill="#58C1D6"></path>
    <path d="M48.0012 121.509C48.2574 121.373 48.524 121.346 48.8007 121.431C49.0775 121.515 49.2842 121.685 49.4208 121.942C49.5574 122.198 49.5836 122.464 49.4993 122.741C49.4122 123.027 49.2464 123.235 49.0018 123.365C48.7456 123.502 48.4746 123.527 48.1889 123.44C47.9121 123.355 47.7054 123.185 47.5688 122.929C47.4322 122.673 47.4061 122.406 47.4904 122.129C47.5747 121.852 47.7449 121.646 48.0012 121.509ZM49.5308 116.487C49.7871 116.35 50.0536 116.324 50.3304 116.409C50.6071 116.493 50.8138 116.663 50.9504 116.919C51.087 117.176 51.1132 117.442 51.0289 117.719C50.9446 117.996 50.7788 118.204 50.5315 118.343C50.2752 118.48 50.0042 118.504 49.7185 118.417C49.4417 118.333 49.235 118.163 49.0984 117.907C48.9618 117.65 48.9357 117.384 49.02 117.107C49.1043 116.83 49.2746 116.624 49.5308 116.487Z" fill="#58C1D6"></path>
    <path d="M35.8684 109.355C37.1028 110.162 37.8607 111.237 38.1421 112.581C38.4185 113.932 38.1634 115.21 37.377 116.413C36.5906 117.616 35.5256 118.358 34.1821 118.64C32.8334 118.929 31.5418 118.67 30.3075 117.863C29.5653 117.378 28.9966 116.755 28.6014 115.995C28.1984 115.23 28.0177 114.432 28.0593 113.601L29.6755 113.687C29.6287 114.236 29.7396 114.766 30.0083 115.276C30.264 115.789 30.6497 116.214 31.1654 116.551C32.0404 117.123 32.9326 117.31 33.842 117.113C34.7436 116.91 35.4728 116.383 36.0294 115.532C36.586 114.68 36.776 113.801 36.5995 112.894C36.4152 111.982 35.8855 111.24 35.0105 110.668C34.4949 110.331 33.9496 110.142 33.3745 110.1C32.7943 110.067 32.266 110.184 31.7895 110.452L31.0543 109.019C31.7912 108.642 32.5935 108.48 33.4613 108.535C34.316 108.592 35.1184 108.865 35.8684 109.355Z" fill="#58C1D6"></path>
    <path d="M28.3311 105.39L25.4483 102.632L26.513 101.519L30.5591 105.391L23.7836 112.471L22.6204 111.358L28.3311 105.39Z" fill="#58C1D6"></path>
    <path d="M17.0761 105.321L16.0774 104.058L23.7646 97.9793L24.7632 99.2422L17.0761 105.321Z" fill="#58C1D6"></path>
    <path d="M9.71789 93.967L8.93057 92.5626L17.4789 87.7703L18.095 88.8693L14.5536 96.1512L20.3543 92.8992L21.1416 94.3036L12.5933 99.0959L11.9771 97.9969L15.5185 90.715L9.71789 93.967Z" fill="#58C1D6"></path>
    <path d="M7.26575 88.162L6.70937 86.6512L15.9056 83.2646L16.462 84.7754L7.26575 88.162Z" fill="#58C1D6"></path>
    <path d="M13.8543 74.3983C14.1302 75.847 13.8821 77.1388 13.1101 78.2739C12.329 79.4108 11.2324 80.1136 9.82047 80.3825C8.4085 80.6513 7.13497 80.3998 5.99987 79.6278C4.85561 78.8576 4.14556 77.7481 3.86972 76.2995C3.70387 75.4285 3.75741 74.5869 4.03034 73.7749C4.30152 72.9537 4.75082 72.2695 5.37824 71.7225L6.43778 72.9459C6.00989 73.2934 5.70555 73.7409 5.52477 74.2884C5.33307 74.8285 5.29483 75.4011 5.41005 76.0062C5.60558 77.0331 6.08993 77.8054 6.86311 78.3233C7.63454 78.832 8.51994 78.9912 9.51932 78.8009C10.5187 78.6106 11.2836 78.1372 11.8142 77.3806C12.3429 76.6148 12.5095 75.7185 12.314 74.6916C12.1988 74.0865 11.9565 73.5626 11.5872 73.1198C11.2087 72.6788 10.7575 72.38 10.2336 72.2232L10.7556 70.6986C11.5384 70.9676 12.2114 71.4333 12.7746 72.0956C13.3268 72.7506 13.6867 73.5181 13.8543 74.3983Z" fill="#58C1D6"></path>
    <path d="M9.65408 51.374C10.9465 51.5664 12.0003 52.1574 12.8154 53.1469L14.0204 52.2789L14.8642 53.5511L13.6115 54.4544C13.9614 55.3369 14.0682 56.2351 13.9322 57.149C13.7246 58.543 13.0633 59.6571 11.9483 60.4913C10.824 61.3241 9.56027 61.6361 8.15707 61.4271C6.75388 61.2182 5.64048 60.5522 4.81688 59.4294C3.98406 58.3051 3.67143 57.046 3.879 55.652C4.08658 54.2581 4.75249 53.1447 5.87675 52.3118C6.99178 51.4776 8.25089 51.165 9.65408 51.374ZM12.3813 56.9181C12.4582 56.4011 12.4242 55.9007 12.2793 55.4167L10.2013 56.919L9.35751 55.6469L11.5309 54.0738C10.9709 53.462 10.2663 53.0929 9.41695 52.9664C8.42918 52.8193 7.55347 53.0286 6.78982 53.5943C6.02617 54.16 5.57287 54.9229 5.4299 55.883C5.28694 56.8431 5.4983 57.7049 6.064 58.4686C6.62969 59.2322 7.40643 59.6876 8.3942 59.8347C9.38198 59.9818 10.2577 59.7725 11.0213 59.2068C11.785 58.6411 12.2383 57.8782 12.3813 56.9181Z" fill="#58C1D6"></path>
    <path d="M10.8977 46.6845C11.0283 46.9438 11.0482 47.2109 10.9574 47.4856C10.8666 47.7603 10.6916 47.963 10.4322 48.0935C10.1728 48.2241 9.90573 48.244 9.63101 48.1532C9.34742 48.0595 9.14332 47.8889 9.0187 47.6413C8.88815 47.3819 8.86972 47.1104 8.96342 46.8268C9.05419 46.5521 9.22927 46.3494 9.48865 46.2189C9.74804 46.0883 10.0151 46.0685 10.2898 46.1592C10.5645 46.25 10.7672 46.4251 10.8977 46.6845ZM15.8827 48.3315C16.0132 48.5909 16.0331 48.8579 15.9424 49.1326C15.8516 49.4074 15.6765 49.61 15.4171 49.7406C15.1577 49.8711 14.8907 49.891 14.616 49.8002C14.3412 49.7095 14.1371 49.5388 14.0037 49.2883C13.8731 49.0289 13.8547 48.7574 13.9484 48.4738C14.0391 48.1991 14.2142 47.9965 14.4736 47.8659C14.733 47.7354 15 47.7155 15.2748 47.8062C15.5495 47.897 15.7521 48.0721 15.8827 48.3315Z" fill="#58C1D6"></path>
    <path d="M23.3308 34.8432C22.4953 36.0583 21.4026 36.7907 20.0528 37.0406C18.6953 37.2851 17.4244 37.0002 16.24 36.1858C15.0557 35.3714 14.3386 34.2893 14.0888 32.9395C13.8312 31.5844 14.1203 30.2993 14.9558 29.0842C15.4582 28.3536 16.094 27.7996 16.8631 27.4224C17.6376 27.0374 18.4398 26.8755 19.27 26.9366L19.1458 28.5503C18.5978 28.4906 18.0657 28.5891 17.5494 28.8457C17.0307 29.0894 16.5969 29.465 16.2478 29.9726C15.6555 30.8339 15.4473 31.7215 15.6232 32.6353C15.8043 33.5415 16.314 34.2827 17.1523 34.8592C17.9905 35.4356 18.8651 35.6462 19.7761 35.491C20.6923 35.3282 21.4465 34.8161 22.0388 33.9547C22.3878 33.4472 22.5898 32.9064 22.6446 32.3325C22.6918 31.7532 22.5868 31.2223 22.3297 30.7397L23.7805 30.0382C24.14 30.7838 24.2824 31.5897 24.2078 32.4559C24.1308 33.3091 23.8385 34.1049 23.3308 34.8432Z" fill="#58C1D6"></path>
    <path d="M27.4717 27.3958L30.2971 24.5785L31.3845 25.669L27.419 29.6231L20.4993 22.6834L21.6394 21.5466L27.4717 27.3958Z" fill="#58C1D6"></path>
    <path d="M27.8039 16.1499L29.0898 15.1812L34.9863 23.0088L33.7004 23.9775L27.8039 16.1499Z" fill="#58C1D6"></path>
    <path d="M39.3283 9.05918L40.7508 8.30503L45.3413 16.9634L44.2281 17.5536L37.0313 13.8424L40.1463 19.7177L38.7238 20.4718L34.1333 11.8135L35.2465 11.2233L42.4433 14.9345L39.3283 9.05918Z" fill="#58C1D6"></path>
    <path d="M45.1919 6.74222L46.7153 6.22143L49.8853 15.4946L48.3619 16.0154L45.1919 6.74222Z" fill="#58C1D6"></path>
    <path d="M58.7979 13.6535C57.3432 13.8953 56.0575 13.617 54.9408 12.8186C53.8226 12.011 53.1457 10.8983 52.91 9.48037C52.6744 8.06248 52.9557 6.79521 53.7541 5.67853C54.551 4.55265 55.6768 3.86882 57.1315 3.62704C58.0061 3.48167 58.8462 3.55494 59.6516 3.84684C60.4662 4.1372 61.1396 4.60243 61.6718 5.24251L60.4238 6.27306C60.0865 5.83714 59.6462 5.52239 59.1032 5.32881C58.5678 5.12449 57.9962 5.07283 57.3886 5.17383C56.3574 5.34521 55.5738 5.81131 55.038 6.57213C54.5114 7.33141 54.3314 8.21284 54.4982 9.2164C54.665 10.22 55.1204 10.9958 55.8643 11.5439C56.6175 12.0905 57.5096 12.2781 58.5408 12.1067C59.1485 12.0057 59.6779 11.7758 60.1292 11.417C60.579 11.0489 60.8883 10.6049 61.0574 10.0848L62.5692 10.6424C62.282 11.4187 61.8006 12.0806 61.1253 12.6281C60.4576 13.1648 59.6818 13.5066 58.7979 13.6535Z" fill="#58C1D6"></path>
    <path d="M81.9124 9.99273C81.6897 11.2803 81.0741 12.3199 80.0658 13.1116L80.9053 14.3366L79.6136 15.1504L78.7399 13.8768C77.8495 14.2059 76.949 14.2916 76.0385 14.1342C74.6498 13.8939 73.5516 13.2067 72.7438 12.0724C71.9375 10.9289 71.6553 9.65821 71.8971 8.2603C72.1389 6.8624 72.8308 5.76493 73.9727 4.9679C75.1162 4.16167 76.3823 3.87866 77.771 4.11888C79.1597 4.3591 80.2572 5.05095 81.0634 6.19444C81.8712 7.32873 82.1542 8.59482 81.9124 9.99273ZM76.3058 12.5891C76.8208 12.6782 77.322 12.6559 77.8092 12.5224L76.356 10.4098L77.6476 9.596L79.1692 11.8057C79.794 11.2602 80.1796 10.5644 80.326 9.71831C80.4962 8.73426 80.3075 7.85388 79.7598 7.07717C79.2122 6.30046 78.4602 5.82939 77.5037 5.66394C76.5473 5.49849 75.6807 5.68958 74.904 6.2372C74.1273 6.78483 73.6538 7.55067 73.4836 8.53472C73.3133 9.51878 73.5021 10.3992 74.0497 11.1759C74.5973 11.9526 75.3493 12.4236 76.3058 12.5891Z" fill="#58C1D6"></path>
    <path d="M86.5698 11.3471C86.3074 11.4716 86.0399 11.4852 85.7674 11.388C85.4949 11.2908 85.2964 11.111 85.172 10.8487C85.0476 10.5863 85.0339 10.3188 85.1311 10.0463C85.2315 9.76499 85.4068 9.56495 85.6573 9.44617C85.9197 9.32175 86.1915 9.30969 86.4728 9.41002C86.7454 9.50721 86.9438 9.68699 87.0683 9.94936C87.1927 10.2117 87.2063 10.4792 87.1091 10.7517C87.0119 11.0242 86.8321 11.2227 86.5698 11.3471ZM84.8063 16.2921C84.5439 16.4165 84.2764 16.4301 84.0039 16.3329C83.7314 16.2358 83.5329 16.056 83.4085 15.7936C83.2841 15.5312 83.2704 15.2638 83.3676 14.9913C83.4648 14.7187 83.6402 14.5187 83.8938 14.3911C84.1562 14.2667 84.428 14.2546 84.7093 14.355C84.9818 14.4522 85.1803 14.6319 85.3047 14.8943C85.4292 15.1567 85.4428 15.4241 85.3456 15.6967C85.2484 15.9692 85.0686 16.1677 84.8063 16.2921Z" fill="#58C1D6"></path>
    <path d="M98.1182 24.0542C96.9231 23.1904 96.2164 22.0808 95.9983 20.7255C95.7857 19.3627 96.1004 18.0988 96.9423 16.9339C97.7843 15.7689 98.8829 15.0774 100.238 14.8593C101.599 14.6337 102.877 14.9528 104.072 15.8166C104.791 16.336 105.33 16.9846 105.689 17.7624C106.055 18.5456 106.198 19.3515 106.118 20.18L104.508 20.018C104.58 19.4715 104.494 18.9372 104.25 18.4151C104.018 17.8908 103.653 17.4483 103.154 17.0874C102.306 16.4751 101.424 16.2461 100.506 16.4005C99.5962 16.5603 98.8431 17.0525 98.2472 17.877C97.6513 18.7015 97.4202 19.5709 97.5539 20.4852C97.6953 21.405 98.1895 22.1711 99.0367 22.7834C99.536 23.1442 100.072 23.3588 100.644 23.4271C101.222 23.4879 101.756 23.3954 102.244 23.1496L102.911 24.6165C102.157 24.9584 101.348 25.0819 100.484 24.987C99.6331 24.89 98.8444 24.5791 98.1182 24.0542Z" fill="#58C1D6"></path>
    <path d="M105.461 28.3693L108.211 31.2601L107.096 32.3216L103.236 28.2644L110.336 21.5094L111.445 22.6759L105.461 28.3693Z" fill="#58C1D6"></path>
    <path d="M116.701 28.966L117.639 30.2743L109.676 35.9856L108.737 34.6772L116.701 28.966Z" fill="#58C1D6"></path>
    <path d="M123.518 40.6527L124.239 42.0925L115.475 46.4786L114.911 45.3518L118.79 38.2441L112.843 41.2204L112.123 39.7806L120.887 35.3945L121.451 36.5213L117.571 43.629L123.518 40.6527Z" fill="#58C1D6"></path>
    <path d="M125.696 46.5702L126.181 48.1054L116.836 51.057L116.351 49.5217L125.696 46.5702Z" fill="#58C1D6"></path>
    <path d="M118.469 60.0074C118.261 58.5475 118.57 57.2686 119.394 56.171C120.228 55.072 121.356 54.4214 122.779 54.2191C124.202 54.0168 125.462 54.3278 126.56 55.1521C127.667 55.9752 128.324 57.1167 128.532 58.5767C128.657 59.4545 128.564 60.2926 128.253 61.091C127.944 61.8986 127.463 62.5609 126.81 63.0778L125.809 61.8061C126.253 61.479 126.578 61.0463 126.784 60.5079C127.001 59.9774 127.066 59.4073 126.979 58.7974C126.832 57.7625 126.385 56.9682 125.637 56.4147C124.89 55.8704 124.013 55.6698 123.006 55.813C121.999 55.9563 121.212 56.3933 120.647 57.1242C120.083 57.8643 119.874 58.7518 120.021 59.7867C120.108 60.3966 120.326 60.9313 120.674 61.3909C121.031 61.8491 121.468 62.1688 121.984 62.35L121.391 63.8484C120.621 63.543 119.971 63.0463 119.44 62.3582C118.919 61.6781 118.595 60.8945 118.469 60.0074Z" fill="#58C1D6"></path>
    <path d="M121.585 83.2015C120.303 82.9487 119.278 82.3089 118.51 81.2823L117.266 82.0928L116.483 80.7824L117.777 79.9388C117.468 79.0409 117.404 78.1387 117.583 77.2322C117.855 75.8495 118.568 74.7676 119.721 73.9866C120.883 73.2075 122.16 72.9551 123.552 73.2297C124.944 73.5042 126.025 74.2216 126.795 75.3819C127.574 76.544 127.827 77.8164 127.555 79.1991C127.282 80.5817 126.564 81.6627 125.402 82.4419C124.249 83.2228 122.977 83.4761 121.585 83.2015ZM119.121 77.5356C119.02 78.0484 119.03 78.5499 119.152 79.0401L121.299 77.6369L122.082 78.9472L119.837 80.4166C120.368 81.054 121.054 81.4558 121.897 81.622C122.876 81.8152 123.761 81.6472 124.55 81.118C125.34 80.5887 125.828 79.8479 126.016 78.8956C126.204 77.9433 126.033 77.0725 125.504 76.2831C124.975 75.4938 124.22 75.0025 123.24 74.8092C122.261 74.616 121.376 74.784 120.587 75.3132C119.797 75.8425 119.309 76.5833 119.121 77.5356Z" fill="#58C1D6"></path>
    <path d="M120.123 87.826C120.005 87.5608 119.997 87.2931 120.101 87.023C120.204 86.7528 120.389 86.5586 120.654 86.4403C120.919 86.3221 121.187 86.3148 121.457 86.4183C121.736 86.5252 121.932 86.7052 122.045 86.9584C122.163 87.2236 122.169 87.4957 122.062 87.7746C121.958 88.0447 121.774 88.2389 121.509 88.3572C121.243 88.4754 120.976 88.4828 120.706 88.3792C120.435 88.2757 120.241 88.0913 120.123 87.826ZM115.221 85.947C115.102 85.6818 115.095 85.4141 115.199 85.1439C115.302 84.8738 115.487 84.6796 115.752 84.5613C116.017 84.4431 116.285 84.4357 116.555 84.5393C116.825 84.6429 117.021 84.8229 117.143 85.0794C117.261 85.3446 117.266 85.6167 117.16 85.8955C117.056 86.1657 116.872 86.3599 116.606 86.4782C116.341 86.5964 116.073 86.6037 115.803 86.5002C115.533 86.3966 115.339 86.2122 115.221 85.947Z" fill="#58C1D6"></path>
    <path d="M107.148 99.0755C108.04 97.9009 109.166 97.2205 110.526 97.0343C111.893 96.8537 113.149 97.1979 114.294 98.067C115.439 98.936 116.104 100.051 116.291 101.411C116.484 102.776 116.135 104.046 115.244 105.221C114.708 105.927 114.047 106.451 113.261 106.792C112.469 107.14 111.66 107.264 110.834 107.164L111.033 105.558C111.578 105.643 112.114 105.57 112.642 105.338C113.171 105.118 113.622 104.764 113.995 104.273C114.627 103.44 114.876 102.564 114.744 101.642C114.605 100.729 114.131 99.9645 113.321 99.3494C112.51 98.7342 111.647 98.4828 110.729 98.5951C109.806 98.7148 109.029 99.191 108.397 100.024C108.025 100.514 107.797 101.045 107.716 101.616C107.641 102.192 107.721 102.727 107.956 103.221L106.474 103.854C106.149 103.092 106.045 102.281 106.16 101.419C106.277 100.57 106.606 99.7892 107.148 99.0755Z" fill="#58C1D6"></path>
    <path d="M102.662 106.314L99.7078 108.995L98.6727 107.855L102.819 104.091L109.406 111.348L108.214 112.43L102.662 106.314Z" fill="#58C1D6"></path>
    <path d="M101.802 117.538L100.472 118.445L94.9492 110.35L96.2792 109.442L101.802 117.538Z" fill="#58C1D6"></path>
    <path d="M89.9578 124.078L88.5015 124.765L84.3222 115.9L85.4618 115.363L92.4766 119.408L89.6407 113.393L91.0969 112.706L95.2762 121.57L94.1366 122.108L87.1218 118.063L89.9578 124.078Z" fill="#58C1D6"></path>
    <path d="M83.9921 126.114L82.4459 126.563L79.7144 117.151L81.2605 116.702L83.9921 126.114Z" fill="#58C1D6"></path>
    <path d="M70.7256 118.577C72.19 118.404 73.4613 118.742 74.5392 119.592C75.6183 120.451 76.2423 121.594 76.4112 123.022C76.5801 124.449 76.2396 125.702 75.3897 126.78C74.5409 127.867 73.3843 128.497 71.9199 128.67C71.0394 128.775 70.2037 128.662 69.4128 128.333C68.6127 128.004 67.9619 127.508 67.4603 126.844L68.7552 125.873C69.0718 126.324 69.4968 126.659 70.0302 126.878C70.5554 127.107 71.1239 127.186 71.7356 127.113C72.7737 126.99 73.5782 126.562 74.1492 125.827C74.7109 125.093 74.9319 124.221 74.8124 123.211C74.6928 122.2 74.2744 121.404 73.557 120.822C72.8303 120.24 71.9479 120.011 70.9098 120.134C70.2981 120.206 69.7584 120.411 69.2908 120.748C68.8243 121.095 68.4944 121.524 68.3012 122.036L66.8171 121.408C67.1405 120.646 67.6524 120.007 68.3527 119.492C69.0448 118.987 69.8358 118.682 70.7256 118.577Z" fill="#58C1D6"></path>
  </symbol>
  <symbol fill="none" xmlns="http://www.w3.org/2000/svg" viewBox="0 0 15 15" id="plus">
    <path d="M15 6.03488V8.93023H8.93023V15H6.03488V8.93023H0V6.03488H6.03488V0H8.93023V6.03488H15Z" fill="#58C1D6"></path>
  </symbol>
  <symbol xmlns="http://www.w3.org/2000/svg" viewBox="0 0 25 25" id="instagram">
    <path d="M12.4966 8.33156C10.2014 8.33156 8.32828 10.2047 8.32828 12.5C8.32828 14.7953 10.2014 16.6684 12.4966 16.6684C14.7919 16.6684 16.665 14.7953 16.665 12.5C16.665 10.2047 14.7919 8.33156 12.4966 8.33156ZM24.9986 12.5C24.9986 10.7738 25.0142 9.0633 24.9173 7.34026C24.8204 5.33891 24.3638 3.56271 22.9004 2.09922C21.4338 0.632607 19.6607 0.179176 17.6594 0.082235C15.9333 -0.0147055 14.2228 0.000930142 12.4998 0.000930142C10.7736 0.000930142 9.06313 -0.0147055 7.34013 0.082235C5.33881 0.179176 3.56265 0.635734 2.09918 2.09922C0.632595 3.56584 0.179172 5.33891 0.0822335 7.34026C-0.0147052 9.06643 0.000930124 10.777 0.000930124 12.5C0.000930124 14.223 -0.0147052 15.9367 0.0822335 17.6597C0.179172 19.6611 0.635722 21.4373 2.09918 22.9008C3.56577 24.3674 5.33881 24.8208 7.34013 24.9178C9.06626 25.0147 10.7768 24.9991 12.4998 24.9991C14.2259 24.9991 15.9364 25.0147 17.6594 24.9178C19.6607 24.8208 21.4369 24.3643 22.9004 22.9008C24.3669 21.4342 24.8204 19.6611 24.9173 17.6597C25.0174 15.9367 24.9986 14.2262 24.9986 12.5ZM12.4966 18.9137C8.94743 18.9137 6.08305 16.0493 6.08305 12.5C6.08305 8.95073 8.94743 6.08629 12.4966 6.08629C16.0458 6.08629 18.9102 8.95073 18.9102 12.5C18.9102 16.0493 16.0458 18.9137 12.4966 18.9137ZM19.1729 7.3215C18.3442 7.3215 17.675 6.6523 17.675 5.82361C17.675 4.99493 18.3442 4.32573 19.1729 4.32573C20.0016 4.32573 20.6708 4.99493 20.6708 5.82361C20.671 6.02039 20.6324 6.21528 20.5572 6.39712C20.4821 6.57897 20.3717 6.74419 20.2326 6.88333C20.0935 7.02247 19.9282 7.1328 19.7464 7.20798C19.5646 7.28317 19.3697 7.32175 19.1729 7.3215Z"></path>
  </symbol>
  <symbol xmlns="http://www.w3.org/2000/svg" viewBox="0 0 25 23" id="quote">
    <path d="M25 0.216897C21.5974 -0.384325 18.9981 0.26436 17.2023 2.16295C15.4379 4.06154 14.5558 6.87779 14.5558 10.6117V23H25V11.561H19.5652C19.3132 9.53582 19.5337 7.84291 20.2268 6.48225C20.9515 5.08995 22.3377 4.4729 24.3856 4.63112L25 0.216897ZM10.4442 0.216897C7.04159 -0.384325 4.44234 0.26436 2.6465 2.16295C0.882168 4.06154 0 6.87779 0 10.6117V23H10.4442V11.561H5.00945C4.7574 9.53582 4.97795 7.84291 5.67108 6.48225C6.39571 5.08995 7.78198 4.4729 9.82987 4.63112L10.4442 0.216897Z"></path>
  </symbol>
  <symbol xmlns="http://www.w3.org/2000/svg" viewBox="0 0 13 25" id="facebook">
    <path d="M10.6266 4.15104H13V0.176042C12.5905 0.121875 11.1823 0 9.54229 0C6.12032 0 3.77619 2.06979 3.77619 5.87396V9.375H0V13.8188H3.77619V25H8.40597V13.8198H12.0294L12.6046 9.37604H8.40488V6.31458C8.40597 5.03021 8.7656 4.15104 10.6266 4.15104Z"></path>
  </symbol>
  <symbol xmlns="http://www.w3.org/2000/svg" viewBox="0 0 15 14" id="star-rating">
    <path d="M7.5 0L9.18386 5.18237H14.6329L10.2245 8.38525L11.9084 13.5676L7.5 10.3647L3.09161 13.5676L4.77547 8.38525L0.367076 5.18237H5.81614L7.5 0Z"></path>
  </symbol>
  <symbol xmlns="http://www.w3.org/2000/svg" viewBox="0 0 12 11" id="star">
    <path d="M6 0L7.34708 4.1459H11.7063L8.17963 6.7082L9.52671 10.8541L6 8.2918L2.47329 10.8541L3.82037 6.7082L0.293661 4.1459H4.65292L6 0Z"></path>
  </symbol>
  <symbol xmlns="http://www.w3.org/2000/svg" viewBox="0 0 10 10" id="clock">
    <path d="M4.995 0C2.235 0 0 2.24 0 5C0 7.76 2.235 10 4.995 10C7.76 10 10 7.76 10 5C10 2.24 7.76 0 4.995 0ZM6.645 7.355L4.5 5.205V2.5H5.5V4.795L7.355 6.65L6.645 7.355Z"></path>
  </symbol>
  <symbol xmlns="http://www.w3.org/2000/svg" viewBox="0 0 20 17" id="arrow-right">
    <path fill-rule="evenodd" clip-rule="evenodd" d="M0 8.36776C0 8.05078 0.125921 7.74678 0.35006 7.52264C0.5742 7.2985 0.878198 7.17258 1.19518 7.17258H15.0425L9.91042 2.04288C9.686 1.81845 9.55992 1.51407 9.55992 1.19669C9.55992 0.879308 9.686 0.574925 9.91042 0.350502C10.1348 0.12608 10.4392 0 10.7566 0C11.074 0 11.3784 0.12608 11.6028 0.350502L18.7739 7.52158C18.8852 7.6326 18.9735 7.76449 19.0337 7.90969C19.094 8.05489 19.125 8.21056 19.125 8.36776C19.125 8.52497 19.094 8.68063 19.0337 8.82584C18.9735 8.97104 18.8852 9.10293 18.7739 9.21395L11.6028 16.385C11.3784 16.6094 11.074 16.7355 10.7566 16.7355C10.4392 16.7355 10.1348 16.6094 9.91042 16.385C9.686 16.1606 9.55992 15.8562 9.55992 15.5388C9.55992 15.2215 9.686 14.9171 9.91042 14.6926L15.0425 9.56294H1.19518C0.878198 9.56294 0.5742 9.43702 0.35006 9.21288C0.125921 8.98874 0 8.68474 0 8.36776Z"></path>
  </symbol>
  <symbol fill="none" xmlns="http://www.w3.org/2000/svg" viewBox="0 0 42 37" id="benef06">
    <path d="M28.8158 11.4873V32.504C28.8158 34.4403 27.2526 36.0001 25.3421 36.0001H4.47363C2.54977 36.0001 1 34.4268 1 32.504V11.5008H28.8158V11.4873Z" stroke="#344B6B" stroke-linecap="round" stroke-linejoin="round"></path>
    <path d="M39.2631 25.7414C40.2652 25.8489 41 26.8574 41 27.8659C41 29.1702 39.7307 30.1921 38.4081 30.1921C37.2992 30.1921 34.9345 29.2105 34.9345 25.8086C34.9345 22.0705 37.5263 15.549 37.5263 9.99564C37.5263 2.18329 32.1155 1 29.0293 1C23.9925 1 21.8816 5.38354 21.8816 8.8796C21.8816 9.57881 21.8816 11.4479 21.8816 11.4479" stroke="#344B6B" stroke-linecap="round" stroke-linejoin="round"></path>
    <path d="M19.2503 11.4873C19.2503 13.9077 17.2998 15.8708 14.8949 15.8708C12.4901 15.8708 10.5396 13.9077 10.5396 11.4873" stroke="#344B6B" stroke-linecap="round" stroke-linejoin="round"></path>
    <path d="M3.59155 8.86834V5.37228C3.59155 3.436 5.15469 1.87622 7.06518 1.87622H20.9864" stroke="#344B6B" stroke-linecap="round" stroke-linejoin="round"></path>
    <path d="M20.9867 1.86035H7.06543" stroke="#344B6B" stroke-linecap="round" stroke-linejoin="round"></path>
    <path d="M26.2104 8.86618V5.37012" stroke="#344B6B" stroke-linecap="round" stroke-linejoin="round"></path>
  </symbol>
  <symbol fill="none" xmlns="http://www.w3.org/2000/svg" viewBox="0 0 72 42" id="benef04">
    <path d="M1.46875 13.9185C2.49989 17.7544 4.91372 20.4911 5.52303 25.5608C6.57761 37.0909 10.0226 40.9941 12.1317 40.9941C13.4206 40.9941 14.4752 39.9847 14.4752 38.7509L16.2797 27.3329C16.3266 26.974 16.7484 25.2916 18.5529 25.2916C19.7012 25.2916 20.6855 26.1216 20.8027 27.2207L22.6072 38.7509C22.6072 39.9847 23.6618 40.9941 24.9507 40.9941C27.0833 40.9941 30.5048 37.2031 31.5594 25.5608C32.1218 20.8276 34.2779 18.1133 35.4027 14.6587" stroke="#344B6B" stroke-linecap="round" stroke-linejoin="round"></path>
    <path d="M36.0813 9.32231C35.6829 5.8902 33.3394 1 27.4572 1C23.5904 1 22.3249 3.44511 18.5519 3.44511C14.7788 3.44511 13.4665 1 9.62316 1C4.04561 1 1.72553 5.32941 1.13965 8.69423" stroke="#344B6B" stroke-linecap="round" stroke-linejoin="round"></path>
    <path d="M16.2737 3.18701C16.332 3.24474 16.4253 3.30248 16.5069 3.37176C16.5886 3.42949 16.6702 3.49878 16.7519 3.55651C16.9152 3.67198 17.0901 3.78746 17.2651 3.90293C17.615 4.12233 17.9766 4.33018 18.3382 4.51494C18.7115 4.69969 19.0847 4.86135 19.4696 4.98837C19.8545 5.11539 20.2511 5.20776 20.6477 5.24241H20.6594C20.8693 5.2655 21.021 5.45027 20.9976 5.65812C20.9743 5.84287 20.8227 5.99298 20.636 5.99298C20.1578 6.01607 19.6913 5.98144 19.2247 5.90061C18.7698 5.81978 18.3266 5.69276 17.8833 5.55419C17.4517 5.40407 17.0202 5.24241 16.6119 5.04611C16.402 4.95373 16.2037 4.84981 15.9937 4.74588C15.8887 4.69969 15.7954 4.64195 15.6905 4.58422C15.5855 4.52648 15.4922 4.48029 15.3755 4.41101L15.3639 4.39947C15.0023 4.18007 14.8973 3.71818 15.1072 3.36021C15.3289 3.00225 15.7954 2.89832 16.157 3.10617C16.2037 3.14081 16.2387 3.16391 16.2737 3.18701Z" fill="#344B6B"></path>
    <path d="M71 8.62692C70.3907 5.2621 68.0472 1 62.5166 1C58.6498 1 57.3843 3.44511 53.6112 3.44511C49.8382 3.44511 48.5258 1 44.6825 1C38.73 1 36.4099 5.8902 36.0583 9.32231" stroke="#344B6B" stroke-linecap="round" stroke-linejoin="round"></path>
    <path d="M36.7151 14.4851C37.8165 18.0294 40.0195 20.7437 40.6053 25.5666C41.6599 37.0968 45.1048 41 47.214 41C48.5029 41 49.5575 39.9905 49.5575 38.7568L51.362 27.3388C51.4089 26.9799 51.8307 25.2975 53.6352 25.2975C54.7835 25.2975 55.7678 26.1274 55.885 27.2266L57.6895 38.7568C57.6895 39.9905 58.744 41 60.033 41C62.1655 41 65.5871 37.2089 66.6416 25.5666C67.2509 20.5194 69.6648 17.7602 70.6959 13.9468" stroke="#344B6B" stroke-linecap="round" stroke-linejoin="round"></path>
    <path d="M51.2737 3.18701C51.332 3.24474 51.4253 3.30248 51.5069 3.37176C51.5886 3.42949 51.6703 3.49878 51.7519 3.55651C51.9152 3.67198 52.0901 3.78746 52.2651 3.90293C52.615 4.12233 52.9766 4.33018 53.3382 4.51494C53.7115 4.69969 54.0847 4.86135 54.4696 4.98837C54.8545 5.11539 55.2511 5.20776 55.6477 5.24241H55.6594C55.8693 5.2655 56.021 5.45027 55.9976 5.65812C55.9743 5.84287 55.8227 5.99298 55.636 5.99298C55.1578 6.01607 54.6913 5.98144 54.2247 5.90061C53.7698 5.81978 53.3266 5.69276 52.8833 5.55419C52.4517 5.40407 52.0202 5.24241 51.6119 5.04611C51.402 4.95373 51.2037 4.84981 50.9937 4.74588C50.8888 4.69969 50.7954 4.64195 50.6905 4.58422C50.5855 4.52648 50.4922 4.48029 50.3755 4.41101L50.3639 4.39947C50.0023 4.18007 49.8973 3.71818 50.1072 3.36021C50.3289 3.00225 50.7954 2.89832 51.157 3.10617C51.2153 3.14081 51.2503 3.16391 51.2737 3.18701Z" fill="#344B6B"></path>
    <path d="M20.8253 10.915H14.7322V16.7474H20.8253V10.915Z" stroke="#344B6B" stroke-linecap="round" stroke-linejoin="round"></path>
    <path d="M56.6578 10.915H50.5647V16.7474H56.6578V10.915Z" stroke="#344B6B" stroke-linecap="round" stroke-linejoin="round"></path>
    <path d="M50.5658 13.8325H20.8267" stroke="#344B6B" stroke-linecap="round" stroke-linejoin="round"></path>
    <path d="M14.8029 14.2097H1" stroke="#344B6B" stroke-linecap="round" stroke-linejoin="round"></path>
    <path d="M70.0149 14.21H56.2119" stroke="#344B6B" stroke-linecap="round" stroke-linejoin="round"></path>
  </symbol>
  <symbol fill="none" xmlns="http://www.w3.org/2000/svg" viewBox="0 0 42 42" id="benef05">
    <path d="M30.1358 17.0954C31.0501 14.954 31.8837 12.8686 31.8837 9.97144C31.8837 6.73836 30.0552 1 24.2871 1C20.8855 1 19.7696 3.35133 16.4486 3.35133C13.1411 3.35133 11.9713 1 8.59656 1C2.82855 1 1 6.73836 1 9.97144C1 15.7238 4.29408 18.2991 4.97979 24.5133C5.90751 35.5421 8.9327 39.2791 10.7881 39.2791C11.931 39.2791 12.8587 38.3134 12.8587 37.1237L14.4452 26.2068C14.4856 25.8569 14.8486 24.2474 16.4351 24.2474C17.457 24.2474 18.304 25.0451 18.4116 26.0948L19.9981 37.1237C19.9981 38.3134 20.9258 39.2791 22.0687 39.2791C23.0771 39.2791 24.4216 38.2294 25.5779 35.5281" stroke="#344B6B" stroke-linecap="round" stroke-linejoin="round"></path>
    <path d="M13.6122 1.78404C13.7467 1.88201 13.8945 2.00798 14.0424 2.11995C14.1903 2.23192 14.3517 2.34388 14.4996 2.45585C14.8088 2.67978 15.1181 2.88972 15.4407 3.08567C16.0727 3.49155 16.7315 3.86945 17.4037 4.19136C18.076 4.51327 18.7617 4.80718 19.4743 5.03112C20.1869 5.24106 20.8995 5.39502 21.6256 5.451H21.639C21.881 5.465 22.0692 5.68893 22.0424 5.94086C22.0289 6.17879 21.8407 6.36074 21.6121 6.36074C20.792 6.38874 19.9852 6.29076 19.192 6.1368C18.3987 5.96885 17.6323 5.73092 16.8928 5.451C16.1399 5.17108 15.4139 4.83517 14.7013 4.48527C14.3382 4.30332 13.9887 4.12138 13.6391 3.91144C13.4643 3.81347 13.2895 3.71549 13.1147 3.60352C12.9399 3.49156 12.7786 3.39358 12.5903 3.26762C12.187 3.00169 12.066 2.42785 12.3214 2.00797C12.5769 1.58809 13.1282 1.46213 13.5315 1.72805C13.5584 1.74205 13.5853 1.77004 13.6122 1.78404Z" fill="#344B6B"></path>
    <path d="M32.0927 18.959L32.1983 19.0706C34.5736 21.6234 37.6615 23.3113 41.0001 23.8554V25.9339C41.0001 33.0065 37.3843 37.7215 32.0135 40.9997C26.6427 37.7076 22.9609 32.9507 22.9609 25.9339V23.8554L23.2117 23.8135C26.4051 23.2834 29.3611 21.735 31.6968 19.3635L32.0927 18.959Z" stroke="#344B6B" stroke-miterlimit="10" stroke-linecap="round" stroke-linejoin="round"></path>
  </symbol>
  <symbol fill="none" xmlns="http://www.w3.org/2000/svg" viewBox="0 0 42 42" id="benef03">
    <path d="M14.3128 22.744H29.4883L39.4276 32.4533C40.3163 33.3213 40.2889 34.737 39.3593 35.565C38.4843 36.3396 37.1445 36.3129 36.3105 35.4982L27.711 27.0978H11.6879L1.63919 17.2817C0.791549 16.4537 0.79155 15.1315 1.61185 14.2901C2.45949 13.4354 3.854 13.422 4.71531 14.2634L11.6879 21.0212" stroke="#344B6B" stroke-linecap="round" stroke-linejoin="round"></path>
    <path d="M11.6875 27.0962L16.1581 19.27H26.0701" stroke="#344B6B" stroke-linecap="round" stroke-linejoin="round"></path>
    <path d="M13.4661 27.9667V31.4391H25.9346V27.0986" stroke="#344B6B" stroke-linecap="round" stroke-linejoin="round"></path>
    <path d="M10.7993 40.1299V40.998H28.5998V40.1299C28.5998 38.6875 27.4104 37.5256 25.9338 37.5256H13.479C11.9888 37.5256 10.7993 38.6875 10.7993 40.1299Z" stroke="#344B6B" stroke-linecap="round" stroke-linejoin="round"></path>
    <path d="M15.1887 31.4639V35.2568" stroke="#344B6B" stroke-linecap="round" stroke-linejoin="round"></path>
    <path d="M24.5388 31.4639V35.2568" stroke="#344B6B" stroke-linecap="round" stroke-linejoin="round"></path>
    <path d="M28.6001 40.9995H37.6097V36.9529" stroke="#344B6B" stroke-linecap="round" stroke-linejoin="round"></path>
    <path d="M37.6082 27.0976V13.916H24.0869V16.6538" stroke="#344B6B" stroke-linecap="round" stroke-linejoin="round"></path>
    <path d="M20.5884 1H35.7229C38.635 1 41.0002 3.31046 41.0002 6.15513V18.5088H37.6916" stroke="#344B6B" stroke-linecap="round" stroke-linejoin="round"></path>
    <path d="M28.8186 9.6413C27.6155 6.14223 24.2386 3.60474 20.2464 3.60474C16.2543 3.60474 12.8774 6.12887 11.6743 9.6413H28.8186Z" stroke="#344B6B" stroke-linecap="round" stroke-linejoin="round"></path>
    <path d="M18.5779 3.61763V1H22.1462V3.61763" stroke="#344B6B" stroke-linecap="round" stroke-linejoin="round"></path>
  </symbol>
  <symbol fill="none" xmlns="http://www.w3.org/2000/svg" viewBox="0 0 22 41" id="benef02">
    <path d="M5.9398 10.9112C8.66798 10.9112 10.8796 8.61016 10.8796 5.77165C10.8796 2.93314 8.66798 0.63208 5.9398 0.63208C3.21161 0.63208 1 2.93314 1 5.77165C1 8.61016 3.21161 10.9112 5.9398 10.9112Z" stroke="#344B6B" stroke-linecap="round" stroke-linejoin="round"></path>
    <path d="M5.9397 10.8984V20.3101" stroke="#344B6B" stroke-linecap="round" stroke-linejoin="round"></path>
    <path d="M7.58191 40.0003H4.29712V22.0316C4.29712 21.0851 5.02988 20.3228 5.93952 20.3228C6.84915 20.3228 7.58191 21.0851 7.58191 22.0316V40.0003Z" stroke="#344B6B" stroke-linecap="round" stroke-linejoin="round"></path>
    <path d="M18.1704 0.117271L20.8216 3.73545C21.0006 3.98097 21.0536 4.45909 20.9409 4.82091L20.9343 4.84676L19.211 10.3128L19.2773 9.87344V19.9656C19.2773 20.4308 19.0851 20.8055 18.8465 20.8055C18.6079 20.8055 18.4157 20.4308 18.4157 19.9656V9.87344C18.4157 9.71837 18.4422 9.56332 18.482 9.4341L20.2052 3.96805L20.3113 5.07935L17.786 1.1252C17.6468 0.905523 17.627 0.504936 17.7396 0.233572C17.839 -0.024869 18.0313 -0.0765605 18.1704 0.117271Z" fill="#344B6B"></path>
    <path d="M20.7465 40.0003H17.4617V22.0316C17.4617 21.0851 18.1944 20.3228 19.1041 20.3228C20.0137 20.3228 20.7465 21.0851 20.7465 22.0316V40.0003Z" stroke="#344B6B" stroke-linecap="round" stroke-linejoin="round"></path>
  </symbol>
  <symbol fill="none" xmlns="http://www.w3.org/2000/svg" viewBox="0 0 42 42" id="benef01">
    <path d="M12.1005 7.37227C10.965 6.81115 9.86969 6.20996 8.18659 6.20996C2.72318 6.20996 1 11.4337 1 14.3595C1 19.5965 4.11241 21.9345 4.76695 27.5724C5.63521 37.5923 8.50718 40.9857 10.2704 40.9857C11.3524 40.9857 12.2341 40.1039 12.2341 39.0218L13.7301 29.0954C13.7702 28.7748 14.1175 27.3185 15.6136 27.3185C16.5754 27.3185 17.3769 28.04 17.4837 29.0019L18.9932 39.0351C18.9932 40.1173 19.8748 40.999 20.9568 40.999C22.7468 40.999 25.5787 37.6992 26.4603 27.5857C26.7141 25.4348 27.235 24.1255 27.8896 22.3754" stroke="#344B6B" stroke-linecap="round" stroke-linejoin="round"></path>
    <path d="M15.0391 8.29361C15.2929 8.32033 15.3196 8.34705 15.6001 8.34705C18.7392 8.34705 19.7945 6.20947 23.0138 6.20947C28.4772 6.20947 30.2004 11.4332 30.2004 14.359C30.2004 16.4031 29.7729 17.5787 29.3989 18.7811" stroke="#344B6B" stroke-linecap="round" stroke-linejoin="round"></path>
    <path d="M15.2521 8.25038C16.067 8.74469 16.9085 9.18557 17.7902 9.54629C18.6718 9.89364 19.5801 10.1608 20.5018 10.241C20.7423 10.2544 20.9159 10.4681 20.9026 10.7086C20.8892 10.9223 20.7155 11.096 20.5018 11.1094C19.4465 11.1762 18.4046 11.0292 17.3894 10.7888C16.3742 10.5483 15.3991 10.2009 14.4507 9.80012C14.0098 9.61308 13.7961 9.10541 13.9831 8.65117C14.1701 8.2103 14.6777 7.99654 15.1319 8.18358C15.1854 8.2103 15.2254 8.22366 15.2521 8.25038Z" fill="#344B6B"></path>
    <path d="M24.8734 22.7499C30.8786 22.7499 35.7468 17.881 35.7468 11.8749C35.7468 5.86887 30.8786 1 24.8734 1C18.8682 1 14 5.86887 14 11.8749C14 17.881 18.8682 22.7499 24.8734 22.7499Z" stroke="#344B6B" stroke-linecap="round" stroke-linejoin="round"></path>
    <path d="M32.4287 20.0476L41.0002 28.6191" stroke="#344B6B" stroke-linecap="round" stroke-linejoin="round"></path>
  </symbol>
  <symbol xmlns="http://www.w3.org/2000/svg" viewBox="0 0 27 27" id="mini-logo">
    <path d="M23.3358 26.6189C25.3246 26.6189 26.937 25.0206 26.937 23.048C26.937 21.0761 25.3246 19.4771 23.3358 19.4771C21.347 19.4771 19.7346 21.0761 19.7346 23.048C19.7353 25.0206 21.347 26.6189 23.3358 26.6189Z" ></path>
    <path d="M13.5 0C6.0451 0 0 5.99445 0 13.3867C0 20.779 6.0451 26.7735 13.5 26.7735C14.3452 26.7735 15.1712 26.6971 15.9723 26.5505C17.4448 26.2811 17.9468 24.5455 17.9468 23.0485C17.9468 20.098 20.3619 17.7034 23.3376 17.7034C24.8224 17.7034 26.5363 17.1882 26.7955 15.7262C26.9301 14.9667 27 14.1851 27 13.3867C27 5.99445 20.9549 0 13.5 0ZM13.5 21.3812C9.04971 21.3812 5.44151 17.7997 5.44151 13.3867C5.44151 8.97373 9.04971 5.39578 13.5 5.39578C17.9503 5.39578 21.5627 8.97373 21.5627 13.3867C21.5627 17.7997 17.951 21.3812 13.5 21.3812Z"></path>
  </symbol>
  <symbol xmlns="http://www.w3.org/2000/svg" viewBox="0 0 148 35" id="logo">
    <path d="M30.0527 34.7979C32.6139 34.7979 34.6904 32.7085 34.6904 30.1298C34.6904 27.552 32.6139 25.4617 30.0527 25.4617C27.4915 25.4617 25.415 27.552 25.415 30.1298C25.4159 32.7085 27.4915 34.7979 30.0527 34.7979Z" ></path>
    <path d="M17.3857 0C7.78507 0 0 7.83633 0 17.5C0 27.1637 7.78507 35 17.3857 35C19.7558 35 22.0089 34.5264 24.0673 33.6638C23.4621 32.6236 23.1124 31.4189 23.1124 30.1305C23.1124 26.2735 26.2226 23.143 30.0549 23.143C31.3124 23.143 32.4902 23.4805 33.5049 24.0709C34.3248 22.0412 34.7714 19.8249 34.7714 17.5C34.7714 7.83633 26.9864 0 17.3857 0ZM17.3857 27.9509C11.6545 27.9509 7.00774 23.269 7.00774 17.5C7.00774 11.731 11.6545 7.05371 17.3857 7.05371C23.1169 7.05371 27.7691 11.731 27.7691 17.5C27.7691 23.269 23.1178 27.9509 17.3857 27.9509Z" ></path>
    <path d="M59.5664 25.7675C59.0992 26.3528 58.5353 26.7971 57.8703 27.1047C57.2053 27.4102 56.4751 27.564 55.6797 27.564C54.6107 27.564 53.6427 27.3311 52.7799 26.8633C51.915 26.3977 50.928 25.5731 49.8169 24.3897C48.5144 24.2231 47.3507 23.798 46.3301 23.1166C45.3073 22.4352 44.5119 21.553 43.9437 20.4742C43.3734 19.3955 43.0894 18.2014 43.0894 16.892C43.0894 15.4587 43.4282 14.1663 44.1079 13.0192C44.7876 11.87 45.7261 10.9686 46.9256 10.3149C48.1251 9.6613 49.4718 9.33447 50.968 9.33447C52.4621 9.33447 53.8068 9.6613 55 10.3149C56.1931 10.9686 57.1317 11.87 57.8177 13.0192C58.5037 14.1685 58.8467 15.4587 58.8467 16.892C58.8467 18.5902 58.3774 20.0791 57.4368 21.3607C56.4983 22.6424 55.2525 23.5331 53.7037 24.033C54.0467 24.394 54.3792 24.6567 54.7011 24.8169C55.0231 24.9772 55.3703 25.0562 55.7407 25.0562C56.6329 25.0562 57.4137 24.693 58.0849 23.971L59.5664 25.7675ZM47.0476 19.3143C47.439 20.0235 47.9778 20.5789 48.6617 20.9741C49.3477 21.3714 50.1158 21.5701 50.9659 21.5701C51.8161 21.5701 52.5842 21.3714 53.2702 20.9741C53.9562 20.5768 54.4949 20.0235 54.8842 19.3143C55.2756 18.6052 55.4713 17.7977 55.4713 16.892C55.4713 15.9863 55.2756 15.1789 54.8842 14.4697C54.4928 13.7605 53.9541 13.2072 53.2702 12.8099C52.5842 12.4126 51.8161 12.2139 50.9659 12.2139C50.1158 12.2139 49.3477 12.4126 48.6617 12.8099C47.9756 13.2072 47.4369 13.7605 47.0476 14.4697C46.6562 15.1789 46.4605 15.9863 46.4605 16.892C46.4626 17.7977 46.6583 18.6052 47.0476 19.3143Z" ></path>
    <path d="M62.4663 16.2843C62.0812 15.8956 61.8896 15.4064 61.8896 14.8232C61.8896 14.2251 62.0812 13.7402 62.4663 13.3728C62.8492 13.0033 63.3227 12.8196 63.8867 12.8196C64.4485 12.8196 64.922 13.0033 65.3071 13.3728C65.6901 13.7424 65.8837 14.2251 65.8837 14.8232C65.8837 15.4085 65.6922 15.8956 65.3071 16.2843C64.922 16.6753 64.4507 16.8696 63.8867 16.8696C63.3227 16.8696 62.8492 16.6753 62.4663 16.2843ZM62.4663 23.7821C62.0812 23.3933 61.8896 22.9041 61.8896 22.321C61.8896 21.7229 62.0812 21.238 62.4663 20.8705C62.8492 20.501 63.3227 20.3173 63.8867 20.3173C64.4485 20.3173 64.922 20.5031 65.3071 20.8705C65.6901 21.2401 65.8837 21.7229 65.8837 22.321C65.8837 22.9063 65.6922 23.3933 65.3071 23.7821C64.922 24.173 64.4507 24.3673 63.8867 24.3673C63.3227 24.3673 62.8492 24.1708 62.4663 23.7821Z" ></path>
    <path d="M72.7411 23.4789C71.5543 22.8317 70.622 21.9345 69.9423 20.7853C69.2626 19.6361 68.9238 18.3395 68.9238 16.8912C68.9238 15.4429 69.2626 14.1442 69.9423 12.9971C70.622 11.8479 71.5543 10.9507 72.7411 10.3035C73.928 9.65623 75.26 9.33154 76.7415 9.33154C77.9894 9.33154 79.1173 9.5537 80.1253 10.0001C81.1333 10.4466 81.9792 11.0853 82.6652 11.9205L80.5251 13.9242C79.5508 12.7835 78.345 12.211 76.9035 12.211C76.0113 12.211 75.2158 12.4097 74.5172 12.807C73.8185 13.2043 73.2714 13.7575 72.8821 14.4667C72.4907 15.1759 72.295 15.9834 72.295 16.8891C72.295 17.7948 72.4907 18.6022 72.8821 19.3114C73.2735 20.0206 73.8185 20.576 74.5172 20.9712C75.2158 21.3685 76.0113 21.5671 76.9035 21.5671C78.3429 21.5671 79.5508 20.9904 80.5251 19.8348L82.6652 21.8384C81.9792 22.6886 81.1291 23.3358 80.1148 23.7801C79.1005 24.2244 77.9683 24.4487 76.7204 24.4487C75.2537 24.4509 73.9259 24.1262 72.7411 23.4789Z" ></path>
    <path d="M86.4526 9.58105H89.7859V21.4428H97.0059V24.1984H86.4526V9.58105Z" ></path>
    <path d="M100.42 9.58105H103.753V24.1984H100.42V9.58105Z" ></path>
    <path d="M121.917 9.58105V24.1984H119.181L112.001 15.3229V24.1984H108.71V9.58105H111.467L118.626 18.4566V9.58105H121.917Z" ></path>
    <path d="M126.877 9.58105H130.21V24.1984H126.877V9.58105Z" ></path>
    <path d="M138.076 23.4789C136.889 22.8317 135.957 21.9345 135.277 20.7853C134.597 19.6361 134.258 18.3395 134.258 16.8912C134.258 15.4429 134.597 14.1442 135.277 12.9971C135.957 11.8479 136.889 10.9507 138.076 10.3035C139.262 9.65623 140.594 9.33154 142.076 9.33154C143.324 9.33154 144.452 9.5537 145.46 10.0001C146.468 10.4466 147.314 11.0853 148 11.9205L145.86 13.9242C144.885 12.7835 143.679 12.211 142.238 12.211C141.346 12.211 140.55 12.4097 139.852 12.807C139.153 13.2043 138.606 13.7575 138.217 14.4667C137.825 15.1759 137.629 15.9834 137.629 16.8891C137.629 17.7948 137.825 18.6022 138.217 19.3114C138.608 20.0206 139.153 20.576 139.852 20.9712C140.55 21.3685 141.346 21.5671 142.238 21.5671C143.677 21.5671 144.885 20.9904 145.86 19.8348L148 21.8384C147.314 22.6886 146.464 23.3358 145.449 23.7801C144.435 24.2244 143.303 24.4487 142.055 24.4487C140.588 24.4509 139.262 24.1262 138.076 23.4789Z" ></path>
  </symbol>
  <symbol viewBox="0 0 130 130" xmlns="http://www.w3.org/2000/svg" id="pochustvuy-kachestvo">
	<path d="M129.437 74.6048L119.538 73.8509L119.664 72.2485L128.007 72.884L128.319 68.9129L119.975 68.2774L120.101 66.675L130 67.429L129.437 74.6048Z" />
	<path d="M118.506 83.7308C117.808 82.5307 117.647 81.2472 118.022 79.8804C118.398 78.5135 119.197 77.4814 120.417 76.7841C121.644 76.0982 122.951 75.9404 124.339 76.3109C125.726 76.6813 126.769 77.4665 127.467 78.6666C128.173 79.8781 128.337 81.1673 127.961 82.5342C127.586 83.901 126.784 84.9274 125.557 85.6133C124.336 86.3107 123.033 86.4741 121.645 86.1037C120.258 85.7333 119.212 84.9423 118.506 83.7308ZM121.184 78.1618C120.358 78.6362 119.815 79.3456 119.556 80.2898C119.296 81.234 119.402 82.1119 119.875 82.9233C120.354 83.7463 121.086 84.2893 122.072 84.5525C123.058 84.8157 123.963 84.7101 124.79 84.2356C125.622 83.7726 126.168 83.069 126.428 82.1248C126.688 81.1806 126.578 80.297 126.099 79.4741C125.627 78.6626 124.898 78.1253 123.912 77.8621C122.926 77.5989 122.017 77.6988 121.184 78.1618Z" />
	<path d="M122.774 95.4237L122.061 96.8693L113.13 92.5942L113.843 91.1486L117.275 92.7915C117.296 92.0453 117.474 91.3329 117.809 90.6541C118.243 89.7742 118.843 89.1758 119.609 88.8588C120.379 88.5543 121.177 88.5996 122.002 88.9945L125.191 90.5213L124.478 91.9669L121.442 90.5134C120.983 90.2935 120.553 90.2587 120.153 90.4091C119.753 90.5594 119.435 90.8734 119.2 91.3511C118.857 92.0466 118.687 92.7527 118.691 93.4694L122.774 95.4237Z" />
	<path d="M117.091 104.438L116.153 105.77L111.85 99.1341C110.798 97.5069 110.797 96.0376 111.848 94.7262L113.095 95.5791C112.73 95.9988 112.544 96.4101 112.536 96.8131C112.523 97.2238 112.674 97.6621 112.991 98.1281L120.643 99.3992L119.704 100.731L114.03 99.7408L117.091 104.438Z" />
	<path d="M107.147 108.522C106.683 108.679 106.222 108.71 105.765 108.616C105.307 108.522 104.89 108.299 104.513 107.946C103.924 107.394 103.632 106.729 103.639 105.951C103.646 105.173 103.936 104.487 104.509 103.893L107.44 100.854L114.637 107.593L111.921 110.409C111.361 110.99 110.697 111.3 109.928 111.339C109.161 111.391 108.492 111.151 107.923 110.618C107.3 110.034 107.041 109.336 107.147 108.522ZM110.811 109.37L112.403 107.718L110.511 105.947L108.919 107.598C108.671 107.855 108.552 108.154 108.561 108.497C108.576 108.846 108.718 109.145 108.985 109.396C109.253 109.646 109.56 109.767 109.908 109.758C110.262 109.756 110.563 109.626 110.811 109.37ZM105.619 104.933C105.359 105.203 105.237 105.519 105.253 105.881C105.269 106.256 105.418 106.575 105.699 106.839C105.98 107.102 106.307 107.229 106.682 107.219C107.056 107.223 107.374 107.09 107.635 106.82L109.442 104.946L107.427 103.059L105.619 104.933Z" />
	<path d="M97.3525 109.8C98.5575 108.929 99.8472 108.599 101.222 108.807C102.602 109.023 103.722 109.71 104.583 110.867C105.444 112.025 105.769 113.28 105.557 114.635C105.351 115.996 104.645 117.113 103.44 117.983C102.716 118.506 101.923 118.819 101.061 118.921C100.192 119.029 99.3703 118.918 98.5966 118.587L99.2542 117.107C99.7585 117.344 100.3 117.426 100.88 117.354C101.457 117.295 101.998 117.084 102.501 116.72C103.355 116.104 103.851 115.336 103.988 114.416C104.117 113.503 103.877 112.637 103.268 111.817C102.658 110.998 101.892 110.512 100.969 110.359C100.038 110.211 99.1458 110.445 98.2917 111.062C97.7883 111.426 97.4146 111.869 97.1705 112.392C96.9319 112.922 96.8551 113.457 96.9398 113.997L95.3179 114.18C95.223 113.359 95.3559 112.553 95.7165 111.761C96.075 110.982 96.6203 110.329 97.3525 109.8Z" />
	<path d="M91.1901 124.862L90.4824 123.492L92.9726 122.243L89.1766 114.895L90.6302 114.166L94.4263 121.514L96.9291 120.259L97.6369 121.629L91.1901 124.862Z" />
	<path d="M82.0161 123.097C81.5317 123.021 81.1102 122.835 80.7515 122.54C80.3928 122.245 80.1313 121.855 79.967 121.369C79.7102 120.608 79.7702 119.886 80.1473 119.203C80.5243 118.52 81.1076 118.049 81.8971 117.79L85.9345 116.465L89.0705 125.747L85.3292 126.974C84.5577 127.227 83.8236 127.193 83.127 126.872C82.4244 126.562 81.9492 126.041 81.7013 125.307C81.4295 124.502 81.5344 123.766 82.0161 123.097ZM84.8454 125.542L87.039 124.823L86.2147 122.383L84.0211 123.102C83.6801 123.214 83.4319 123.423 83.2763 123.73C83.1236 124.045 83.1056 124.375 83.222 124.72C83.3385 125.064 83.5522 125.313 83.8631 125.467C84.177 125.629 84.5045 125.654 84.8454 125.542ZM82.381 119.222C82.0221 119.339 81.7634 119.562 81.6048 119.889C81.4402 120.227 81.4191 120.578 81.5415 120.94C81.664 121.303 81.8926 121.567 82.2275 121.732C82.5563 121.909 82.9002 121.938 83.2591 121.821L85.7488 121.004L84.8707 118.405L82.381 119.222Z" />
	<path d="M73.4684 129.676L71.8456 129.943L73.6662 122.276C74.1148 120.398 75.1824 119.372 76.869 119.198L77.119 120.673C76.5594 120.709 76.1304 120.864 75.832 121.14C75.5243 121.418 75.3115 121.83 75.1936 122.379L79.6101 128.665L77.9872 128.933L74.7466 124.238L73.4684 129.676Z" />
	<path d="M62.6924 119.239V117.925H66.6639V119.239H62.6924ZM66.8341 130V123.362L62.1534 130H60.8768V120.217H62.508V126.856L67.1887 120.217H68.4652V130H66.8341Z" />
	<path d="M47.9774 117.906L49.8658 118.357L52.5564 123.789L53.6702 119.267L55.2554 119.646L52.9141 129.153L51.329 128.774L52.3792 124.509L47.6624 127.897L45.774 127.446L50.8154 123.747L47.9774 117.906Z" />
	<path d="M41.4205 115.244L41.2973 117.327L45.2024 118.92L46.6098 117.362L48.2478 118.03L41.12 125.71L39.3116 124.972L39.7955 114.581L41.4205 115.244ZM44.1183 120.112L41.2091 118.924L40.9486 123.598L44.1183 120.112Z" />
	<path d="M29.3838 119.707L28.0012 118.854L33.2695 110.562L34.6521 111.415L32.6275 114.601C33.3782 114.702 34.0782 114.952 34.7274 115.352C35.5689 115.871 36.1087 116.523 36.3467 117.307C36.5716 118.095 36.4408 118.871 35.9541 119.637L34.0726 122.599L32.69 121.746L34.4812 118.927C34.7521 118.5 34.8331 118.083 34.7242 117.675C34.6152 117.267 34.3323 116.922 33.8754 116.641C33.2102 116.23 32.5158 115.989 31.7921 115.916L29.3838 119.707Z" />
	<path d="M29.3516 109.472L26.0041 106.663L27.0156 105.493L31.6051 109.344L25.1677 116.791L20.6322 112.986L21.6438 111.815L24.9374 114.579L26.6111 112.643L23.5875 110.106L24.5899 108.946L27.6135 111.483L29.3516 109.472Z" />
	<path d="M23.1909 101.105C24.1555 102.23 24.5797 103.475 24.4635 104.84C24.3402 106.212 23.7224 107.36 22.6103 108.287C21.4983 109.213 20.2493 109.619 18.8634 109.505C17.4702 109.396 16.2914 108.78 15.3269 107.656C14.7469 106.98 14.3753 106.222 14.2119 105.382C14.0423 104.535 14.0983 103.72 14.3796 102.936L15.9235 103.48C15.719 103.992 15.6732 104.531 15.7862 105.095C15.8859 105.659 16.1372 106.176 16.5401 106.645C17.2238 107.442 18.0357 107.876 18.9757 107.947C19.9096 108.011 20.7702 107.715 21.5573 107.059C22.3444 106.404 22.7837 105.617 22.8752 104.699C22.9606 103.774 22.6615 102.913 21.9778 102.116C21.5749 101.646 21.1003 101.31 20.554 101.106C20.0005 100.908 19.4535 100.87 18.9132 100.99L18.6149 99.4087C19.4396 99.2586 20.2652 99.3334 21.0919 99.6331C21.9052 99.9316 22.6049 100.422 23.1909 101.105Z" />
	<path d="M7.53004 96.1457L8.86751 95.3541L10.3064 97.7141L17.48 93.4682L18.32 94.8459L11.1463 99.0918L12.5925 101.464L11.255 102.255L7.53004 96.1457Z" />
	<path d="M8.67479 87.0506C8.71801 86.5691 8.87604 86.1416 9.14889 85.7681C9.42173 85.3945 9.7984 85.1097 10.2789 84.9136C11.0302 84.607 11.7652 84.6146 12.4839 84.9365C13.2026 85.2583 13.7211 85.798 14.0396 86.5555L15.6678 90.429L6.49479 94.1724L4.98592 90.583C4.67474 89.8427 4.65702 89.1189 4.93276 88.4113C5.19615 87.6988 5.6904 87.1946 6.4155 86.8987C7.2105 86.5742 7.9636 86.6249 8.67479 87.0506ZM6.40119 90.0054L7.28589 92.11L9.69709 91.126L8.81239 89.0215C8.67489 88.6944 8.44553 88.4653 8.12431 88.3342C7.79435 88.2066 7.45902 88.2124 7.11831 88.3514C6.77759 88.4904 6.5407 88.7182 6.40764 89.0347C6.26584 89.3548 6.26369 89.6784 6.40119 90.0054ZM12.6243 87.1331C12.4795 86.7888 12.236 86.5503 11.8937 86.4177C11.539 86.2801 11.1826 86.2844 10.8244 86.4305C10.4663 86.5767 10.2155 86.8202 10.0722 87.1611C9.91656 87.4969 9.9111 87.8369 10.0558 88.1812L11.0599 90.5699L13.6284 89.5217L12.6243 87.1331Z" />
	<path d="M9.27811 74.5398C10.4513 75.2998 11.1834 76.3733 11.4742 77.7602C11.765 79.1471 11.5257 80.423 10.7562 81.5882C9.97548 82.746 8.88135 83.4682 7.47379 83.7548C6.06622 84.0413 4.77581 83.8046 3.60258 83.0445C2.41817 82.2772 1.68055 81.2001 1.38972 79.8132C1.09889 78.4263 1.34382 77.154 2.12451 75.9961C2.89403 74.831 3.98257 74.1052 5.39014 73.8186C6.79771 73.532 8.0937 73.7724 9.27811 74.5398ZM9.44025 80.7001C9.95997 79.9094 10.1194 79.0349 9.91847 78.0769C9.71757 77.1189 9.22045 76.3829 8.42712 75.8689C7.62262 75.3477 6.72031 75.1889 5.72019 75.3925C4.72008 75.5961 3.96016 76.0933 3.44044 76.8841C2.90954 77.6677 2.74455 78.5385 2.94545 79.4965C3.14635 80.4545 3.64906 81.1941 4.45356 81.7153C5.24689 82.2293 6.14362 82.3845 7.14373 82.1809C8.14385 81.9773 8.90935 81.4837 9.44025 80.7001Z" />
	<path d="M0.394415 59.3784L10.3087 59.9066L10.2206 61.5114L1.86429 61.0662L1.64602 65.0434L10.0023 65.4886L9.91424 67.0934L0 66.5652L0.394415 59.3784Z" />
	<path d="M11.1082 49.9739C11.8344 51.158 12.0254 52.4375 11.6811 53.8124C11.3369 55.1874 10.5628 56.2371 9.35875 56.9617C8.1478 57.675 6.84459 57.862 5.44912 57.5228C4.05365 57.1837 2.99282 56.422 2.26664 55.2379C1.53354 54.0426 1.3391 52.7574 1.68334 51.3825C2.02757 50.0075 2.80516 48.9634 4.01611 48.2501C5.22014 47.5256 6.51989 47.3329 7.91536 47.6721C9.31083 48.0112 10.3751 48.7785 11.1082 49.9739ZM8.55976 55.6016C9.37465 55.1087 9.90099 54.3874 10.1388 53.4376C10.3766 52.4878 10.25 51.6125 9.75891 50.8119C9.26096 49.9999 8.51622 49.4734 7.52471 49.2324C6.53319 48.9915 5.62998 49.1174 4.81509 49.6102C3.99329 50.0918 3.46349 50.8075 3.2257 51.7573C2.98791 52.7071 3.11799 53.588 3.61594 54.4C4.10698 55.2006 4.84826 55.7215 5.83978 55.9624C6.8313 56.2034 7.73796 56.0831 8.55976 55.6016Z" />
	<path d="M6.45395 38.6085L7.12836 37.1452L16.1687 41.1899L15.4943 42.6533L12.0202 41.0989C12.0189 41.8453 11.86 42.5621 11.5433 43.2492C11.1328 44.14 10.5488 44.7536 9.79141 45.09C9.0293 45.4142 8.23067 45.3894 7.39552 45.0158L4.16682 43.5712L4.84123 42.1079L7.91495 43.4831C8.37988 43.6911 8.81031 43.7148 9.20623 43.5543C9.60215 43.3938 9.91154 43.0717 10.1344 42.5882C10.4589 41.8841 10.6096 41.1739 10.5867 40.4576L6.45395 38.6085Z" />
	<path d="M12.0513 29.2136L12.9598 27.8621L17.4094 34.4033C18.4974 36.0074 18.5307 37.4763 17.5094 38.8101L16.2441 37.9844C16.5994 37.557 16.7765 37.1417 16.7753 36.7386C16.7793 36.3277 16.618 35.8928 16.2914 35.4338L8.6129 34.3286L9.52145 32.977L15.2165 33.8439L12.0513 29.2136Z" />
	<path d="M21.7947 25.0223C22.2552 24.8558 22.7151 24.8146 23.1743 24.8987C23.6336 24.9828 24.0555 25.1973 24.4402 25.5421C25.0418 26.0813 25.3478 26.7398 25.3583 27.5176C25.3689 28.2953 25.0942 28.9874 24.5342 29.5939L21.6708 32.6952L14.3264 26.1122L16.9799 23.2383C17.5271 22.6456 18.1843 22.3215 18.9514 22.266C19.7179 22.1973 20.3914 22.4231 20.972 22.9435C21.6085 23.514 21.8827 24.207 21.7947 25.0223ZM18.113 24.254L16.5572 25.939L18.4877 27.6694L20.0435 25.9844C20.2853 25.7225 20.398 25.4204 20.3816 25.0782C20.3582 24.7298 20.2101 24.4333 19.9373 24.1888C19.6645 23.9443 19.3545 23.8301 19.0072 23.8463C18.6529 23.8562 18.3548 23.9921 18.113 24.254ZM23.4011 28.5782C23.6556 28.3026 23.7709 27.9839 23.7468 27.6223C23.7221 27.2475 23.5664 26.9316 23.2796 26.6745C22.9929 26.4175 22.6625 26.2977 22.2884 26.3151C21.9138 26.3193 21.5992 26.4593 21.3447 26.735L19.5789 28.6475L21.6353 30.4907L23.4011 28.5782Z" />
	<path d="M31.6156 23.4466C30.4302 24.3427 29.1481 24.7013 27.7693 24.5223C26.3847 24.336 25.2492 23.6737 24.3628 22.5353C23.4763 21.3969 23.1239 20.1485 23.3056 18.7899C23.4814 17.4239 24.162 16.2929 25.3474 15.3969C26.0601 14.8581 26.846 14.5282 27.7052 14.4071C28.5719 14.2804 29.3957 14.374 30.1765 14.6879L29.5519 16.1817C29.0426 15.9561 28.499 15.8856 27.9212 15.9701C27.3451 16.0415 26.8095 16.2644 26.3144 16.6387C25.4741 17.2739 24.9957 18.0524 24.8793 18.9742C24.7703 19.8903 25.0295 20.7513 25.6569 21.557C26.2843 22.3627 27.0612 22.8323 27.9875 22.9658C28.9213 23.0937 29.8083 22.84 30.6486 22.2048C31.1437 21.8305 31.5075 21.3793 31.74 20.8513C31.9667 20.3159 32.0316 19.7795 31.9349 19.242L33.5524 19.0233C33.6655 19.842 33.5506 20.6511 33.2077 21.4505C32.8665 22.2368 32.3358 22.9022 31.6156 23.4466Z" />
	<path d="M37.2919 8.31393L38.0304 9.66814L35.5689 10.9711L39.5296 18.2346L38.0927 18.9953L34.132 11.7318L31.6581 13.0414L30.9196 11.6872L37.2919 8.31393Z" />
	<path d="M46.4847 9.84447C46.9707 9.91046 47.3964 10.0868 47.7618 10.3735C48.1271 10.6602 48.3975 11.0448 48.5729 11.5272C48.8471 12.2815 48.8036 13.0045 48.4423 13.6961C48.081 14.3877 47.5087 14.8717 46.7253 15.1482L42.7193 16.5619L39.3713 7.35218L43.0835 6.0421C43.8491 5.77192 44.5838 5.78974 45.2876 6.09557C45.9971 6.38949 46.4841 6.90045 46.7488 7.62846C47.039 8.42664 46.9509 9.16531 46.4847 9.84447ZM43.6001 7.46304L41.4235 8.23118L42.3036 10.652L44.4801 9.88389C44.8184 9.76451 45.0618 9.54995 45.2104 9.24021C45.3557 8.92171 45.3662 8.59142 45.2419 8.24934C45.1175 7.90726 44.8982 7.66304 44.5838 7.51667C44.2663 7.36153 43.9384 7.34366 43.6001 7.46304ZM46.2087 13.7273C46.5648 13.6016 46.8184 13.3735 46.9695 13.0431C47.1263 12.7008 47.1393 12.3498 47.0086 11.9902C46.8778 11.6306 46.6432 11.372 46.3047 11.2143C45.9718 11.0448 45.6274 11.0229 45.2713 11.1485L42.801 12.0203L43.7384 14.5991L46.2087 13.7273Z" />
	<path d="M54.7203 3.06886L56.3365 2.76513L54.695 10.4718C54.2903 12.3594 53.2469 13.4092 51.5648 13.621L51.2804 12.1521C51.8391 12.104 52.2643 11.9387 52.5562 11.6562C52.8573 11.372 53.0605 10.9544 53.1656 10.4035L48.6038 4.21834L50.22 3.91461L53.5692 8.53504L54.7203 3.06886Z" />
	<path d="M60.4551 1.41891L60.4191 0.105711L64.3892 0L64.4252 1.3132L60.4551 1.41891ZM64.8904 12.0657L64.7084 5.42988L60.2114 12.1903L58.9353 12.2243L58.6671 2.44515L60.2976 2.40173L60.4796 9.03757L64.9766 2.27714L66.2527 2.24316L66.5209 12.0223L64.8904 12.0657Z" />
	<path d="M80.6927 14.1701L78.7943 13.7613L75.9785 8.39117L74.9699 12.9376L73.3764 12.5944L75.4965 3.03734L77.09 3.38053L76.139 7.66756L80.7759 4.17435L82.6743 4.5832L77.72 8.3943L80.6927 14.1701Z" />
	<path d="M87.1483 16.5973L87.224 14.5126L83.2835 13.0057L81.912 14.595L80.2591 13.9629L87.2101 6.12734L89.0349 6.82514L88.7879 17.2244L87.1483 16.5973ZM84.3402 11.7908L87.2757 12.9133L87.4297 8.23508L84.3402 11.7908Z" />
	<path d="M99.0663 11.7917L100.471 12.6092L95.4207 21.032L94.0163 20.2145L95.9569 16.9778C95.2039 16.8966 94.4976 16.664 93.8382 16.2802C92.9833 15.7826 92.4267 15.1448 92.1683 14.3668C91.9229 13.5855 92.0334 12.8058 92.4999 12.0277L94.3035 9.01954L95.7079 9.83698L93.9909 12.7007C93.7312 13.1339 93.6611 13.553 93.7807 13.9581C93.9003 14.3631 94.1921 14.7007 94.6562 14.9708C95.3319 15.3641 96.0324 15.5879 96.7577 15.6421L99.0663 11.7917Z" />
	<path d="M99.5882 22.1608L102.997 24.897L102.012 26.0889L97.3382 22.3376L103.609 14.753L108.228 18.4601L107.242 19.652L103.888 16.9599L102.258 18.9319L105.337 21.4033L104.36 22.5844L101.281 20.1129L99.5882 22.1608Z" />
	<path d="M105.813 30.2302C104.82 29.1306 104.364 27.8968 104.445 26.5288C104.532 25.1546 105.12 23.9906 106.208 23.0367C107.296 22.0828 108.534 21.6457 109.922 21.7253C111.318 21.7987 112.512 22.3853 113.506 23.4849C114.103 24.1461 114.494 24.8944 114.679 25.7299C114.87 26.5724 114.835 27.3887 114.574 28.1788L113.017 27.6738C113.208 27.1568 113.24 26.6175 113.113 26.0558C112.998 25.495 112.734 24.9849 112.319 24.5255C111.615 23.746 110.792 23.3326 109.85 23.2852C108.915 23.2447 108.062 23.5621 107.293 24.2372C106.523 24.9124 106.104 25.7099 106.036 26.6299C105.975 27.5569 106.296 28.4101 107 29.1896C107.415 29.649 107.898 29.9736 108.449 30.1636C109.008 30.3475 109.556 30.3723 110.093 30.2381L110.432 31.8116C109.611 31.9824 108.784 31.9283 107.95 31.6495C107.129 31.3714 106.417 30.8983 105.813 30.2302Z" />
	<path d="M121.746 35.0098L120.427 35.8302L118.935 33.502L111.859 37.9027L110.988 36.5436L118.065 32.1429L116.566 29.8029L117.885 28.9824L121.746 35.0098Z" />
	<path d="M120.814 44.1088C120.782 44.5912 120.633 45.0221 120.369 45.4016C120.105 45.781 119.735 46.0741 119.259 46.2807C118.515 46.6038 117.78 46.6124 117.054 46.3065C116.328 46.0006 115.797 45.4725 115.462 44.7222L113.746 40.8857L122.831 36.9407L124.422 40.496C124.749 41.2292 124.784 41.9525 124.524 42.6659C124.277 43.3841 123.794 43.8991 123.076 44.2109C122.289 44.5528 121.535 44.5188 120.814 44.1088ZM123.02 41.1046L122.087 39.0201L119.699 40.057L120.631 42.1416C120.776 42.4655 121.011 42.6895 121.335 42.8135C121.668 42.9337 122.003 42.9206 122.34 42.7741C122.678 42.6275 122.909 42.3946 123.035 42.0752C123.17 41.7521 123.165 41.4286 123.02 41.1046ZM116.863 44.1136C117.016 44.4546 117.265 44.6876 117.61 44.8126C117.968 44.9424 118.324 44.9303 118.679 44.7762C119.034 44.6222 119.279 44.3732 119.414 44.0293C119.562 43.6901 119.56 43.35 119.407 43.009L118.349 40.6431L115.805 41.7477L116.863 44.1136Z" />
	<path d="M120.481 56.435C119.288 55.706 118.527 54.6522 118.198 53.2734C117.87 51.8947 118.075 50.6129 118.813 49.428C119.562 48.25 120.636 47.4993 122.035 47.1758C123.434 46.8524 124.731 47.0551 125.924 47.7841C127.129 48.52 127.895 49.5773 128.224 50.9561C128.552 52.3348 128.342 53.6132 127.593 54.7911C126.855 55.9761 125.786 56.7302 124.387 57.0537C122.988 57.3772 121.686 57.1709 120.481 56.435ZM120.152 50.2811C119.654 51.0852 119.518 51.9635 119.745 52.9159C119.972 53.8684 120.489 54.591 121.296 55.084C122.114 55.5838 123.02 55.7188 124.014 55.489C125.009 55.2592 125.755 54.7422 126.253 53.938C126.763 53.1408 126.904 52.266 126.677 51.3136C126.45 50.3612 125.928 49.635 125.109 49.1351C124.302 48.6422 123.402 48.5107 122.408 48.7405C121.413 48.9703 120.662 49.4838 120.152 50.2811Z" />
</symbol>
<symbol viewBox="0 0 288 288" xmlns="http://www.w3.org/2000/svg" id="cta-qclinic">
	<path d="M114.848 268.933C115.199 266.125 116.434 263.796 118.553 261.947L116.599 259.363L119.33 257.458L121.365 260.144C123.292 259.338 125.246 259.059 127.226 259.307C130.257 259.685 132.721 261.071 134.618 263.463C136.492 265.872 137.237 268.613 136.853 271.684C136.469 274.756 135.073 277.218 132.666 279.072C130.257 280.946 127.526 281.693 124.475 281.311C121.424 280.93 118.961 279.534 117.087 277.125C115.21 274.735 114.464 272.005 114.848 268.933ZM126.801 262.701C125.71 262.565 124.62 262.665 123.532 263L126.915 267.456L124.183 269.362L120.641 264.702C119.333 265.975 118.564 267.53 118.334 269.369C118.063 271.531 118.565 273.431 119.838 275.067C121.111 276.704 122.798 277.654 124.899 277.917C127.001 278.179 128.87 277.674 130.507 276.401C132.143 275.128 133.097 273.411 133.367 271.249C133.637 269.086 133.136 267.187 131.863 265.55C130.59 263.914 128.903 262.964 126.801 262.701Z"/>
	<path d="M107.604 269.103C107.414 269.727 107.052 270.18 106.518 270.465C105.959 270.763 105.368 270.817 104.745 270.627C104.129 270.482 103.678 270.111 103.392 269.513C103.106 268.915 103.048 268.333 103.221 267.768C103.393 267.203 103.764 266.752 104.335 266.415C104.933 266.129 105.515 266.072 106.08 266.244C106.644 266.416 107.095 266.788 107.432 267.359C107.769 267.93 107.826 268.511 107.604 269.103ZM108.082 259.67C107.478 259.486 107.027 259.114 106.729 258.555C106.431 257.996 106.374 257.415 106.558 256.811C106.742 256.207 107.113 255.756 107.672 255.458C108.232 255.16 108.813 255.103 109.417 255.287C110.021 255.471 110.472 255.842 110.77 256.401C111.068 256.96 111.125 257.542 110.941 258.146C110.757 258.749 110.395 259.203 109.856 259.507C109.297 259.805 108.705 259.859 108.082 259.67Z"/>
	<path d="M77.5102 239.735C80.2034 241.495 81.857 243.841 82.471 246.772C83.0627 249.738 82.5063 252.525 80.8016 255.133C79.0859 257.758 76.7623 259.377 73.8308 259.991C70.9053 260.633 68.0874 260.069 65.3772 258.297C63.7579 257.239 62.5171 255.88 61.6548 254.222C60.7755 252.553 60.3813 250.811 60.4721 248.997L63.9982 249.185C63.8961 250.384 64.1382 251.539 64.7244 252.652C65.2824 253.771 66.124 254.698 67.249 255.434C69.141 256.67 71.0876 257.079 73.0889 256.66C75.0449 256.235 76.6357 255.086 77.8613 253.211C79.0869 251.336 79.5015 249.417 79.1053 247.455C78.6861 245.454 77.5305 243.835 75.6384 242.598C74.5134 241.863 73.3236 241.45 72.0689 241.36C70.8031 241.287 69.6504 241.543 68.6108 242.128L67.0066 239C68.5863 238.184 70.3368 237.832 72.2582 237.944C74.1061 238.057 75.8568 238.654 77.5102 239.735Z"/>
	<path d="M48.4108 243.949L60.8706 230.928L54.5809 224.909L56.9039 222.481L65.7315 230.929L50.9488 246.377L48.4108 243.949Z"/>
	<path d="M52.958 217.373L36.1861 230.635L34.0074 227.88L50.7793 214.618L52.958 217.373Z"/>
	<path d="M32.667 198.592L20.0111 205.687L18.2933 202.623L36.9441 192.167L38.2885 194.565L30.5618 210.452L43.2177 203.357L44.9355 206.421L26.2847 216.877L24.9403 214.479L32.667 198.592Z"/>
	<path d="M34.6367 185.436L14.5722 192.825L13.3583 189.529L33.4228 182.14L34.6367 185.436Z"/>
	<path d="M28.8881 162.579C29.4899 165.739 28.9487 168.558 27.2643 171.035C25.54 173.519 23.1475 175.052 20.0869 175.635C17.0062 176.222 14.2276 175.673 11.7511 173.988C9.25829 172.328 7.70909 169.907 7.10346 166.727C6.74161 164.826 6.85842 162.99 7.45389 161.218C8.04556 159.427 9.02585 157.934 10.3948 156.741L12.7065 159.41C11.7729 160.168 11.1089 161.144 10.7145 162.339C10.2962 163.517 10.2128 164.767 10.4642 166.087C10.887 168.307 11.9437 169.992 13.6345 171.142C15.2976 172.256 17.2294 172.603 19.4299 172.184C21.6303 171.765 23.2993 170.732 24.4368 169.085C25.5866 167.395 25.9502 165.439 25.5274 163.219C25.276 161.898 24.7474 160.755 23.9416 159.789C23.1157 158.827 22.1313 158.175 20.9882 157.833L22.1273 154.507C23.8114 155.077 25.2797 156.093 26.5322 157.555C27.7333 158.964 28.5186 160.638 28.8881 162.579Z"/>
	<path d="M19.715 111.886C22.5147 112.303 24.8139 113.592 26.6125 115.754L29.2416 113.86L31.0827 116.636L28.3495 118.607C29.1098 120.552 29.3429 122.512 29.049 124.486C28.5991 127.507 27.1563 129.938 24.7205 131.778C22.2676 133.595 19.5104 134.276 16.4488 133.82C13.3873 133.364 10.9581 131.911 9.16116 129.461C7.34407 127.008 6.66198 124.261 7.11487 121.22C7.56776 118.178 9.02067 115.749 11.4736 113.932C13.9064 112.112 16.6535 111.43 19.715 111.886ZM25.6652 123.982C25.8272 122.894 25.753 121.802 25.4427 120.706L20.9091 123.984L19.068 121.208L23.8099 117.776C22.568 116.438 21.0306 115.633 19.1977 115.36C17.0425 115.039 15.1319 115.496 13.4657 116.73C11.7996 117.964 10.8106 119.629 10.4986 121.723C10.1867 123.818 10.6479 125.699 11.8821 127.365C13.1164 129.031 14.8111 130.024 16.9662 130.345C19.1214 130.666 21.032 130.21 22.6981 128.975C24.3643 127.741 25.3533 126.077 25.6652 123.982Z"/>
	<path d="M19.7187 104.634C19.0999 104.43 18.6546 104.057 18.3827 103.517C18.0979 102.951 18.0577 102.359 18.2621 101.74C18.4215 101.128 18.8035 100.686 19.4081 100.414C20.0127 100.142 20.5953 100.098 21.1561 100.283C21.7168 100.469 22.1589 100.851 22.4824 101.429C22.7545 102.034 22.7979 102.617 22.6126 103.177C22.4274 103.738 22.0454 104.18 21.4667 104.504C20.888 104.827 20.3053 104.871 19.7187 104.634ZM29.1384 105.334C29.3364 104.734 29.7184 104.292 30.2843 104.007C30.8503 103.722 31.4329 103.679 32.0323 103.877C32.6317 104.075 33.0739 104.457 33.3587 105.023C33.6435 105.589 33.6869 106.172 33.4889 106.771C33.2909 107.37 32.9089 107.812 32.3429 108.097C31.777 108.382 31.1943 108.426 30.5949 108.227C29.9955 108.029 29.5502 107.657 29.259 107.111C28.9742 106.545 28.934 105.952 29.1384 105.334Z"/>
	<path d="M49.7807 75.249C47.9577 77.9001 45.5736 79.4982 42.6286 80.0433C39.65 80.5653 36.8771 79.9437 34.3099 78.1783C31.7258 76.4014 30.1613 74.0405 29.6162 71.0954C29.0428 68.1557 29.6734 65.3518 31.508 62.6839C32.6041 61.0898 33.9912 59.8813 35.6694 59.0581C37.359 58.2182 39.1095 57.8649 40.9207 57.9983L40.6498 61.519C39.4542 61.3889 38.2932 61.6038 37.1667 62.1637C36.035 62.6953 35.0884 63.5149 34.3269 64.6223C33.0462 66.4848 32.5919 68.4213 32.964 70.4319C33.3424 72.3973 34.4545 74.0147 36.3002 75.2839C38.1459 76.5531 40.0541 77.0126 42.0248 76.6625C44.0354 76.2904 45.681 75.1731 46.9618 73.3106C47.7233 72.2031 48.1639 71.0233 48.2836 69.7711C48.3865 68.5073 48.1574 67.3489 47.5964 66.2959L50.7618 64.7655C51.5409 66.3639 51.8517 68.1222 51.6942 70.0404C51.5377 71.8852 50.8999 73.6214 49.7807 75.249Z"/>
	<path d="M46.2536 46.045L58.9785 58.8068L65.1431 52.66L67.5156 55.0393L58.8635 63.6664L43.7662 48.5253L46.2536 46.045Z"/>
	<path d="M72.7072 51.2251L59.8421 34.1467L62.6479 32.0332L75.513 49.1116L72.7072 51.2251Z"/>
	<path d="M91.9681 31.3805L85.1718 18.5616L88.2753 16.9162L98.2909 35.8072L95.8621 37.0949L80.16 28.9977L86.9563 41.8166L83.8528 43.462L73.8372 24.571L76.266 23.2833L91.9681 31.3805Z"/>
	<path d="M105.077 33.6522L98.1608 13.4199L101.485 12.2837L108.401 32.516L105.077 33.6522Z"/>
	<path d="M128.063 28.4444C124.889 28.9719 122.084 28.3647 119.648 26.6228C117.205 24.8407 115.728 22.4129 115.217 19.3394C114.703 16.2458 115.317 13.4809 117.058 11.0445C118.777 8.59134 121.233 7.09935 124.427 6.5685C126.336 6.25133 128.168 6.41117 129.926 7.04804C131.703 7.68158 133.172 8.69661 134.333 10.0932L131.611 12.3416C130.875 11.3905 129.914 10.7038 128.729 10.2814C127.561 9.83566 126.314 9.72295 124.988 9.9433C122.758 10.3139 121.049 11.3308 119.86 12.9941C118.707 14.6307 118.315 16.5538 118.682 18.7635C119.049 20.9732 120.043 22.6659 121.663 23.8417C123.326 25.0309 125.272 25.4402 127.502 25.0696C128.828 24.8493 129.983 24.3476 130.968 23.5647C131.949 22.7617 132.624 21.7928 132.993 20.6581L136.292 21.8748C135.681 23.5451 134.631 24.9892 133.141 26.2071C131.704 27.3748 130.012 28.1206 128.063 28.4444Z"/>
	<path d="M178.949 20.4588C178.467 23.2479 177.124 25.5162 174.92 27.2636L176.752 29.9364L173.934 31.7118L172.028 28.9332C170.065 29.6476 168.1 29.8347 166.134 29.4946C163.124 28.974 160.728 27.4745 158.945 24.9962C157.186 22.5013 156.57 19.7289 157.098 16.6789C157.625 13.6289 159.135 11.2345 161.626 9.4955C164.121 7.73646 166.884 7.11899 169.913 7.6431C172.943 8.16721 175.338 9.67671 177.097 12.1716C178.859 14.6464 179.477 17.4088 178.949 20.4588ZM166.717 26.1236C167.8 26.311 168.894 26.2625 169.997 25.978L166.826 21.3687L169.644 19.5932L172.964 24.4143C174.331 23.2041 175.172 21.686 175.488 19.86C175.859 17.713 175.448 15.7922 174.253 14.0975C173.058 12.4029 171.417 11.3751 169.33 11.0141C167.244 10.6532 165.353 11.0701 163.658 12.2649C161.964 13.4597 160.931 15.1306 160.559 17.2777C160.188 19.4247 160.599 21.3455 161.794 23.0402C162.989 24.7348 164.63 25.7626 166.717 26.1236Z"/>
	<path d="M186.199 20.6357C186.418 20.0219 186.801 19.5854 187.347 19.3263C187.92 19.0548 188.513 19.0285 189.127 19.2474C189.735 19.4211 190.168 19.8133 190.426 20.4241C190.684 21.035 190.713 21.6185 190.515 22.1747C190.317 22.7309 189.924 23.164 189.338 23.4738C188.727 23.7316 188.144 23.7613 187.588 23.563C187.031 23.3646 186.598 22.9724 186.289 22.3862C185.979 21.8001 185.949 21.2166 186.199 20.6357ZM185.279 30.0364C185.874 30.2484 186.307 30.6407 186.578 31.2131C186.85 31.7856 186.879 32.3691 186.667 32.9637C186.455 33.5583 186.063 33.9913 185.491 34.2628C184.918 34.5343 184.335 34.564 183.74 34.352C183.145 34.1399 182.712 33.7477 182.441 33.1752C182.169 32.6028 182.14 32.0192 182.352 31.4246C182.564 30.83 182.946 30.3936 183.5 30.1153C184.072 29.8438 184.665 29.8175 185.279 30.0364Z"/>
	<path d="M214.875 51.3791C212.267 49.4944 210.725 47.0735 210.249 44.1165C209.797 41.1265 210.484 38.3689 212.309 35.8438C214.146 33.3021 216.543 31.7934 219.5 31.3176C222.452 30.8133 225.241 31.5095 227.865 33.4061C229.433 34.5393 230.608 35.9544 231.392 37.6514C232.192 39.3603 232.504 41.1186 232.328 42.9262L228.815 42.5727C228.973 41.3805 228.786 40.2148 228.252 39.0755C227.747 37.9317 226.95 36.9661 225.861 36.1788C224.029 34.8547 222.104 34.3551 220.085 34.68C218.111 35.0122 216.468 36.086 215.156 37.9015C213.844 39.7169 213.34 41.6138 213.643 43.5922C213.968 45.6109 215.047 47.2823 216.879 48.6064C217.968 49.3937 219.137 49.8618 220.386 50.0109C221.647 50.1434 222.811 49.9416 223.876 49.4054L225.332 52.6058C223.716 53.3472 221.951 53.6167 220.037 53.4142C218.196 53.2145 216.475 52.5362 214.875 51.3791Z"/>
	<path d="M244.141 48.5349L231.084 60.957L237.085 67.264L234.651 69.58L226.229 60.728L241.72 45.99L244.141 48.5349Z"/>
	<path d="M238.352 74.8628L255.727 62.4019L257.775 65.2564L240.399 77.7173L238.352 74.8628Z"/>
	<path d="M257.739 94.5803L270.714 88.0865L272.286 91.2278L253.165 100.798L251.935 98.3391L260.398 82.8313L247.423 89.3251L245.851 86.1838L264.972 76.6141L266.202 79.0724L257.739 94.5803Z"/>
	<path d="M255.159 107.637L275.548 101.197L276.606 104.546L256.217 110.986L255.159 107.637Z"/>
	<path d="M259.83 130.733C259.377 127.548 260.05 124.758 261.849 122.363C263.688 119.962 266.15 118.543 269.234 118.104C272.339 117.663 275.089 118.341 277.484 120.14C279.896 121.916 281.33 124.406 281.786 127.612C282.058 129.527 281.855 131.356 281.177 133.097C280.502 134.859 279.453 136.304 278.03 137.432L275.846 134.658C276.814 133.944 277.523 133 277.973 131.825C278.446 130.668 278.588 129.424 278.399 128.093C278.08 125.855 277.104 124.123 275.469 122.895C273.86 121.704 271.946 121.267 269.729 121.582C267.511 121.897 265.795 122.851 264.582 124.443C263.354 126.078 262.899 128.014 263.217 130.252C263.407 131.582 263.881 132.749 264.641 133.752C265.42 134.752 266.373 135.449 267.499 135.844L266.205 139.114C264.55 138.465 263.131 137.381 261.948 135.862C260.814 134.399 260.108 132.689 259.83 130.733Z"/>
	<path d="M266.614 181.797C263.837 181.249 261.601 179.853 259.906 177.609L257.191 179.377L255.482 176.519L258.304 174.678C257.636 172.699 257.495 170.73 257.881 168.772C258.473 165.776 260.028 163.415 262.547 161.691C265.083 159.991 267.869 159.441 270.906 160.04C273.942 160.639 276.301 162.204 277.981 164.736C279.681 167.271 280.233 170.047 279.638 173.064C279.043 176.081 277.478 178.439 274.943 180.139C272.427 181.843 269.651 182.396 266.614 181.797ZM261.238 169.435C261.025 170.513 261.048 171.608 261.307 172.717L265.989 169.656L267.698 172.514L262.8 175.72C263.978 177.115 265.476 177.992 267.294 178.35C269.432 178.772 271.362 178.405 273.084 177.251C274.806 176.096 275.872 174.48 276.282 172.402C276.692 170.324 276.319 168.424 275.165 166.702C274.01 164.98 272.364 163.908 270.226 163.486C268.088 163.064 266.158 163.431 264.436 164.586C262.714 165.74 261.648 167.357 261.238 169.435Z"/>
	<path d="M266.272 189.038C266.881 189.272 267.308 189.664 267.554 190.217C267.812 190.795 267.825 191.389 267.591 191.997C267.403 192.602 267.001 193.025 266.384 193.269C265.768 193.512 265.184 193.528 264.632 193.317C264.081 193.105 263.657 192.703 263.361 192.11C263.118 191.493 263.102 190.909 263.313 190.358C263.524 189.806 263.927 189.382 264.52 189.086C265.113 188.79 265.697 188.774 266.272 189.038ZM256.896 187.898C256.67 188.487 256.267 188.911 255.689 189.169C255.11 189.427 254.526 189.443 253.936 189.217C253.347 188.991 252.923 188.589 252.665 188.01C252.407 187.431 252.391 186.847 252.617 186.258C252.843 185.668 253.246 185.245 253.824 184.987C254.403 184.729 254.987 184.713 255.576 184.939C256.166 185.165 256.593 185.557 256.858 186.117C257.116 186.696 257.129 187.289 256.896 187.898Z"/>
	<path d="M234.866 216.989C236.811 214.427 239.268 212.942 242.235 212.536C245.235 212.154 247.975 212.905 250.457 214.789C252.955 216.685 254.407 219.117 254.813 222.084C255.248 225.048 254.487 227.819 252.529 230.398C251.359 231.939 249.917 233.081 248.202 233.824C246.475 234.584 244.71 234.855 242.907 234.637L243.343 231.132C244.531 231.319 245.701 231.158 246.852 230.652C248.008 230.174 248.992 229.4 249.804 228.329C251.171 226.529 251.716 224.616 251.438 222.59C251.152 220.609 250.117 218.941 248.333 217.587C246.549 216.232 244.664 215.684 242.68 215.941C240.654 216.219 238.957 217.257 237.591 219.058C236.778 220.128 236.283 221.286 236.104 222.531C235.942 223.789 236.117 224.957 236.628 226.035L233.394 227.415C232.691 225.782 232.463 224.011 232.71 222.102C232.953 220.267 233.672 218.563 234.866 216.989Z"/>
	<path d="M237.02 246.31L224.908 232.966L218.462 238.817L216.204 236.329L225.251 228.117L239.621 243.949L237.02 246.31Z"/>
	<path d="M210.834 239.909L222.884 257.572L219.982 259.552L207.932 241.889L210.834 239.909Z"/>
	<path d="M190.664 258.826L196.851 271.949L193.674 273.447L184.555 254.107L187.042 252.935L202.347 261.76L196.159 248.636L199.337 247.138L208.455 266.478L205.969 267.651L190.664 258.826Z"/>
	<path d="M177.679 255.935L183.638 276.469L180.265 277.449L174.305 256.914L177.679 255.935Z"/>
	<path d="M154.468 260.067C157.664 259.689 160.437 260.427 162.789 262.282C165.146 264.177 166.507 266.671 166.874 269.765C167.242 272.879 166.499 275.612 164.645 277.964C162.813 280.334 160.29 281.709 157.074 282.09C155.153 282.317 153.33 282.071 151.604 281.353C149.859 280.637 148.439 279.554 147.344 278.104L150.17 275.986C150.86 276.971 151.787 277.702 152.951 278.179C154.097 278.679 155.338 278.85 156.672 278.692C158.917 278.427 160.672 277.491 161.938 275.885C163.166 274.305 163.648 272.402 163.385 270.178C163.122 267.953 162.209 266.216 160.646 264.965C159.04 263.699 157.115 263.199 154.87 263.465C153.536 263.623 152.358 264.07 151.338 264.806C150.32 265.562 149.6 266.498 149.179 267.614L145.941 266.244C146.629 264.604 147.745 263.211 149.291 262.064C150.781 260.965 152.507 260.3 154.468 260.067Z"/>
</symbol>


</svg>