<svg width="15" height="15" viewBox="0 0 15 15" fill="none" xmlns="http://www.w3.org/2000/svg">
<path d="M7.5 0C3.35938 0 0 3.35938 0 7.5C0 11.6406 3.35938 15 7.5 15C11.6406 15 15 11.6406 15 7.5C15 3.35938 11.6406 0 7.5 0ZM7.90781 11.7969H6.72773C6.70118 11.7968 6.67574 11.7861 6.657 11.7673C6.63826 11.7485 6.62773 11.723 6.62773 11.6965V10.5168C6.62773 10.4902 6.63826 10.4648 6.657 10.4459C6.67574 10.4271 6.70118 10.4165 6.72773 10.4164H7.90781C7.93437 10.4165 7.9598 10.4271 7.97855 10.4459C7.99729 10.4648 8.00781 10.4902 8.00781 10.5168V11.6965C8.00781 11.723 7.99729 11.7485 7.97855 11.7673C7.9598 11.7861 7.93437 11.7968 7.90781 11.7969ZM8.57187 7.92969C7.93867 8.35469 7.85156 8.74414 7.85156 9.10156V9.53125C7.85156 9.56233 7.83922 9.59214 7.81724 9.61411C7.79526 9.63609 7.76546 9.64844 7.73438 9.64844H6.875C6.84392 9.64844 6.81411 9.63609 6.79214 9.61411C6.77016 9.59214 6.75781 9.56233 6.75781 9.53125V9.10156C6.75781 8.2457 7.15156 7.56523 7.96172 7.02109C8.71484 6.51562 9.14062 6.19531 9.14062 5.49102C9.14062 5.01211 8.86719 4.64844 8.30117 4.3793C8.16797 4.31602 7.87148 4.2543 7.50664 4.25859C7.04883 4.26445 6.69336 4.37383 6.41953 4.59414C5.90312 5.00977 5.85938 5.4625 5.85938 5.46875C5.83793 5.60154 5.82696 5.73581 5.82656 5.87031C5.82656 5.90139 5.81422 5.9312 5.79224 5.95318C5.77026 5.97515 5.74046 5.9875 5.70938 5.9875H4.8793C4.85021 5.98766 4.8221 5.97698 4.80044 5.95756C4.77878 5.93814 4.76512 5.91136 4.76211 5.88242C4.74804 5.72643 4.74922 5.56944 4.76562 5.41367C4.77422 5.31875 4.83594 4.46367 5.7332 3.7418C6.19844 3.36758 6.79023 3.17305 7.49102 3.16445C7.98711 3.15859 8.45312 3.24258 8.76914 3.3918C9.71484 3.84141 10.2344 4.58711 10.2344 5.49102C10.2344 6.8125 9.35117 7.40586 8.57187 7.92969Z" fill="#58C1D6"/>
</svg>
